G04 EAGLE Gerber RS-274X export*
G75*
%MOMM*%
%FSLAX34Y34*%
%LPD*%
%INTop Copper*%
%IPPOS*%
%AMOC8*
5,1,8,0,0,1.08239X$1,22.5*%
G01*
G04 Define Apertures*
%ADD10R,0.600000X0.620000*%
%ADD11R,2.700000X1.600000*%
%ADD12R,0.620000X1.470000*%
%ADD13R,0.990000X0.780000*%
%ADD14R,1.390000X0.910000*%
%ADD15R,1.800000X3.350000*%
%ADD16R,3.350000X1.800000*%
%ADD17R,3.150000X2.300000*%
%ADD18R,1.525000X0.650000*%
%ADD19R,1.800000X1.800000*%
%ADD20C,1.800000*%
%ADD21R,2.700000X2.700000*%
%ADD22C,2.700000*%
%ADD23R,4.400000X1.180000*%
%ADD24C,3.000000*%
%ADD25C,1.508000*%
%ADD26R,0.600000X0.750000*%
%ADD27R,0.400000X0.625000*%
%ADD28R,1.950000X1.950000*%
%ADD29C,1.950000*%
%ADD30C,2.100000*%
%ADD31C,0.756400*%
%ADD32C,0.406400*%
%ADD33C,8.000000*%
%ADD34C,0.152400*%
G36*
X1589375Y10220D02*
X1589078Y10160D01*
X10922Y10160D01*
X10647Y10211D01*
X10392Y10375D01*
X10220Y10625D01*
X10160Y10922D01*
X10160Y989078D01*
X10211Y989353D01*
X10375Y989608D01*
X10625Y989780D01*
X10922Y989840D01*
X1589078Y989840D01*
X1589353Y989789D01*
X1589608Y989625D01*
X1589780Y989375D01*
X1589840Y989078D01*
X1589840Y10922D01*
X1589789Y10647D01*
X1589625Y10392D01*
X1589375Y10220D01*
G37*
%LPC*%
G36*
X1405371Y864940D02*
X1414629Y864940D01*
X1423571Y867336D01*
X1431589Y871965D01*
X1438135Y878511D01*
X1442764Y886529D01*
X1445160Y895471D01*
X1445160Y904729D01*
X1442764Y913671D01*
X1438135Y921689D01*
X1431589Y928235D01*
X1423571Y932864D01*
X1414629Y935260D01*
X1405371Y935260D01*
X1396429Y932864D01*
X1388411Y928235D01*
X1381865Y921689D01*
X1377236Y913671D01*
X1374840Y904729D01*
X1374840Y895471D01*
X1377236Y886529D01*
X1381865Y878511D01*
X1388411Y871965D01*
X1396429Y867336D01*
X1405371Y864940D01*
G37*
G36*
X185371Y864840D02*
X194629Y864840D01*
X203571Y867236D01*
X211589Y871865D01*
X218135Y878411D01*
X222764Y886429D01*
X225160Y895371D01*
X225160Y904629D01*
X222764Y913571D01*
X218135Y921589D01*
X211589Y928135D01*
X203571Y932764D01*
X194629Y935160D01*
X185371Y935160D01*
X176429Y932764D01*
X168411Y928135D01*
X161865Y921589D01*
X157236Y913571D01*
X154840Y904629D01*
X154840Y895371D01*
X157236Y886429D01*
X161865Y878411D01*
X168411Y871865D01*
X176429Y867236D01*
X185371Y864840D01*
G37*
G36*
X1082224Y712776D02*
X1098736Y712776D01*
X1099629Y713669D01*
X1099629Y721431D01*
X1099150Y721910D01*
X1098992Y722140D01*
X1098927Y722437D01*
X1098983Y722735D01*
X1099150Y722988D01*
X1115286Y739123D01*
X1115286Y743914D01*
X1115337Y744189D01*
X1115501Y744444D01*
X1115751Y744616D01*
X1116048Y744676D01*
X1116631Y744676D01*
X1117061Y745106D01*
X1117292Y745264D01*
X1117588Y745329D01*
X1117886Y745273D01*
X1118139Y745106D01*
X1118569Y744676D01*
X1119152Y744676D01*
X1119427Y744625D01*
X1119682Y744461D01*
X1119854Y744211D01*
X1119914Y743914D01*
X1119914Y739123D01*
X1136050Y722988D01*
X1136208Y722757D01*
X1136273Y722461D01*
X1136217Y722163D01*
X1136050Y721910D01*
X1135571Y721431D01*
X1135571Y713669D01*
X1136464Y712776D01*
X1152976Y712776D01*
X1153869Y713669D01*
X1153869Y721431D01*
X1152976Y722324D01*
X1149038Y722324D01*
X1148763Y722375D01*
X1148508Y722539D01*
X1148336Y722789D01*
X1148276Y723086D01*
X1148276Y787331D01*
X1148332Y787617D01*
X1148499Y787870D01*
X1156950Y796321D01*
X1157191Y796484D01*
X1157489Y796544D01*
X1198417Y796544D01*
X1198523Y796616D01*
X1198821Y796676D01*
X1222881Y796676D01*
X1223774Y797569D01*
X1223774Y805382D01*
X1223825Y805657D01*
X1223989Y805912D01*
X1224239Y806084D01*
X1224536Y806144D01*
X1258414Y806144D01*
X1258689Y806093D01*
X1258944Y805929D01*
X1259116Y805679D01*
X1259176Y805382D01*
X1259176Y797419D01*
X1260069Y796526D01*
X1305331Y796526D01*
X1306224Y797419D01*
X1306224Y810481D01*
X1305331Y811374D01*
X1280621Y811374D01*
X1280335Y811430D01*
X1280082Y811597D01*
X1278423Y813256D01*
X1224536Y813256D01*
X1224261Y813307D01*
X1224006Y813471D01*
X1223834Y813721D01*
X1223774Y814018D01*
X1223774Y821831D01*
X1222881Y822724D01*
X1190119Y822724D01*
X1189226Y821831D01*
X1189226Y804418D01*
X1189175Y804143D01*
X1189011Y803888D01*
X1188761Y803716D01*
X1188464Y803656D01*
X1154227Y803656D01*
X1141164Y790593D01*
X1141164Y726179D01*
X1141117Y725915D01*
X1140958Y725657D01*
X1140710Y725482D01*
X1140414Y725417D01*
X1140116Y725472D01*
X1139863Y725640D01*
X1124709Y740794D01*
X1124546Y741035D01*
X1124486Y741333D01*
X1124486Y743914D01*
X1124537Y744189D01*
X1124701Y744444D01*
X1124951Y744616D01*
X1125248Y744676D01*
X1125831Y744676D01*
X1126724Y745569D01*
X1126724Y753031D01*
X1125831Y753924D01*
X1118569Y753924D01*
X1118139Y753494D01*
X1117908Y753336D01*
X1117612Y753271D01*
X1117314Y753327D01*
X1117061Y753494D01*
X1116631Y753924D01*
X1109369Y753924D01*
X1108476Y753031D01*
X1108476Y745569D01*
X1109369Y744676D01*
X1109952Y744676D01*
X1110227Y744625D01*
X1110482Y744461D01*
X1110654Y744211D01*
X1110714Y743914D01*
X1110714Y741333D01*
X1110658Y741047D01*
X1110491Y740794D01*
X1092244Y722547D01*
X1092003Y722384D01*
X1091705Y722324D01*
X1082224Y722324D01*
X1081331Y721431D01*
X1081331Y713669D01*
X1082224Y712776D01*
G37*
G36*
X1422742Y450624D02*
X1427138Y450624D01*
X1430246Y453732D01*
X1430246Y458128D01*
X1428719Y459655D01*
X1428556Y459896D01*
X1428496Y460193D01*
X1428496Y693369D01*
X1417269Y704596D01*
X1412786Y704596D01*
X1412511Y704647D01*
X1412256Y704811D01*
X1412084Y705061D01*
X1412024Y705358D01*
X1412024Y709431D01*
X1411131Y710324D01*
X1382869Y710324D01*
X1381976Y709431D01*
X1381976Y705118D01*
X1381925Y704843D01*
X1381761Y704588D01*
X1381511Y704416D01*
X1381214Y704356D01*
X1349286Y704356D01*
X1349011Y704407D01*
X1348756Y704571D01*
X1348584Y704821D01*
X1348524Y705118D01*
X1348524Y709431D01*
X1347631Y710324D01*
X1337818Y710324D01*
X1337543Y710375D01*
X1337288Y710539D01*
X1337116Y710789D01*
X1337056Y711086D01*
X1337056Y772323D01*
X1334973Y774406D01*
X1306986Y774406D01*
X1306711Y774457D01*
X1306456Y774621D01*
X1306284Y774871D01*
X1306224Y775168D01*
X1306224Y777381D01*
X1305331Y778274D01*
X1260069Y778274D01*
X1259176Y777381D01*
X1259176Y764319D01*
X1260069Y763426D01*
X1270203Y763426D01*
X1270467Y763379D01*
X1270725Y763220D01*
X1270900Y762972D01*
X1270965Y762676D01*
X1270910Y762378D01*
X1270742Y762125D01*
X1242314Y733697D01*
X1242314Y697336D01*
X1242263Y697061D01*
X1242099Y696806D01*
X1241849Y696634D01*
X1241552Y696574D01*
X1240969Y696574D01*
X1240076Y695681D01*
X1240076Y686919D01*
X1240656Y686339D01*
X1240814Y686108D01*
X1240879Y685812D01*
X1240823Y685514D01*
X1240656Y685261D01*
X1240076Y684681D01*
X1240076Y679325D01*
X1240020Y679039D01*
X1239853Y678786D01*
X1237324Y676257D01*
X1237094Y676099D01*
X1236798Y676034D01*
X1236500Y676090D01*
X1236247Y676257D01*
X1234098Y678406D01*
X1229702Y678406D01*
X1226594Y675298D01*
X1226594Y670902D01*
X1229702Y667794D01*
X1234098Y667794D01*
X1236895Y670591D01*
X1237136Y670754D01*
X1237433Y670814D01*
X1238347Y670814D01*
X1241013Y673480D01*
X1241233Y673633D01*
X1241528Y673703D01*
X1241827Y673652D01*
X1242082Y673489D01*
X1242254Y673239D01*
X1242314Y672941D01*
X1242314Y659236D01*
X1242263Y658961D01*
X1242099Y658706D01*
X1241849Y658534D01*
X1241552Y658474D01*
X1240969Y658474D01*
X1240076Y657581D01*
X1240076Y648755D01*
X1240096Y648727D01*
X1240161Y648431D01*
X1240105Y648132D01*
X1239938Y647880D01*
X1239060Y647002D01*
X1239060Y642962D01*
X1250140Y642962D01*
X1250140Y647002D01*
X1249263Y647880D01*
X1249105Y648110D01*
X1249039Y648406D01*
X1249095Y648704D01*
X1249124Y648748D01*
X1249124Y657581D01*
X1248231Y658474D01*
X1247648Y658474D01*
X1247373Y658525D01*
X1247118Y658689D01*
X1246946Y658939D01*
X1246886Y659236D01*
X1246886Y674264D01*
X1246937Y674539D01*
X1247101Y674794D01*
X1247351Y674966D01*
X1247648Y675026D01*
X1248231Y675026D01*
X1249124Y675919D01*
X1249124Y684681D01*
X1248544Y685261D01*
X1248386Y685492D01*
X1248321Y685788D01*
X1248377Y686086D01*
X1248544Y686339D01*
X1249124Y686919D01*
X1249124Y695681D01*
X1248231Y696574D01*
X1247648Y696574D01*
X1247373Y696625D01*
X1247118Y696789D01*
X1246946Y697039D01*
X1246886Y697336D01*
X1246886Y731487D01*
X1246942Y731773D01*
X1247109Y732026D01*
X1278286Y763203D01*
X1278527Y763366D01*
X1278825Y763426D01*
X1305331Y763426D01*
X1306224Y764319D01*
X1306224Y766532D01*
X1306275Y766807D01*
X1306439Y767062D01*
X1306689Y767234D01*
X1306986Y767294D01*
X1329182Y767294D01*
X1329457Y767243D01*
X1329712Y767079D01*
X1329884Y766829D01*
X1329944Y766532D01*
X1329944Y711086D01*
X1329893Y710811D01*
X1329729Y710556D01*
X1329479Y710384D01*
X1329182Y710324D01*
X1319369Y710324D01*
X1318476Y709431D01*
X1318476Y692169D01*
X1319369Y691276D01*
X1347631Y691276D01*
X1348524Y692169D01*
X1348524Y696482D01*
X1348575Y696757D01*
X1348739Y697012D01*
X1348989Y697184D01*
X1349286Y697244D01*
X1381214Y697244D01*
X1381489Y697193D01*
X1381744Y697029D01*
X1381916Y696779D01*
X1381976Y696482D01*
X1381976Y692169D01*
X1382869Y691276D01*
X1411131Y691276D01*
X1412024Y692169D01*
X1412024Y696722D01*
X1412075Y696997D01*
X1412239Y697252D01*
X1412489Y697424D01*
X1412786Y697484D01*
X1414007Y697484D01*
X1414293Y697428D01*
X1414546Y697261D01*
X1421161Y690646D01*
X1421324Y690405D01*
X1421384Y690107D01*
X1421384Y460193D01*
X1421328Y459907D01*
X1421161Y459655D01*
X1419634Y458128D01*
X1419634Y453732D01*
X1422742Y450624D01*
G37*
G36*
X1188210Y740462D02*
X1205738Y740462D01*
X1205738Y753740D01*
X1189698Y753740D01*
X1188210Y752252D01*
X1188210Y740462D01*
G37*
G36*
X1207262Y740462D02*
X1224790Y740462D01*
X1224790Y752252D01*
X1223302Y753740D01*
X1207262Y753740D01*
X1207262Y740462D01*
G37*
G36*
X1207262Y725660D02*
X1223302Y725660D01*
X1224790Y727148D01*
X1224790Y738938D01*
X1207262Y738938D01*
X1207262Y725660D01*
G37*
G36*
X1189698Y725660D02*
X1205738Y725660D01*
X1205738Y738938D01*
X1188210Y738938D01*
X1188210Y727148D01*
X1189698Y725660D01*
G37*
G36*
X184497Y702936D02*
X188103Y702936D01*
X191434Y704316D01*
X193984Y706866D01*
X195364Y710197D01*
X195364Y713803D01*
X193984Y717134D01*
X191434Y719684D01*
X188103Y721064D01*
X184497Y721064D01*
X181166Y719684D01*
X178616Y717134D01*
X177236Y713803D01*
X177236Y710197D01*
X178616Y706866D01*
X181166Y704316D01*
X184497Y702936D01*
G37*
G36*
X1134555Y705612D02*
X1143958Y705612D01*
X1143958Y710640D01*
X1136043Y710640D01*
X1134555Y709152D01*
X1134555Y705612D01*
G37*
G36*
X1145482Y705612D02*
X1154885Y705612D01*
X1154885Y709152D01*
X1153397Y710640D01*
X1145482Y710640D01*
X1145482Y705612D01*
G37*
G36*
X1435442Y222024D02*
X1439838Y222024D01*
X1442946Y225132D01*
X1442946Y229528D01*
X1441419Y231055D01*
X1441256Y231296D01*
X1441196Y231593D01*
X1441196Y362767D01*
X1441252Y363053D01*
X1441419Y363305D01*
X1442946Y364832D01*
X1442946Y369228D01*
X1441419Y370755D01*
X1441256Y370996D01*
X1441196Y371293D01*
X1441196Y496399D01*
X1441252Y496685D01*
X1441419Y496937D01*
X1442946Y498464D01*
X1442946Y502860D01*
X1439838Y505968D01*
X1435442Y505968D01*
X1432334Y502860D01*
X1432334Y498464D01*
X1433861Y496937D01*
X1434024Y496696D01*
X1434084Y496399D01*
X1434084Y372618D01*
X1434033Y372343D01*
X1433869Y372088D01*
X1433619Y371916D01*
X1433322Y371856D01*
X1068418Y371856D01*
X1068143Y371907D01*
X1067888Y372071D01*
X1067716Y372321D01*
X1067656Y372618D01*
X1067656Y689135D01*
X1067712Y689421D01*
X1067879Y689674D01*
X1068724Y690519D01*
X1068724Y697779D01*
X1068780Y698065D01*
X1068947Y698318D01*
X1071700Y701071D01*
X1071941Y701234D01*
X1072239Y701294D01*
X1080690Y701294D01*
X1080976Y701238D01*
X1081229Y701071D01*
X1082224Y700076D01*
X1098736Y700076D01*
X1099629Y700969D01*
X1099629Y708731D01*
X1098736Y709624D01*
X1082224Y709624D01*
X1081229Y708629D01*
X1080987Y708466D01*
X1080690Y708406D01*
X1068977Y708406D01*
X1068168Y707597D01*
X1067927Y707434D01*
X1067629Y707374D01*
X1060369Y707374D01*
X1059476Y706481D01*
X1059476Y690519D01*
X1060321Y689674D01*
X1060484Y689432D01*
X1060544Y689135D01*
X1060544Y341989D01*
X1060488Y341703D01*
X1060321Y341450D01*
X1022150Y303279D01*
X1021909Y303116D01*
X1021611Y303056D01*
X963222Y303056D01*
X962941Y303109D01*
X962687Y303275D01*
X962518Y303526D01*
X960308Y308860D01*
X955660Y313508D01*
X949587Y316024D01*
X943013Y316024D01*
X936940Y313508D01*
X932292Y308860D01*
X929776Y302787D01*
X929776Y296213D01*
X932292Y290140D01*
X936940Y285492D01*
X943013Y282976D01*
X949587Y282976D01*
X955660Y285492D01*
X960308Y290140D01*
X962518Y295474D01*
X962674Y295712D01*
X962924Y295884D01*
X963222Y295944D01*
X1024873Y295944D01*
X1067656Y338727D01*
X1067656Y363982D01*
X1067707Y364257D01*
X1067871Y364512D01*
X1068121Y364684D01*
X1068418Y364744D01*
X1293611Y364744D01*
X1293897Y364688D01*
X1294150Y364521D01*
X1306041Y352630D01*
X1306204Y352389D01*
X1306264Y352091D01*
X1306264Y342086D01*
X1306213Y341811D01*
X1306049Y341556D01*
X1305799Y341384D01*
X1305502Y341324D01*
X1301564Y341324D01*
X1300671Y340431D01*
X1300671Y332669D01*
X1301564Y331776D01*
X1318076Y331776D01*
X1318969Y332669D01*
X1318969Y340431D01*
X1318076Y341324D01*
X1314138Y341324D01*
X1313863Y341375D01*
X1313608Y341539D01*
X1313436Y341789D01*
X1313376Y342086D01*
X1313376Y355353D01*
X1305286Y363443D01*
X1305133Y363663D01*
X1305063Y363958D01*
X1305114Y364257D01*
X1305277Y364512D01*
X1305527Y364684D01*
X1305825Y364744D01*
X1432107Y364744D01*
X1432393Y364688D01*
X1432645Y364521D01*
X1433861Y363305D01*
X1434024Y363064D01*
X1434084Y362767D01*
X1434084Y231593D01*
X1434028Y231307D01*
X1433861Y231055D01*
X1432334Y229528D01*
X1432334Y225132D01*
X1435442Y222024D01*
G37*
G36*
X1044862Y699262D02*
X1049740Y699262D01*
X1049740Y706902D01*
X1048252Y708390D01*
X1044862Y708390D01*
X1044862Y699262D01*
G37*
G36*
X1038460Y699262D02*
X1043338Y699262D01*
X1043338Y708390D01*
X1039948Y708390D01*
X1038460Y706902D01*
X1038460Y699262D01*
G37*
G36*
X1145482Y699060D02*
X1153397Y699060D01*
X1154885Y700548D01*
X1154885Y704088D01*
X1145482Y704088D01*
X1145482Y699060D01*
G37*
G36*
X1136043Y699060D02*
X1143958Y699060D01*
X1143958Y704088D01*
X1134555Y704088D01*
X1134555Y700548D01*
X1136043Y699060D01*
G37*
G36*
X1039948Y688610D02*
X1043338Y688610D01*
X1043338Y697738D01*
X1038460Y697738D01*
X1038460Y690098D01*
X1039948Y688610D01*
G37*
G36*
X1044862Y688610D02*
X1048252Y688610D01*
X1049740Y690098D01*
X1049740Y697738D01*
X1044862Y697738D01*
X1044862Y688610D01*
G37*
G36*
X1124719Y623876D02*
X1135881Y623876D01*
X1136774Y624769D01*
X1136774Y633831D01*
X1135881Y634724D01*
X1133348Y634724D01*
X1133073Y634775D01*
X1132818Y634939D01*
X1132646Y635189D01*
X1132586Y635486D01*
X1132586Y659137D01*
X1132642Y659423D01*
X1132809Y659676D01*
X1135144Y662011D01*
X1135385Y662174D01*
X1135683Y662234D01*
X1164114Y662234D01*
X1164389Y662183D01*
X1164644Y662019D01*
X1164816Y661769D01*
X1164876Y661472D01*
X1164876Y660631D01*
X1164924Y660412D01*
X1164876Y660155D01*
X1164876Y652524D01*
X1165891Y651509D01*
X1166054Y651267D01*
X1166114Y650970D01*
X1166114Y637336D01*
X1166063Y637061D01*
X1165899Y636806D01*
X1165649Y636634D01*
X1165352Y636574D01*
X1160819Y636574D01*
X1159926Y635681D01*
X1159926Y625319D01*
X1160819Y624426D01*
X1175981Y624426D01*
X1176874Y625319D01*
X1176874Y635681D01*
X1175981Y636574D01*
X1171448Y636574D01*
X1171173Y636625D01*
X1170918Y636789D01*
X1170746Y637039D01*
X1170686Y637336D01*
X1170686Y650970D01*
X1170742Y651256D01*
X1170909Y651509D01*
X1171924Y652524D01*
X1171924Y660169D01*
X1171876Y660388D01*
X1171924Y660645D01*
X1171924Y668276D01*
X1170909Y669291D01*
X1170746Y669533D01*
X1170686Y669830D01*
X1170686Y686747D01*
X1162997Y694436D01*
X1154631Y694436D01*
X1154356Y694487D01*
X1154101Y694651D01*
X1153929Y694901D01*
X1153869Y695198D01*
X1153869Y696031D01*
X1152976Y696924D01*
X1136464Y696924D01*
X1135571Y696031D01*
X1135571Y688269D01*
X1136464Y687376D01*
X1152976Y687376D01*
X1153869Y688269D01*
X1153869Y689102D01*
X1153920Y689377D01*
X1154084Y689632D01*
X1154334Y689804D01*
X1154631Y689864D01*
X1160787Y689864D01*
X1161073Y689808D01*
X1161326Y689641D01*
X1165891Y685076D01*
X1166054Y684835D01*
X1166114Y684537D01*
X1166114Y669830D01*
X1166058Y669544D01*
X1165891Y669291D01*
X1164876Y668276D01*
X1164876Y667568D01*
X1164825Y667293D01*
X1164661Y667038D01*
X1164411Y666866D01*
X1164114Y666806D01*
X1159798Y666806D01*
X1159535Y666853D01*
X1159277Y667012D01*
X1159102Y667260D01*
X1159036Y667556D01*
X1159092Y667854D01*
X1159260Y668107D01*
X1161530Y670378D01*
X1161530Y674773D01*
X1158422Y677882D01*
X1154631Y677882D01*
X1154356Y677933D01*
X1154101Y678096D01*
X1153929Y678346D01*
X1153869Y678644D01*
X1153869Y683331D01*
X1152976Y684224D01*
X1136464Y684224D01*
X1135571Y683331D01*
X1135571Y675569D01*
X1136464Y674676D01*
X1145945Y674676D01*
X1146231Y674620D01*
X1146484Y674453D01*
X1150648Y670290D01*
X1150691Y670290D01*
X1150977Y670234D01*
X1151230Y670066D01*
X1153189Y668107D01*
X1153342Y667887D01*
X1153412Y667592D01*
X1153361Y667293D01*
X1153198Y667038D01*
X1152948Y666866D01*
X1152651Y666806D01*
X1133473Y666806D01*
X1128014Y661347D01*
X1128014Y635486D01*
X1127963Y635211D01*
X1127799Y634956D01*
X1127549Y634784D01*
X1127252Y634724D01*
X1124719Y634724D01*
X1123826Y633831D01*
X1123826Y624769D01*
X1124719Y623876D01*
G37*
G36*
X1082224Y687376D02*
X1098736Y687376D01*
X1099629Y688269D01*
X1099629Y696031D01*
X1098736Y696924D01*
X1082224Y696924D01*
X1081331Y696031D01*
X1081331Y688269D01*
X1082224Y687376D01*
G37*
G36*
X1086660Y642962D02*
X1097740Y642962D01*
X1097740Y647002D01*
X1096863Y647880D01*
X1096705Y648110D01*
X1096639Y648406D01*
X1096695Y648704D01*
X1096724Y648748D01*
X1096724Y657581D01*
X1095831Y658474D01*
X1095248Y658474D01*
X1094973Y658525D01*
X1094718Y658689D01*
X1094546Y658939D01*
X1094486Y659236D01*
X1094486Y673914D01*
X1094537Y674189D01*
X1094701Y674444D01*
X1094951Y674616D01*
X1095248Y674676D01*
X1098736Y674676D01*
X1099629Y675569D01*
X1099629Y683331D01*
X1098736Y684224D01*
X1082224Y684224D01*
X1081331Y683331D01*
X1081331Y675569D01*
X1082224Y674676D01*
X1089152Y674676D01*
X1089427Y674625D01*
X1089682Y674461D01*
X1089854Y674211D01*
X1089914Y673914D01*
X1089914Y659236D01*
X1089863Y658961D01*
X1089699Y658706D01*
X1089449Y658534D01*
X1089152Y658474D01*
X1088569Y658474D01*
X1087676Y657581D01*
X1087676Y648755D01*
X1087696Y648727D01*
X1087761Y648431D01*
X1087705Y648132D01*
X1087538Y647880D01*
X1086660Y647002D01*
X1086660Y642962D01*
G37*
G36*
X1317460Y671562D02*
X1332738Y671562D01*
X1332738Y681340D01*
X1318948Y681340D01*
X1317460Y679852D01*
X1317460Y671562D01*
G37*
G36*
X1380960Y671562D02*
X1396238Y671562D01*
X1396238Y681340D01*
X1382448Y681340D01*
X1380960Y679852D01*
X1380960Y671562D01*
G37*
G36*
X1397762Y671562D02*
X1413040Y671562D01*
X1413040Y679852D01*
X1411552Y681340D01*
X1397762Y681340D01*
X1397762Y671562D01*
G37*
G36*
X1334262Y671562D02*
X1349540Y671562D01*
X1349540Y679852D01*
X1348052Y681340D01*
X1334262Y681340D01*
X1334262Y671562D01*
G37*
G36*
X1397762Y660260D02*
X1411552Y660260D01*
X1413040Y661748D01*
X1413040Y670038D01*
X1397762Y670038D01*
X1397762Y660260D01*
G37*
G36*
X1382448Y660260D02*
X1396238Y660260D01*
X1396238Y670038D01*
X1380960Y670038D01*
X1380960Y661748D01*
X1382448Y660260D01*
G37*
G36*
X1334262Y660260D02*
X1348052Y660260D01*
X1349540Y661748D01*
X1349540Y670038D01*
X1334262Y670038D01*
X1334262Y660260D01*
G37*
G36*
X1318948Y660260D02*
X1332738Y660260D01*
X1332738Y670038D01*
X1317460Y670038D01*
X1317460Y661748D01*
X1318948Y660260D01*
G37*
G36*
X720912Y153076D02*
X726888Y153076D01*
X732410Y155363D01*
X736637Y159590D01*
X738924Y165112D01*
X738924Y171088D01*
X736637Y176610D01*
X732410Y180837D01*
X727926Y182694D01*
X727688Y182851D01*
X727516Y183101D01*
X727456Y183398D01*
X727456Y560273D01*
X639673Y648056D01*
X195147Y648056D01*
X194867Y648109D01*
X194613Y648275D01*
X194443Y648526D01*
X193984Y649634D01*
X191434Y652184D01*
X188103Y653564D01*
X184497Y653564D01*
X181166Y652184D01*
X178616Y649634D01*
X177236Y646303D01*
X177236Y642697D01*
X178616Y639366D01*
X181166Y636816D01*
X184497Y635436D01*
X188103Y635436D01*
X191434Y636816D01*
X193984Y639366D01*
X194443Y640474D01*
X194600Y640712D01*
X194850Y640884D01*
X195147Y640944D01*
X636411Y640944D01*
X636697Y640888D01*
X636950Y640721D01*
X720121Y557550D01*
X720284Y557309D01*
X720344Y557011D01*
X720344Y183398D01*
X720291Y183118D01*
X720125Y182864D01*
X719874Y182694D01*
X715390Y180837D01*
X711163Y176610D01*
X708876Y171088D01*
X708876Y165112D01*
X711163Y159590D01*
X715390Y155363D01*
X720912Y153076D01*
G37*
G36*
X1245362Y635910D02*
X1248652Y635910D01*
X1250140Y637398D01*
X1250140Y641438D01*
X1245362Y641438D01*
X1245362Y635910D01*
G37*
G36*
X1240548Y635910D02*
X1243838Y635910D01*
X1243838Y641438D01*
X1239060Y641438D01*
X1239060Y637398D01*
X1240548Y635910D01*
G37*
G36*
X1092962Y635910D02*
X1096252Y635910D01*
X1097740Y637398D01*
X1097740Y641438D01*
X1092962Y641438D01*
X1092962Y635910D01*
G37*
G36*
X1088148Y635910D02*
X1091438Y635910D01*
X1091438Y641438D01*
X1086660Y641438D01*
X1086660Y637398D01*
X1088148Y635910D01*
G37*
G36*
X1122810Y616062D02*
X1129538Y616062D01*
X1129538Y621740D01*
X1124298Y621740D01*
X1122810Y620252D01*
X1122810Y616062D01*
G37*
G36*
X1131062Y616062D02*
X1137790Y616062D01*
X1137790Y620252D01*
X1136302Y621740D01*
X1131062Y621740D01*
X1131062Y616062D01*
G37*
G36*
X1158910Y614862D02*
X1167638Y614862D01*
X1167638Y621190D01*
X1160398Y621190D01*
X1158910Y619702D01*
X1158910Y614862D01*
G37*
G36*
X1169162Y614862D02*
X1177890Y614862D01*
X1177890Y619702D01*
X1176402Y621190D01*
X1169162Y621190D01*
X1169162Y614862D01*
G37*
G36*
X1131062Y608860D02*
X1136302Y608860D01*
X1137790Y610348D01*
X1137790Y614538D01*
X1131062Y614538D01*
X1131062Y608860D01*
G37*
G36*
X1124298Y608860D02*
X1129538Y608860D01*
X1129538Y614538D01*
X1122810Y614538D01*
X1122810Y610348D01*
X1124298Y608860D01*
G37*
G36*
X1169162Y607010D02*
X1176402Y607010D01*
X1177890Y608498D01*
X1177890Y613338D01*
X1169162Y613338D01*
X1169162Y607010D01*
G37*
G36*
X1160398Y607010D02*
X1167638Y607010D01*
X1167638Y613338D01*
X1158910Y613338D01*
X1158910Y608498D01*
X1160398Y607010D01*
G37*
G36*
X1478809Y521606D02*
X1498071Y521606D01*
X1498964Y522499D01*
X1498964Y541761D01*
X1498071Y542654D01*
X1478809Y542654D01*
X1477916Y541761D01*
X1477916Y522499D01*
X1478809Y521606D01*
G37*
G36*
X1341929Y176166D02*
X1376691Y176166D01*
X1377584Y177059D01*
X1377584Y182372D01*
X1377635Y182647D01*
X1377799Y182902D01*
X1378049Y183074D01*
X1378346Y183134D01*
X1445463Y183134D01*
X1466596Y204267D01*
X1466596Y248467D01*
X1466652Y248753D01*
X1466819Y249005D01*
X1468346Y250532D01*
X1468346Y254928D01*
X1466819Y256455D01*
X1466656Y256696D01*
X1466596Y256993D01*
X1466596Y388167D01*
X1466652Y388453D01*
X1466819Y388705D01*
X1468346Y390232D01*
X1468346Y394628D01*
X1466819Y396155D01*
X1466656Y396396D01*
X1466596Y396693D01*
X1466596Y527867D01*
X1466652Y528153D01*
X1466819Y528405D01*
X1468346Y529932D01*
X1468346Y534328D01*
X1465238Y537436D01*
X1460842Y537436D01*
X1457734Y534328D01*
X1457734Y529932D01*
X1459261Y528405D01*
X1459424Y528164D01*
X1459484Y527867D01*
X1459484Y396693D01*
X1459428Y396407D01*
X1459261Y396155D01*
X1457734Y394628D01*
X1457734Y390232D01*
X1459261Y388705D01*
X1459424Y388464D01*
X1459484Y388167D01*
X1459484Y256993D01*
X1459428Y256707D01*
X1459261Y256455D01*
X1457734Y254928D01*
X1457734Y250532D01*
X1459261Y249005D01*
X1459424Y248764D01*
X1459484Y248467D01*
X1459484Y207529D01*
X1459428Y207243D01*
X1459261Y206990D01*
X1442740Y190469D01*
X1442499Y190306D01*
X1442201Y190246D01*
X1378346Y190246D01*
X1378071Y190297D01*
X1377816Y190461D01*
X1377644Y190711D01*
X1377584Y191008D01*
X1377584Y196321D01*
X1376691Y197214D01*
X1363628Y197214D01*
X1363353Y197265D01*
X1363098Y197429D01*
X1362926Y197679D01*
X1362866Y197976D01*
X1362866Y250433D01*
X1319192Y294107D01*
X1319029Y294348D01*
X1318969Y294646D01*
X1318969Y302331D01*
X1318076Y303224D01*
X1301564Y303224D01*
X1300671Y302331D01*
X1300671Y294569D01*
X1301564Y293676D01*
X1309249Y293676D01*
X1309535Y293620D01*
X1309788Y293453D01*
X1355531Y247710D01*
X1355694Y247469D01*
X1355754Y247171D01*
X1355754Y197976D01*
X1355703Y197701D01*
X1355539Y197446D01*
X1355289Y197274D01*
X1354992Y197214D01*
X1341929Y197214D01*
X1341036Y196321D01*
X1341036Y177059D01*
X1341929Y176166D01*
G37*
G36*
X1486347Y496606D02*
X1490533Y496606D01*
X1494401Y498208D01*
X1497362Y501169D01*
X1498964Y505037D01*
X1498964Y509223D01*
X1497362Y513091D01*
X1494401Y516052D01*
X1490533Y517654D01*
X1486347Y517654D01*
X1482479Y516052D01*
X1479518Y513091D01*
X1477916Y509223D01*
X1477916Y505037D01*
X1479518Y501169D01*
X1482479Y498208D01*
X1486347Y496606D01*
G37*
G36*
X1476900Y482892D02*
X1487678Y482892D01*
X1487678Y493670D01*
X1486145Y493670D01*
X1481903Y491913D01*
X1478657Y488667D01*
X1476900Y484425D01*
X1476900Y482892D01*
G37*
G36*
X1489202Y482892D02*
X1499980Y482892D01*
X1499980Y484425D01*
X1498223Y488667D01*
X1494977Y491913D01*
X1490735Y493670D01*
X1489202Y493670D01*
X1489202Y482892D01*
G37*
G36*
X1489202Y470590D02*
X1490735Y470590D01*
X1494977Y472347D01*
X1498223Y475593D01*
X1499980Y479835D01*
X1499980Y481368D01*
X1489202Y481368D01*
X1489202Y470590D01*
G37*
G36*
X1486145Y470590D02*
X1487678Y470590D01*
X1487678Y481368D01*
X1476900Y481368D01*
X1476900Y479835D01*
X1478657Y475593D01*
X1481903Y472347D01*
X1486145Y470590D01*
G37*
G36*
X1486347Y167206D02*
X1490533Y167206D01*
X1494401Y168808D01*
X1497362Y171769D01*
X1498964Y175637D01*
X1498964Y179823D01*
X1498163Y181758D01*
X1498105Y182038D01*
X1498160Y182336D01*
X1498328Y182589D01*
X1515982Y200243D01*
X1515982Y294917D01*
X1498328Y312571D01*
X1498167Y312807D01*
X1498105Y313104D01*
X1498163Y313402D01*
X1498964Y315337D01*
X1498964Y319523D01*
X1498163Y321458D01*
X1498105Y321738D01*
X1498160Y322036D01*
X1498328Y322289D01*
X1515982Y339943D01*
X1515982Y434617D01*
X1498328Y452271D01*
X1498167Y452507D01*
X1498105Y452804D01*
X1498163Y453102D01*
X1498964Y455037D01*
X1498964Y459223D01*
X1497362Y463091D01*
X1494401Y466052D01*
X1490533Y467654D01*
X1486347Y467654D01*
X1482479Y466052D01*
X1479518Y463091D01*
X1477916Y459223D01*
X1477916Y455037D01*
X1479518Y451169D01*
X1482479Y448208D01*
X1486347Y446606D01*
X1490533Y446606D01*
X1492468Y447408D01*
X1492748Y447465D01*
X1493046Y447410D01*
X1493299Y447242D01*
X1508647Y431894D01*
X1508810Y431653D01*
X1508870Y431355D01*
X1508870Y343205D01*
X1508814Y342919D01*
X1508647Y342666D01*
X1493299Y327318D01*
X1493063Y327157D01*
X1492766Y327095D01*
X1492468Y327153D01*
X1490533Y327954D01*
X1486347Y327954D01*
X1482479Y326352D01*
X1479518Y323391D01*
X1477916Y319523D01*
X1477916Y315337D01*
X1479518Y311469D01*
X1482479Y308508D01*
X1486347Y306906D01*
X1490533Y306906D01*
X1492468Y307708D01*
X1492748Y307765D01*
X1493046Y307710D01*
X1493299Y307542D01*
X1508647Y292194D01*
X1508810Y291953D01*
X1508870Y291655D01*
X1508870Y203505D01*
X1508814Y203219D01*
X1508647Y202966D01*
X1493299Y187618D01*
X1493063Y187457D01*
X1492766Y187395D01*
X1492468Y187453D01*
X1490533Y188254D01*
X1486347Y188254D01*
X1482479Y186652D01*
X1479518Y183691D01*
X1477916Y179823D01*
X1477916Y175637D01*
X1479518Y171769D01*
X1482479Y168808D01*
X1486347Y167206D01*
G37*
G36*
X1478809Y381906D02*
X1498071Y381906D01*
X1498964Y382799D01*
X1498964Y402061D01*
X1498071Y402954D01*
X1478809Y402954D01*
X1477916Y402061D01*
X1477916Y382799D01*
X1478809Y381906D01*
G37*
G36*
X1486347Y356906D02*
X1490533Y356906D01*
X1494401Y358508D01*
X1497362Y361469D01*
X1498964Y365337D01*
X1498964Y369523D01*
X1497362Y373391D01*
X1494401Y376352D01*
X1490533Y377954D01*
X1486347Y377954D01*
X1482479Y376352D01*
X1479518Y373391D01*
X1477916Y369523D01*
X1477916Y365337D01*
X1479518Y361469D01*
X1482479Y358508D01*
X1486347Y356906D01*
G37*
G36*
X928760Y355262D02*
X945538Y355262D01*
X945538Y372040D01*
X942811Y372040D01*
X936364Y369370D01*
X931430Y364436D01*
X928760Y357989D01*
X928760Y355262D01*
G37*
G36*
X947062Y355262D02*
X963840Y355262D01*
X963840Y357989D01*
X961170Y364436D01*
X956236Y369370D01*
X949789Y372040D01*
X947062Y372040D01*
X947062Y355262D01*
G37*
G36*
X1476900Y343192D02*
X1487678Y343192D01*
X1487678Y353970D01*
X1486145Y353970D01*
X1481903Y352213D01*
X1478657Y348967D01*
X1476900Y344725D01*
X1476900Y343192D01*
G37*
G36*
X1489202Y343192D02*
X1499980Y343192D01*
X1499980Y344725D01*
X1498223Y348967D01*
X1494977Y352213D01*
X1490735Y353970D01*
X1489202Y353970D01*
X1489202Y343192D01*
G37*
G36*
X942811Y336960D02*
X945538Y336960D01*
X945538Y353738D01*
X928760Y353738D01*
X928760Y351011D01*
X931430Y344564D01*
X936364Y339630D01*
X942811Y336960D01*
G37*
G36*
X947062Y336960D02*
X949789Y336960D01*
X956236Y339630D01*
X961170Y344564D01*
X963840Y351011D01*
X963840Y353738D01*
X947062Y353738D01*
X947062Y336960D01*
G37*
G36*
X1489202Y330890D02*
X1490735Y330890D01*
X1494977Y332647D01*
X1498223Y335893D01*
X1499980Y340135D01*
X1499980Y341668D01*
X1489202Y341668D01*
X1489202Y330890D01*
G37*
G36*
X1486145Y330890D02*
X1487678Y330890D01*
X1487678Y341668D01*
X1476900Y341668D01*
X1476900Y340135D01*
X1478657Y335893D01*
X1481903Y332647D01*
X1486145Y330890D01*
G37*
G36*
X1247324Y331776D02*
X1263836Y331776D01*
X1264729Y332669D01*
X1264729Y340431D01*
X1263836Y341324D01*
X1247324Y341324D01*
X1246431Y340431D01*
X1246431Y332669D01*
X1247324Y331776D01*
G37*
G36*
X1146069Y295826D02*
X1165331Y295826D01*
X1166224Y296719D01*
X1166224Y319279D01*
X1166280Y319565D01*
X1166447Y319818D01*
X1166700Y320071D01*
X1166941Y320234D01*
X1167239Y320294D01*
X1245790Y320294D01*
X1246076Y320238D01*
X1246329Y320071D01*
X1247324Y319076D01*
X1263836Y319076D01*
X1264729Y319969D01*
X1264729Y327731D01*
X1263836Y328624D01*
X1247324Y328624D01*
X1246329Y327629D01*
X1246087Y327466D01*
X1245790Y327406D01*
X1166986Y327406D01*
X1166711Y327457D01*
X1166456Y327621D01*
X1166284Y327871D01*
X1166224Y328168D01*
X1166224Y331481D01*
X1165331Y332374D01*
X1146069Y332374D01*
X1145176Y331481D01*
X1145176Y296719D01*
X1146069Y295826D01*
G37*
G36*
X1301564Y319076D02*
X1318076Y319076D01*
X1318969Y319969D01*
X1318969Y327731D01*
X1318076Y328624D01*
X1301564Y328624D01*
X1300671Y327731D01*
X1300671Y319969D01*
X1301564Y319076D01*
G37*
G36*
X1245415Y311912D02*
X1254818Y311912D01*
X1254818Y316940D01*
X1246903Y316940D01*
X1245415Y315452D01*
X1245415Y311912D01*
G37*
G36*
X1256342Y311912D02*
X1265745Y311912D01*
X1265745Y315452D01*
X1264257Y316940D01*
X1256342Y316940D01*
X1256342Y311912D01*
G37*
G36*
X1301564Y306376D02*
X1318076Y306376D01*
X1318969Y307269D01*
X1318969Y315031D01*
X1318076Y315924D01*
X1301564Y315924D01*
X1300671Y315031D01*
X1300671Y307269D01*
X1301564Y306376D01*
G37*
G36*
X1256342Y305360D02*
X1264257Y305360D01*
X1265745Y306848D01*
X1265745Y310388D01*
X1256342Y310388D01*
X1256342Y305360D01*
G37*
G36*
X1246903Y305360D02*
X1254818Y305360D01*
X1254818Y310388D01*
X1245415Y310388D01*
X1245415Y306848D01*
X1246903Y305360D01*
G37*
G36*
X1146069Y251826D02*
X1165331Y251826D01*
X1166224Y252719D01*
X1166224Y265782D01*
X1166275Y266057D01*
X1166439Y266312D01*
X1166689Y266484D01*
X1166986Y266544D01*
X1228703Y266544D01*
X1255612Y293453D01*
X1255853Y293616D01*
X1256151Y293676D01*
X1263836Y293676D01*
X1264729Y294569D01*
X1264729Y302331D01*
X1263836Y303224D01*
X1247324Y303224D01*
X1246431Y302331D01*
X1246431Y294646D01*
X1246375Y294360D01*
X1246208Y294107D01*
X1225980Y273879D01*
X1225739Y273716D01*
X1225441Y273656D01*
X1166986Y273656D01*
X1166711Y273707D01*
X1166456Y273871D01*
X1166284Y274121D01*
X1166224Y274418D01*
X1166224Y287481D01*
X1165331Y288374D01*
X1146069Y288374D01*
X1145176Y287481D01*
X1145176Y252719D01*
X1146069Y251826D01*
G37*
G36*
X1478809Y242206D02*
X1498071Y242206D01*
X1498964Y243099D01*
X1498964Y262361D01*
X1498071Y263254D01*
X1478809Y263254D01*
X1477916Y262361D01*
X1477916Y243099D01*
X1478809Y242206D01*
G37*
G36*
X1486347Y217206D02*
X1490533Y217206D01*
X1494401Y218808D01*
X1497362Y221769D01*
X1498964Y225637D01*
X1498964Y229823D01*
X1497362Y233691D01*
X1494401Y236652D01*
X1490533Y238254D01*
X1486347Y238254D01*
X1482479Y236652D01*
X1479518Y233691D01*
X1477916Y229823D01*
X1477916Y225637D01*
X1479518Y221769D01*
X1482479Y218808D01*
X1486347Y217206D01*
G37*
G36*
X1489202Y203492D02*
X1499980Y203492D01*
X1499980Y205025D01*
X1498223Y209267D01*
X1494977Y212513D01*
X1490735Y214270D01*
X1489202Y214270D01*
X1489202Y203492D01*
G37*
G36*
X1476900Y203492D02*
X1487678Y203492D01*
X1487678Y214270D01*
X1486145Y214270D01*
X1481903Y212513D01*
X1478657Y209267D01*
X1476900Y205025D01*
X1476900Y203492D01*
G37*
G36*
X1486145Y191190D02*
X1487678Y191190D01*
X1487678Y201968D01*
X1476900Y201968D01*
X1476900Y200435D01*
X1478657Y196193D01*
X1481903Y192947D01*
X1486145Y191190D01*
G37*
G36*
X1489202Y191190D02*
X1490735Y191190D01*
X1494977Y192947D01*
X1498223Y196193D01*
X1499980Y200435D01*
X1499980Y201968D01*
X1489202Y201968D01*
X1489202Y191190D01*
G37*
G36*
X1296020Y187452D02*
X1314548Y187452D01*
X1314548Y198230D01*
X1297508Y198230D01*
X1296020Y196742D01*
X1296020Y187452D01*
G37*
G36*
X1316072Y187452D02*
X1334600Y187452D01*
X1334600Y196742D01*
X1333112Y198230D01*
X1316072Y198230D01*
X1316072Y187452D01*
G37*
G36*
X1316072Y175150D02*
X1333112Y175150D01*
X1334600Y176638D01*
X1334600Y185928D01*
X1316072Y185928D01*
X1316072Y175150D01*
G37*
G36*
X1297508Y175150D02*
X1314548Y175150D01*
X1314548Y185928D01*
X1296020Y185928D01*
X1296020Y176638D01*
X1297508Y175150D01*
G37*
G36*
X720912Y113476D02*
X726888Y113476D01*
X732410Y115763D01*
X736637Y119990D01*
X738924Y125512D01*
X738924Y131488D01*
X736637Y137010D01*
X732410Y141237D01*
X726888Y143524D01*
X720912Y143524D01*
X715390Y141237D01*
X711163Y137010D01*
X708876Y131488D01*
X708876Y125512D01*
X711163Y119990D01*
X715390Y115763D01*
X720912Y113476D01*
G37*
G36*
X332519Y115726D02*
X353281Y115726D01*
X354174Y116619D01*
X354174Y137381D01*
X353281Y138274D01*
X332519Y138274D01*
X331626Y137381D01*
X331626Y116619D01*
X332519Y115726D01*
G37*
G36*
X565657Y115726D02*
X570143Y115726D01*
X574286Y117442D01*
X577458Y120614D01*
X579174Y124757D01*
X579174Y129243D01*
X577458Y133386D01*
X574286Y136558D01*
X570143Y138274D01*
X565657Y138274D01*
X561514Y136558D01*
X558342Y133386D01*
X556626Y129243D01*
X556626Y124757D01*
X558342Y120614D01*
X561514Y117442D01*
X565657Y115726D01*
G37*
G36*
X185371Y64840D02*
X194629Y64840D01*
X203571Y67236D01*
X211589Y71865D01*
X218135Y78411D01*
X222764Y86429D01*
X225160Y95371D01*
X225160Y104629D01*
X222764Y113571D01*
X218135Y121589D01*
X211589Y128135D01*
X203571Y132764D01*
X194629Y135160D01*
X185371Y135160D01*
X176429Y132764D01*
X168411Y128135D01*
X161865Y121589D01*
X157236Y113571D01*
X154840Y104629D01*
X154840Y95371D01*
X157236Y86429D01*
X161865Y78411D01*
X168411Y71865D01*
X176429Y67236D01*
X185371Y64840D01*
G37*
G36*
X709769Y73876D02*
X738031Y73876D01*
X738924Y74769D01*
X738924Y103031D01*
X738031Y103924D01*
X709769Y103924D01*
X708876Y103031D01*
X708876Y74769D01*
X709769Y73876D01*
G37*
G36*
X1180760Y89662D02*
X1193038Y89662D01*
X1193038Y101940D01*
X1191206Y101940D01*
X1186413Y99955D01*
X1182745Y96287D01*
X1180760Y91494D01*
X1180760Y89662D01*
G37*
G36*
X1129960Y89662D02*
X1142238Y89662D01*
X1142238Y101940D01*
X1140406Y101940D01*
X1135613Y99955D01*
X1131945Y96287D01*
X1129960Y91494D01*
X1129960Y89662D01*
G37*
G36*
X1143762Y89662D02*
X1156040Y89662D01*
X1156040Y91494D01*
X1154055Y96287D01*
X1150387Y99955D01*
X1145594Y101940D01*
X1143762Y101940D01*
X1143762Y89662D01*
G37*
G36*
X1194562Y89662D02*
X1206840Y89662D01*
X1206840Y91494D01*
X1204855Y96287D01*
X1201187Y99955D01*
X1196394Y101940D01*
X1194562Y101940D01*
X1194562Y89662D01*
G37*
G36*
X1194562Y75860D02*
X1196394Y75860D01*
X1201187Y77845D01*
X1204855Y81513D01*
X1206840Y86306D01*
X1206840Y88138D01*
X1194562Y88138D01*
X1194562Y75860D01*
G37*
G36*
X1191206Y75860D02*
X1193038Y75860D01*
X1193038Y88138D01*
X1180760Y88138D01*
X1180760Y86306D01*
X1182745Y81513D01*
X1186413Y77845D01*
X1191206Y75860D01*
G37*
G36*
X1143762Y75860D02*
X1145594Y75860D01*
X1150387Y77845D01*
X1154055Y81513D01*
X1156040Y86306D01*
X1156040Y88138D01*
X1143762Y88138D01*
X1143762Y75860D01*
G37*
G36*
X1140406Y75860D02*
X1142238Y75860D01*
X1142238Y88138D01*
X1129960Y88138D01*
X1129960Y86306D01*
X1131945Y81513D01*
X1135613Y77845D01*
X1140406Y75860D01*
G37*
%LPD*%
D10*
X1113000Y749300D03*
X1122200Y749300D03*
D11*
X1333500Y700800D03*
X1333500Y670800D03*
X1397000Y700800D03*
X1397000Y670800D03*
D12*
X1044100Y698500D03*
X1064100Y698500D03*
D13*
X1130300Y615300D03*
X1130300Y629300D03*
D14*
X1168400Y614100D03*
X1168400Y630500D03*
D15*
X1155700Y314100D03*
X1155700Y270100D03*
D16*
X1315310Y186690D03*
X1359310Y186690D03*
D17*
X1206500Y809700D03*
X1206500Y739700D03*
D18*
X1255580Y336550D03*
X1255580Y323850D03*
X1255580Y311150D03*
X1255580Y298450D03*
X1309820Y298450D03*
X1309820Y311150D03*
X1309820Y323850D03*
X1309820Y336550D03*
X1090480Y717550D03*
X1090480Y704850D03*
X1090480Y692150D03*
X1090480Y679450D03*
X1144720Y679450D03*
X1144720Y692150D03*
X1144720Y704850D03*
X1144720Y717550D03*
D19*
X1488440Y532130D03*
D20*
X1488440Y507130D03*
X1488440Y482130D03*
X1488440Y457130D03*
D19*
X1488440Y392430D03*
D20*
X1488440Y367430D03*
X1488440Y342430D03*
X1488440Y317430D03*
D19*
X1488440Y252730D03*
D20*
X1488440Y227730D03*
X1488440Y202730D03*
X1488440Y177730D03*
D21*
X723900Y88900D03*
D22*
X723900Y128500D03*
X723900Y168100D03*
D23*
X1282700Y803950D03*
X1282700Y770850D03*
D24*
X946300Y299500D03*
X946300Y354500D03*
D25*
X186300Y712000D03*
X186300Y644500D03*
D26*
X1244600Y691300D03*
X1244600Y680300D03*
X1244600Y642200D03*
X1244600Y653200D03*
D27*
X1168400Y656280D03*
X1168400Y664520D03*
D26*
X1092200Y642200D03*
X1092200Y653200D03*
D28*
X342900Y127000D03*
D29*
X567900Y127000D03*
D30*
X1143000Y88900D03*
X1193800Y88900D03*
D31*
X1437640Y227330D03*
X1437640Y367030D03*
X1437640Y500662D03*
D32*
X1437640Y367030D02*
X1437640Y227330D01*
X1437640Y367030D02*
X1437640Y500662D01*
X1070450Y704850D02*
X1064100Y698500D01*
X1070450Y704850D02*
X1090480Y704850D01*
X1023400Y299500D02*
X946300Y299500D01*
X1064100Y368300D02*
X1295400Y368300D01*
X1309820Y353880D01*
X1309820Y336550D01*
X1064100Y368300D02*
X1064100Y698500D01*
X1064100Y368300D02*
X1064100Y340200D01*
X1295400Y368300D02*
X1436370Y368300D01*
X1437640Y367030D01*
X1064100Y340200D02*
X1023400Y299500D01*
D33*
X1409700Y100076D03*
D34*
X1092200Y677730D02*
X1090480Y679450D01*
X1092200Y677730D02*
X1092200Y653200D01*
X1144720Y692150D02*
X1162050Y692150D01*
X1168400Y685800D01*
X1168400Y664520D01*
X1134420Y664520D01*
X1130300Y660400D01*
X1130300Y629300D01*
X1168400Y630500D02*
X1168400Y656280D01*
X1090480Y717550D02*
X1113000Y740070D01*
X1113000Y749300D01*
X1122200Y740070D02*
X1144720Y717550D01*
X1122200Y740070D02*
X1122200Y749300D01*
D32*
X1144720Y717550D02*
X1144720Y789120D01*
X1155700Y800100D01*
X1196900Y800100D01*
D34*
X1206500Y809700D01*
D32*
X1276950Y809700D01*
X1282700Y803950D01*
X1512426Y341416D02*
X1488440Y317430D01*
X1512426Y341416D02*
X1512426Y433144D01*
X1488440Y457130D01*
X1512426Y201716D02*
X1488440Y177730D01*
X1512426Y201716D02*
X1512426Y293444D01*
X1488440Y317430D01*
X1397000Y700800D02*
X1333500Y700800D01*
D31*
X1424940Y455930D03*
D34*
X1244600Y732750D02*
X1282700Y770850D01*
X1244600Y732750D02*
X1244600Y691300D01*
D32*
X1282700Y770850D02*
X1333500Y770850D01*
X1333500Y700800D01*
X1424940Y691896D02*
X1424940Y455930D01*
X1424940Y691896D02*
X1415796Y701040D01*
X1397240Y701040D01*
X1397000Y700800D01*
D34*
X1244600Y680300D02*
X1244600Y653200D01*
D31*
X1156224Y672576D03*
X1231900Y673100D03*
D34*
X1237400Y673100D02*
X1244600Y680300D01*
X1237400Y673100D02*
X1231900Y673100D01*
X1156224Y672576D02*
X1151594Y672576D01*
X1144720Y679450D01*
D32*
X1255580Y298450D02*
X1227230Y270100D01*
X1155700Y270100D01*
D31*
X1463040Y252730D03*
X1463040Y392430D03*
X1463040Y532130D03*
D32*
X1463040Y392430D02*
X1463040Y252730D01*
X1463040Y392430D02*
X1463040Y532130D01*
X1359310Y186690D02*
X1346089Y186690D01*
X1359310Y248960D02*
X1309820Y298450D01*
X1359310Y248960D02*
X1359310Y186690D01*
X1443990Y186690D01*
X1463040Y205740D01*
X1463040Y252730D01*
X723900Y168100D02*
X723900Y558800D01*
X638200Y644500D01*
X186300Y644500D01*
X1165450Y323850D02*
X1255580Y323850D01*
X1165450Y323850D02*
X1155700Y314100D01*
M02*
