G04 EAGLE Gerber RS-274X export*
G75*
%MOMM*%
%FSLAX34Y34*%
%LPD*%
%INSilkscreen Top*%
%IPPOS*%
%AMOC8*
5,1,8,0,0,1.08239X$1,22.5*%
G01*
G04 Define Apertures*
%ADD10C,0.200000*%
%ADD11C,0.100000*%
G36*
X1189214Y38100D02*
X1182749Y38100D01*
X1182749Y55386D01*
X1188465Y55386D01*
X1189007Y55377D01*
X1189532Y55351D01*
X1190042Y55308D01*
X1190536Y55248D01*
X1191015Y55171D01*
X1191477Y55076D01*
X1191924Y54964D01*
X1192356Y54835D01*
X1192772Y54689D01*
X1193172Y54526D01*
X1193556Y54345D01*
X1193925Y54147D01*
X1194278Y53932D01*
X1194616Y53700D01*
X1194937Y53450D01*
X1195244Y53184D01*
X1195533Y52901D01*
X1195803Y52604D01*
X1196054Y52292D01*
X1196287Y51966D01*
X1196502Y51626D01*
X1196698Y51271D01*
X1196875Y50901D01*
X1197033Y50517D01*
X1197173Y50118D01*
X1197294Y49705D01*
X1197397Y49277D01*
X1197481Y48835D01*
X1197546Y48378D01*
X1197592Y47907D01*
X1197620Y47421D01*
X1197630Y46921D01*
X1197613Y46263D01*
X1197565Y45625D01*
X1197483Y45009D01*
X1197369Y44413D01*
X1197222Y43839D01*
X1197043Y43285D01*
X1196831Y42752D01*
X1196587Y42240D01*
X1196313Y41754D01*
X1196011Y41296D01*
X1195682Y40868D01*
X1195326Y40469D01*
X1194943Y40100D01*
X1194533Y39760D01*
X1194095Y39449D01*
X1193630Y39167D01*
X1193143Y38917D01*
X1192637Y38700D01*
X1192112Y38517D01*
X1191569Y38367D01*
X1191008Y38250D01*
X1190428Y38167D01*
X1189830Y38117D01*
X1189214Y38100D01*
G37*
%LPC*%
G36*
X1188944Y39977D02*
X1189412Y39990D01*
X1189866Y40029D01*
X1190305Y40094D01*
X1190730Y40186D01*
X1191141Y40303D01*
X1191537Y40446D01*
X1191919Y40616D01*
X1192287Y40811D01*
X1192637Y41031D01*
X1192966Y41274D01*
X1193274Y41540D01*
X1193561Y41829D01*
X1193828Y42142D01*
X1194073Y42477D01*
X1194298Y42835D01*
X1194501Y43216D01*
X1194682Y43617D01*
X1194839Y44036D01*
X1194972Y44473D01*
X1195081Y44927D01*
X1195166Y45399D01*
X1195226Y45889D01*
X1195262Y46396D01*
X1195274Y46921D01*
X1195267Y47317D01*
X1195247Y47700D01*
X1195212Y48072D01*
X1195164Y48432D01*
X1195102Y48780D01*
X1195027Y49117D01*
X1194937Y49441D01*
X1194834Y49753D01*
X1194717Y50053D01*
X1194587Y50342D01*
X1194442Y50618D01*
X1194284Y50883D01*
X1194112Y51136D01*
X1193926Y51376D01*
X1193727Y51605D01*
X1193514Y51822D01*
X1193288Y52026D01*
X1193049Y52217D01*
X1192798Y52395D01*
X1192535Y52560D01*
X1192260Y52711D01*
X1191972Y52850D01*
X1191672Y52975D01*
X1191359Y53087D01*
X1191034Y53186D01*
X1190697Y53271D01*
X1190348Y53344D01*
X1189986Y53403D01*
X1189612Y53449D01*
X1189226Y53482D01*
X1188827Y53502D01*
X1188416Y53509D01*
X1185092Y53509D01*
X1185092Y39977D01*
X1188944Y39977D01*
G37*
%LPD*%
G36*
X1166678Y38100D02*
X1164592Y38100D01*
X1164592Y55386D01*
X1167316Y55386D01*
X1176664Y40566D01*
X1176554Y42639D01*
X1176526Y43427D01*
X1176517Y44050D01*
X1176517Y55386D01*
X1178627Y55386D01*
X1178627Y38100D01*
X1175805Y38100D01*
X1166555Y52822D01*
X1166617Y51632D01*
X1166678Y49583D01*
X1166678Y38100D01*
G37*
G36*
X1152974Y37855D02*
X1152308Y37872D01*
X1151665Y37922D01*
X1151046Y38006D01*
X1150450Y38125D01*
X1149877Y38276D01*
X1149328Y38462D01*
X1148802Y38681D01*
X1148300Y38934D01*
X1147824Y39219D01*
X1147376Y39533D01*
X1146958Y39878D01*
X1146568Y40252D01*
X1146208Y40655D01*
X1145876Y41088D01*
X1145574Y41551D01*
X1145300Y42044D01*
X1145057Y42563D01*
X1144847Y43104D01*
X1144669Y43668D01*
X1144523Y44254D01*
X1144409Y44862D01*
X1144328Y45493D01*
X1144280Y46147D01*
X1144264Y46823D01*
X1144272Y47341D01*
X1144299Y47845D01*
X1144343Y48334D01*
X1144405Y48808D01*
X1144484Y49267D01*
X1144581Y49711D01*
X1144696Y50141D01*
X1144828Y50555D01*
X1144978Y50955D01*
X1145145Y51340D01*
X1145331Y51710D01*
X1145533Y52065D01*
X1145754Y52405D01*
X1145992Y52731D01*
X1146248Y53041D01*
X1146521Y53337D01*
X1146810Y53616D01*
X1147114Y53878D01*
X1147432Y54121D01*
X1147764Y54346D01*
X1148110Y54553D01*
X1148471Y54742D01*
X1148846Y54914D01*
X1149235Y55067D01*
X1149639Y55202D01*
X1150057Y55319D01*
X1150489Y55418D01*
X1150935Y55499D01*
X1151396Y55562D01*
X1151871Y55607D01*
X1152360Y55634D01*
X1152864Y55643D01*
X1153564Y55628D01*
X1154231Y55583D01*
X1154865Y55507D01*
X1155464Y55401D01*
X1156030Y55265D01*
X1156562Y55098D01*
X1157061Y54901D01*
X1157525Y54674D01*
X1157960Y54414D01*
X1158370Y54117D01*
X1158753Y53783D01*
X1159111Y53414D01*
X1159443Y53007D01*
X1159750Y52565D01*
X1160031Y52086D01*
X1160286Y51570D01*
X1158053Y50908D01*
X1157860Y51263D01*
X1157650Y51594D01*
X1157422Y51900D01*
X1157177Y52181D01*
X1156915Y52437D01*
X1156635Y52668D01*
X1156337Y52874D01*
X1156023Y53055D01*
X1155689Y53213D01*
X1155336Y53350D01*
X1154963Y53466D01*
X1154570Y53561D01*
X1154158Y53635D01*
X1153726Y53687D01*
X1153274Y53719D01*
X1152802Y53730D01*
X1152434Y53722D01*
X1152076Y53701D01*
X1151729Y53666D01*
X1151394Y53616D01*
X1151069Y53553D01*
X1150756Y53475D01*
X1150453Y53383D01*
X1150161Y53277D01*
X1149881Y53157D01*
X1149612Y53023D01*
X1149353Y52874D01*
X1149106Y52712D01*
X1148869Y52535D01*
X1148644Y52344D01*
X1148430Y52139D01*
X1148226Y51920D01*
X1148035Y51688D01*
X1147855Y51444D01*
X1147688Y51189D01*
X1147534Y50923D01*
X1147392Y50645D01*
X1147262Y50355D01*
X1147144Y50054D01*
X1147039Y49741D01*
X1146947Y49417D01*
X1146866Y49081D01*
X1146798Y48733D01*
X1146743Y48374D01*
X1146699Y48004D01*
X1146668Y47621D01*
X1146650Y47228D01*
X1146644Y46823D01*
X1146650Y46419D01*
X1146670Y46025D01*
X1146703Y45643D01*
X1146749Y45271D01*
X1146808Y44910D01*
X1146880Y44560D01*
X1146965Y44221D01*
X1147064Y43892D01*
X1147175Y43574D01*
X1147300Y43267D01*
X1147438Y42971D01*
X1147589Y42686D01*
X1147753Y42411D01*
X1147930Y42147D01*
X1148121Y41894D01*
X1148324Y41652D01*
X1148539Y41422D01*
X1148765Y41207D01*
X1149000Y41007D01*
X1149245Y40822D01*
X1149501Y40652D01*
X1149766Y40497D01*
X1150042Y40356D01*
X1150327Y40230D01*
X1150623Y40119D01*
X1150928Y40023D01*
X1151244Y39941D01*
X1151570Y39875D01*
X1151906Y39823D01*
X1152252Y39786D01*
X1152608Y39764D01*
X1152974Y39756D01*
X1153394Y39764D01*
X1153806Y39788D01*
X1154212Y39829D01*
X1154610Y39885D01*
X1155002Y39957D01*
X1155386Y40046D01*
X1155763Y40151D01*
X1156133Y40271D01*
X1156491Y40406D01*
X1156831Y40552D01*
X1157154Y40710D01*
X1157459Y40879D01*
X1157747Y41059D01*
X1158018Y41251D01*
X1158271Y41455D01*
X1158507Y41670D01*
X1158507Y44786D01*
X1153342Y44786D01*
X1153342Y46749D01*
X1160666Y46749D01*
X1160666Y40787D01*
X1160313Y40447D01*
X1159940Y40127D01*
X1159548Y39827D01*
X1159137Y39546D01*
X1158706Y39285D01*
X1158256Y39044D01*
X1157787Y38823D01*
X1157298Y38621D01*
X1156795Y38442D01*
X1156281Y38286D01*
X1155756Y38154D01*
X1155221Y38046D01*
X1154675Y37962D01*
X1154118Y37903D01*
X1153551Y37867D01*
X1152974Y37855D01*
G37*
G36*
X813239Y76200D02*
X802161Y76200D01*
X802161Y93486D01*
X804504Y93486D01*
X804504Y78114D01*
X813239Y78114D01*
X813239Y76200D01*
G37*
G36*
X804247Y165100D02*
X802161Y165100D01*
X802161Y182386D01*
X804885Y182386D01*
X814233Y167566D01*
X814122Y169639D01*
X814095Y170427D01*
X814086Y171050D01*
X814086Y182386D01*
X816196Y182386D01*
X816196Y165100D01*
X813374Y165100D01*
X804124Y179822D01*
X804185Y178632D01*
X804247Y176583D01*
X804247Y165100D01*
G37*
G36*
X1182474Y338250D02*
X1180670Y338250D01*
X1180670Y343501D01*
X1175469Y343501D01*
X1175469Y345292D01*
X1180670Y345292D01*
X1180670Y350543D01*
X1182474Y350543D01*
X1182474Y345292D01*
X1187676Y345292D01*
X1187676Y343501D01*
X1182474Y343501D01*
X1182474Y338250D01*
G37*
G36*
X1285344Y158418D02*
X1283540Y158418D01*
X1283540Y163669D01*
X1278339Y163669D01*
X1278339Y165460D01*
X1283540Y165460D01*
X1283540Y170711D01*
X1285344Y170711D01*
X1285344Y165460D01*
X1290546Y165460D01*
X1290546Y163669D01*
X1285344Y163669D01*
X1285344Y158418D01*
G37*
G36*
X1388214Y726108D02*
X1386410Y726108D01*
X1386410Y731359D01*
X1381209Y731359D01*
X1381209Y733150D01*
X1386410Y733150D01*
X1386410Y738401D01*
X1388214Y738401D01*
X1388214Y733150D01*
X1393416Y733150D01*
X1393416Y731359D01*
X1388214Y731359D01*
X1388214Y726108D01*
G37*
G36*
X1321158Y726108D02*
X1319354Y726108D01*
X1319354Y731359D01*
X1314153Y731359D01*
X1314153Y733150D01*
X1319354Y733150D01*
X1319354Y738401D01*
X1321158Y738401D01*
X1321158Y733150D01*
X1326360Y733150D01*
X1326360Y731359D01*
X1321158Y731359D01*
X1321158Y726108D01*
G37*
G36*
X1185522Y825168D02*
X1183718Y825168D01*
X1183718Y830419D01*
X1178517Y830419D01*
X1178517Y832210D01*
X1183718Y832210D01*
X1183718Y837461D01*
X1185522Y837461D01*
X1185522Y832210D01*
X1190724Y832210D01*
X1190724Y830419D01*
X1185522Y830419D01*
X1185522Y825168D01*
G37*
G36*
X1113059Y755475D02*
X1112601Y755487D01*
X1112158Y755523D01*
X1111731Y755584D01*
X1111320Y755669D01*
X1110924Y755778D01*
X1110544Y755911D01*
X1110180Y756068D01*
X1109832Y756250D01*
X1109501Y756454D01*
X1109191Y756679D01*
X1108901Y756925D01*
X1108632Y757192D01*
X1108382Y757479D01*
X1108153Y757787D01*
X1107945Y758116D01*
X1107756Y758466D01*
X1107589Y758834D01*
X1107444Y759219D01*
X1107321Y759621D01*
X1107221Y760039D01*
X1107143Y760474D01*
X1107087Y760925D01*
X1107053Y761393D01*
X1107042Y761877D01*
X1107048Y762241D01*
X1107067Y762595D01*
X1107098Y762939D01*
X1107142Y763273D01*
X1107198Y763597D01*
X1107266Y763911D01*
X1107347Y764215D01*
X1107441Y764509D01*
X1107547Y764793D01*
X1107665Y765067D01*
X1107939Y765585D01*
X1108263Y766064D01*
X1108636Y766502D01*
X1109054Y766894D01*
X1109510Y767234D01*
X1109752Y767384D01*
X1110004Y767521D01*
X1110266Y767645D01*
X1110537Y767756D01*
X1110817Y767855D01*
X1111108Y767939D01*
X1111408Y768011D01*
X1111717Y768070D01*
X1112036Y768116D01*
X1112365Y768149D01*
X1112703Y768168D01*
X1113051Y768175D01*
X1113533Y768163D01*
X1113995Y768127D01*
X1114437Y768066D01*
X1114859Y767982D01*
X1115261Y767874D01*
X1115642Y767741D01*
X1116003Y767585D01*
X1116344Y767404D01*
X1116663Y767200D01*
X1116961Y766972D01*
X1117237Y766721D01*
X1117491Y766447D01*
X1117723Y766150D01*
X1117933Y765829D01*
X1118122Y765485D01*
X1118288Y765118D01*
X1116703Y764592D01*
X1116587Y764854D01*
X1116456Y765099D01*
X1116308Y765329D01*
X1116143Y765543D01*
X1115963Y765741D01*
X1115766Y765923D01*
X1115553Y766089D01*
X1115323Y766239D01*
X1115080Y766373D01*
X1114826Y766488D01*
X1114561Y766586D01*
X1114284Y766666D01*
X1113997Y766728D01*
X1113698Y766773D01*
X1113389Y766799D01*
X1113068Y766808D01*
X1112570Y766788D01*
X1112100Y766726D01*
X1111659Y766623D01*
X1111246Y766479D01*
X1110862Y766293D01*
X1110506Y766067D01*
X1110179Y765799D01*
X1109880Y765490D01*
X1109613Y765145D01*
X1109382Y764770D01*
X1109186Y764364D01*
X1109026Y763928D01*
X1108901Y763461D01*
X1108812Y762964D01*
X1108759Y762436D01*
X1108741Y761877D01*
X1108760Y761324D01*
X1108815Y760799D01*
X1108908Y760301D01*
X1109038Y759831D01*
X1109205Y759389D01*
X1109409Y758975D01*
X1109650Y758588D01*
X1109928Y758229D01*
X1110238Y757906D01*
X1110574Y757626D01*
X1110936Y757389D01*
X1111324Y757195D01*
X1111738Y757044D01*
X1112179Y756936D01*
X1112645Y756871D01*
X1113138Y756850D01*
X1113457Y756860D01*
X1113766Y756890D01*
X1114065Y756940D01*
X1114354Y757010D01*
X1114633Y757101D01*
X1114901Y757211D01*
X1115160Y757341D01*
X1115409Y757491D01*
X1115647Y757662D01*
X1115876Y757852D01*
X1116094Y758063D01*
X1116303Y758293D01*
X1116501Y758544D01*
X1116689Y758815D01*
X1116867Y759105D01*
X1117036Y759416D01*
X1118402Y758733D01*
X1118202Y758346D01*
X1117982Y757984D01*
X1117744Y757645D01*
X1117486Y757329D01*
X1117208Y757038D01*
X1116912Y756771D01*
X1116596Y756527D01*
X1116261Y756307D01*
X1115909Y756112D01*
X1115543Y755943D01*
X1115164Y755800D01*
X1114770Y755683D01*
X1114363Y755592D01*
X1113943Y755527D01*
X1113508Y755488D01*
X1113059Y755475D01*
G37*
G36*
X1128200Y755650D02*
X1120466Y755650D01*
X1120466Y756990D01*
X1123611Y756990D01*
X1123611Y766484D01*
X1120825Y764496D01*
X1120825Y765985D01*
X1123742Y767991D01*
X1125196Y767991D01*
X1125196Y756990D01*
X1128200Y756990D01*
X1128200Y755650D01*
G37*
G36*
X1308223Y649842D02*
X1307859Y649848D01*
X1307505Y649867D01*
X1307161Y649898D01*
X1306827Y649942D01*
X1306503Y649998D01*
X1306189Y650066D01*
X1305885Y650147D01*
X1305591Y650241D01*
X1305307Y650347D01*
X1305033Y650465D01*
X1304515Y650739D01*
X1304036Y651063D01*
X1303598Y651436D01*
X1303206Y651854D01*
X1302866Y652310D01*
X1302716Y652552D01*
X1302579Y652804D01*
X1302455Y653066D01*
X1302344Y653337D01*
X1302246Y653617D01*
X1302161Y653908D01*
X1302089Y654208D01*
X1302030Y654517D01*
X1301984Y654836D01*
X1301951Y655165D01*
X1301932Y655503D01*
X1301925Y655851D01*
X1301937Y656333D01*
X1301973Y656795D01*
X1302034Y657237D01*
X1302118Y657659D01*
X1302226Y658061D01*
X1302359Y658442D01*
X1302515Y658803D01*
X1302696Y659144D01*
X1302900Y659463D01*
X1303128Y659761D01*
X1303379Y660037D01*
X1303653Y660291D01*
X1303950Y660523D01*
X1304271Y660733D01*
X1304615Y660922D01*
X1304982Y661088D01*
X1305508Y659503D01*
X1305246Y659387D01*
X1305001Y659256D01*
X1304771Y659108D01*
X1304557Y658943D01*
X1304359Y658763D01*
X1304177Y658566D01*
X1304011Y658353D01*
X1303861Y658123D01*
X1303728Y657880D01*
X1303612Y657626D01*
X1303514Y657361D01*
X1303434Y657084D01*
X1303372Y656797D01*
X1303327Y656498D01*
X1303301Y656189D01*
X1303292Y655868D01*
X1303312Y655370D01*
X1303374Y654900D01*
X1303477Y654459D01*
X1303621Y654046D01*
X1303807Y653662D01*
X1304033Y653306D01*
X1304301Y652979D01*
X1304610Y652680D01*
X1304955Y652413D01*
X1305330Y652182D01*
X1305736Y651986D01*
X1306172Y651826D01*
X1306639Y651701D01*
X1307136Y651612D01*
X1307664Y651559D01*
X1308223Y651541D01*
X1308776Y651560D01*
X1309301Y651615D01*
X1309799Y651708D01*
X1310269Y651838D01*
X1310711Y652005D01*
X1311125Y652209D01*
X1311512Y652450D01*
X1311871Y652728D01*
X1312194Y653038D01*
X1312474Y653374D01*
X1312711Y653736D01*
X1312905Y654124D01*
X1313056Y654538D01*
X1313164Y654979D01*
X1313229Y655445D01*
X1313250Y655938D01*
X1313240Y656257D01*
X1313210Y656566D01*
X1313160Y656865D01*
X1313090Y657154D01*
X1312999Y657433D01*
X1312889Y657701D01*
X1312759Y657960D01*
X1312609Y658209D01*
X1312438Y658447D01*
X1312248Y658676D01*
X1312037Y658894D01*
X1311807Y659103D01*
X1311556Y659301D01*
X1311285Y659489D01*
X1310995Y659667D01*
X1310684Y659836D01*
X1311367Y661202D01*
X1311754Y661002D01*
X1312116Y660782D01*
X1312455Y660544D01*
X1312771Y660286D01*
X1313062Y660008D01*
X1313329Y659712D01*
X1313573Y659396D01*
X1313793Y659061D01*
X1313988Y658709D01*
X1314157Y658343D01*
X1314300Y657964D01*
X1314417Y657570D01*
X1314508Y657163D01*
X1314573Y656743D01*
X1314612Y656308D01*
X1314625Y655859D01*
X1314613Y655401D01*
X1314577Y654958D01*
X1314516Y654531D01*
X1314431Y654120D01*
X1314322Y653724D01*
X1314189Y653344D01*
X1314032Y652980D01*
X1313850Y652632D01*
X1313646Y652301D01*
X1313421Y651991D01*
X1313175Y651701D01*
X1312909Y651432D01*
X1312621Y651182D01*
X1312313Y650953D01*
X1311984Y650745D01*
X1311634Y650556D01*
X1311266Y650389D01*
X1310881Y650244D01*
X1310479Y650121D01*
X1310061Y650021D01*
X1309626Y649943D01*
X1309175Y649887D01*
X1308707Y649853D01*
X1308223Y649842D01*
G37*
G36*
X1314450Y662802D02*
X1313338Y662802D01*
X1312840Y663038D01*
X1312373Y663298D01*
X1311936Y663583D01*
X1311529Y663893D01*
X1311146Y664219D01*
X1310782Y664553D01*
X1310437Y664895D01*
X1310110Y665246D01*
X1309498Y665952D01*
X1308932Y666652D01*
X1308389Y667314D01*
X1307846Y667908D01*
X1307571Y668175D01*
X1307290Y668415D01*
X1307002Y668628D01*
X1306707Y668815D01*
X1306400Y668966D01*
X1306072Y669074D01*
X1305725Y669139D01*
X1305359Y669161D01*
X1305112Y669152D01*
X1304879Y669124D01*
X1304661Y669077D01*
X1304457Y669012D01*
X1304267Y668928D01*
X1304091Y668826D01*
X1303929Y668705D01*
X1303782Y668565D01*
X1303651Y668409D01*
X1303537Y668238D01*
X1303441Y668053D01*
X1303362Y667854D01*
X1303300Y667639D01*
X1303257Y667411D01*
X1303230Y667168D01*
X1303222Y666910D01*
X1303230Y666664D01*
X1303256Y666428D01*
X1303299Y666204D01*
X1303358Y665991D01*
X1303435Y665789D01*
X1303529Y665599D01*
X1303641Y665419D01*
X1303769Y665250D01*
X1303913Y665095D01*
X1304070Y664958D01*
X1304242Y664837D01*
X1304427Y664732D01*
X1304626Y664645D01*
X1304839Y664574D01*
X1305066Y664521D01*
X1305306Y664484D01*
X1305157Y662872D01*
X1304797Y662930D01*
X1304455Y663016D01*
X1304132Y663131D01*
X1303828Y663274D01*
X1303543Y663445D01*
X1303277Y663645D01*
X1303030Y663873D01*
X1302801Y664129D01*
X1302596Y664409D01*
X1302418Y664708D01*
X1302267Y665027D01*
X1302144Y665365D01*
X1302048Y665722D01*
X1301980Y666099D01*
X1301939Y666495D01*
X1301925Y666910D01*
X1301939Y667363D01*
X1301980Y667789D01*
X1302049Y668188D01*
X1302145Y668560D01*
X1302269Y668905D01*
X1302420Y669223D01*
X1302599Y669514D01*
X1302806Y669778D01*
X1303037Y670013D01*
X1303292Y670217D01*
X1303570Y670389D01*
X1303871Y670530D01*
X1304195Y670640D01*
X1304542Y670718D01*
X1304913Y670765D01*
X1305306Y670781D01*
X1305665Y670761D01*
X1306022Y670699D01*
X1306378Y670596D01*
X1306734Y670453D01*
X1307088Y670269D01*
X1307443Y670044D01*
X1307798Y669780D01*
X1308153Y669476D01*
X1308556Y669078D01*
X1309057Y668532D01*
X1309655Y667839D01*
X1310351Y666997D01*
X1310753Y666520D01*
X1311134Y666093D01*
X1311495Y665718D01*
X1311836Y665395D01*
X1312163Y665118D01*
X1312485Y664882D01*
X1312800Y664689D01*
X1313110Y664536D01*
X1313110Y670974D01*
X1314450Y670974D01*
X1314450Y662802D01*
G37*
G36*
X1371723Y649842D02*
X1371359Y649848D01*
X1371005Y649867D01*
X1370661Y649898D01*
X1370327Y649942D01*
X1370003Y649998D01*
X1369689Y650066D01*
X1369385Y650147D01*
X1369091Y650241D01*
X1368807Y650347D01*
X1368533Y650465D01*
X1368015Y650739D01*
X1367536Y651063D01*
X1367098Y651436D01*
X1366706Y651854D01*
X1366366Y652310D01*
X1366216Y652552D01*
X1366079Y652804D01*
X1365955Y653066D01*
X1365844Y653337D01*
X1365746Y653617D01*
X1365661Y653908D01*
X1365589Y654208D01*
X1365530Y654517D01*
X1365484Y654836D01*
X1365451Y655165D01*
X1365432Y655503D01*
X1365425Y655851D01*
X1365437Y656333D01*
X1365473Y656795D01*
X1365534Y657237D01*
X1365618Y657659D01*
X1365726Y658061D01*
X1365859Y658442D01*
X1366015Y658803D01*
X1366196Y659144D01*
X1366400Y659463D01*
X1366628Y659761D01*
X1366879Y660037D01*
X1367153Y660291D01*
X1367450Y660523D01*
X1367771Y660733D01*
X1368115Y660922D01*
X1368482Y661088D01*
X1369008Y659503D01*
X1368746Y659387D01*
X1368501Y659256D01*
X1368271Y659108D01*
X1368057Y658943D01*
X1367859Y658763D01*
X1367677Y658566D01*
X1367511Y658353D01*
X1367361Y658123D01*
X1367228Y657880D01*
X1367112Y657626D01*
X1367014Y657361D01*
X1366934Y657084D01*
X1366872Y656797D01*
X1366827Y656498D01*
X1366801Y656189D01*
X1366792Y655868D01*
X1366812Y655370D01*
X1366874Y654900D01*
X1366977Y654459D01*
X1367121Y654046D01*
X1367307Y653662D01*
X1367533Y653306D01*
X1367801Y652979D01*
X1368110Y652680D01*
X1368455Y652413D01*
X1368830Y652182D01*
X1369236Y651986D01*
X1369672Y651826D01*
X1370139Y651701D01*
X1370636Y651612D01*
X1371164Y651559D01*
X1371723Y651541D01*
X1372276Y651560D01*
X1372801Y651615D01*
X1373299Y651708D01*
X1373769Y651838D01*
X1374211Y652005D01*
X1374625Y652209D01*
X1375012Y652450D01*
X1375371Y652728D01*
X1375694Y653038D01*
X1375974Y653374D01*
X1376211Y653736D01*
X1376405Y654124D01*
X1376556Y654538D01*
X1376664Y654979D01*
X1376729Y655445D01*
X1376750Y655938D01*
X1376740Y656257D01*
X1376710Y656566D01*
X1376660Y656865D01*
X1376590Y657154D01*
X1376499Y657433D01*
X1376389Y657701D01*
X1376259Y657960D01*
X1376109Y658209D01*
X1375938Y658447D01*
X1375748Y658676D01*
X1375537Y658894D01*
X1375307Y659103D01*
X1375056Y659301D01*
X1374785Y659489D01*
X1374495Y659667D01*
X1374184Y659836D01*
X1374867Y661202D01*
X1375254Y661002D01*
X1375616Y660782D01*
X1375955Y660544D01*
X1376271Y660286D01*
X1376562Y660008D01*
X1376829Y659712D01*
X1377073Y659396D01*
X1377293Y659061D01*
X1377488Y658709D01*
X1377657Y658343D01*
X1377800Y657964D01*
X1377917Y657570D01*
X1378008Y657163D01*
X1378073Y656743D01*
X1378112Y656308D01*
X1378125Y655859D01*
X1378113Y655401D01*
X1378077Y654958D01*
X1378016Y654531D01*
X1377931Y654120D01*
X1377822Y653724D01*
X1377689Y653344D01*
X1377532Y652980D01*
X1377350Y652632D01*
X1377146Y652301D01*
X1376921Y651991D01*
X1376675Y651701D01*
X1376409Y651432D01*
X1376121Y651182D01*
X1375813Y650953D01*
X1375484Y650745D01*
X1375134Y650556D01*
X1374766Y650389D01*
X1374381Y650244D01*
X1373979Y650121D01*
X1373561Y650021D01*
X1373126Y649943D01*
X1372675Y649887D01*
X1372207Y649853D01*
X1371723Y649842D01*
G37*
G36*
X1374779Y662583D02*
X1374631Y664212D01*
X1374896Y664260D01*
X1375144Y664323D01*
X1375375Y664403D01*
X1375589Y664499D01*
X1375785Y664610D01*
X1375965Y664738D01*
X1376127Y664882D01*
X1376273Y665042D01*
X1376401Y665218D01*
X1376512Y665410D01*
X1376606Y665619D01*
X1376683Y665843D01*
X1376743Y666083D01*
X1376786Y666340D01*
X1376812Y666612D01*
X1376820Y666901D01*
X1376811Y667191D01*
X1376784Y667465D01*
X1376738Y667722D01*
X1376673Y667964D01*
X1376591Y668190D01*
X1376490Y668400D01*
X1376371Y668593D01*
X1376233Y668771D01*
X1376078Y668930D01*
X1375904Y669068D01*
X1375713Y669185D01*
X1375504Y669280D01*
X1375277Y669354D01*
X1375033Y669407D01*
X1374771Y669439D01*
X1374490Y669450D01*
X1374246Y669438D01*
X1374014Y669401D01*
X1373797Y669341D01*
X1373594Y669256D01*
X1373404Y669147D01*
X1373228Y669014D01*
X1373066Y668856D01*
X1372918Y668675D01*
X1372786Y668470D01*
X1372671Y668244D01*
X1372574Y667997D01*
X1372495Y667728D01*
X1372433Y667437D01*
X1372389Y667125D01*
X1372362Y666792D01*
X1372353Y666437D01*
X1372353Y665544D01*
X1370987Y665544D01*
X1370987Y666402D01*
X1370978Y666717D01*
X1370952Y667014D01*
X1370908Y667292D01*
X1370846Y667553D01*
X1370766Y667795D01*
X1370669Y668019D01*
X1370554Y668224D01*
X1370422Y668412D01*
X1370274Y668579D01*
X1370113Y668724D01*
X1369937Y668847D01*
X1369749Y668947D01*
X1369547Y669025D01*
X1369331Y669081D01*
X1369102Y669115D01*
X1368859Y669126D01*
X1368618Y669117D01*
X1368390Y669089D01*
X1368175Y669044D01*
X1367973Y668980D01*
X1367784Y668898D01*
X1367608Y668798D01*
X1367445Y668680D01*
X1367295Y668543D01*
X1367161Y668389D01*
X1367044Y668217D01*
X1366946Y668027D01*
X1366865Y667820D01*
X1366802Y667595D01*
X1366757Y667352D01*
X1366731Y667092D01*
X1366722Y666814D01*
X1366730Y666559D01*
X1366755Y666317D01*
X1366797Y666088D01*
X1366855Y665871D01*
X1366930Y665666D01*
X1367022Y665474D01*
X1367131Y665295D01*
X1367256Y665128D01*
X1367396Y664975D01*
X1367550Y664839D01*
X1367718Y664720D01*
X1367900Y664618D01*
X1368095Y664533D01*
X1368304Y664465D01*
X1368526Y664413D01*
X1368762Y664379D01*
X1368640Y662793D01*
X1368271Y662851D01*
X1367924Y662938D01*
X1367597Y663052D01*
X1367291Y663195D01*
X1367006Y663366D01*
X1366741Y663566D01*
X1366498Y663794D01*
X1366275Y664050D01*
X1366076Y664330D01*
X1365903Y664630D01*
X1365757Y664948D01*
X1365638Y665286D01*
X1365545Y665644D01*
X1365478Y666020D01*
X1365439Y666416D01*
X1365425Y666831D01*
X1365439Y667282D01*
X1365479Y667708D01*
X1365547Y668107D01*
X1365641Y668481D01*
X1365762Y668829D01*
X1365911Y669151D01*
X1366086Y669447D01*
X1366288Y669717D01*
X1366514Y669958D01*
X1366762Y670167D01*
X1367031Y670344D01*
X1367320Y670489D01*
X1367632Y670601D01*
X1367964Y670682D01*
X1368317Y670730D01*
X1368692Y670746D01*
X1368981Y670736D01*
X1369256Y670705D01*
X1369517Y670653D01*
X1369764Y670581D01*
X1369997Y670488D01*
X1370217Y670374D01*
X1370423Y670240D01*
X1370615Y670085D01*
X1370792Y669910D01*
X1370955Y669717D01*
X1371103Y669505D01*
X1371236Y669274D01*
X1371353Y669024D01*
X1371456Y668755D01*
X1371544Y668468D01*
X1371618Y668162D01*
X1371653Y668162D01*
X1371700Y668499D01*
X1371766Y668816D01*
X1371853Y669114D01*
X1371959Y669393D01*
X1372085Y669653D01*
X1372231Y669893D01*
X1372396Y670115D01*
X1372581Y670317D01*
X1372782Y670498D01*
X1372996Y670654D01*
X1373222Y670787D01*
X1373461Y670895D01*
X1373713Y670979D01*
X1373977Y671040D01*
X1374254Y671076D01*
X1374543Y671088D01*
X1374958Y671071D01*
X1375349Y671020D01*
X1375716Y670935D01*
X1376058Y670816D01*
X1376377Y670663D01*
X1376671Y670477D01*
X1376942Y670256D01*
X1377188Y670002D01*
X1377408Y669716D01*
X1377598Y669401D01*
X1377759Y669057D01*
X1377891Y668683D01*
X1377993Y668281D01*
X1378067Y667850D01*
X1378111Y667390D01*
X1378125Y666901D01*
X1378112Y666444D01*
X1378072Y666011D01*
X1378006Y665602D01*
X1377914Y665216D01*
X1377795Y664854D01*
X1377650Y664516D01*
X1377478Y664201D01*
X1377280Y663910D01*
X1377056Y663645D01*
X1376807Y663408D01*
X1376532Y663200D01*
X1376232Y663020D01*
X1375907Y662868D01*
X1375556Y662745D01*
X1375181Y662650D01*
X1374779Y662583D01*
G37*
G36*
X1063316Y717550D02*
X1061827Y717550D01*
X1061827Y720344D01*
X1056012Y720344D01*
X1056012Y721570D01*
X1061661Y729891D01*
X1063316Y729891D01*
X1063316Y721588D01*
X1065050Y721588D01*
X1065050Y720344D01*
X1063316Y720344D01*
X1063316Y717550D01*
G37*
%LPC*%
G36*
X1061827Y721588D02*
X1061827Y728113D01*
X1061582Y727649D01*
X1061241Y727071D01*
X1058079Y722411D01*
X1057606Y721763D01*
X1057466Y721588D01*
X1061827Y721588D01*
G37*
%LPD*%
G36*
X1049559Y717375D02*
X1049101Y717387D01*
X1048658Y717423D01*
X1048231Y717484D01*
X1047820Y717569D01*
X1047424Y717678D01*
X1047044Y717811D01*
X1046680Y717968D01*
X1046332Y718150D01*
X1046001Y718354D01*
X1045691Y718579D01*
X1045401Y718825D01*
X1045132Y719092D01*
X1044882Y719379D01*
X1044653Y719687D01*
X1044445Y720016D01*
X1044256Y720366D01*
X1044089Y720734D01*
X1043944Y721119D01*
X1043821Y721521D01*
X1043721Y721939D01*
X1043643Y722374D01*
X1043587Y722825D01*
X1043553Y723293D01*
X1043542Y723777D01*
X1043548Y724141D01*
X1043567Y724495D01*
X1043598Y724839D01*
X1043642Y725173D01*
X1043698Y725497D01*
X1043766Y725811D01*
X1043847Y726115D01*
X1043941Y726409D01*
X1044047Y726693D01*
X1044165Y726967D01*
X1044439Y727485D01*
X1044763Y727964D01*
X1045136Y728402D01*
X1045554Y728794D01*
X1046010Y729134D01*
X1046252Y729284D01*
X1046504Y729421D01*
X1046766Y729545D01*
X1047037Y729656D01*
X1047317Y729755D01*
X1047608Y729839D01*
X1047908Y729911D01*
X1048217Y729970D01*
X1048536Y730016D01*
X1048865Y730049D01*
X1049203Y730068D01*
X1049551Y730075D01*
X1050033Y730063D01*
X1050495Y730027D01*
X1050937Y729966D01*
X1051359Y729882D01*
X1051761Y729774D01*
X1052142Y729641D01*
X1052503Y729485D01*
X1052844Y729304D01*
X1053163Y729100D01*
X1053461Y728872D01*
X1053737Y728621D01*
X1053991Y728347D01*
X1054223Y728050D01*
X1054433Y727729D01*
X1054622Y727385D01*
X1054788Y727018D01*
X1053203Y726492D01*
X1053087Y726754D01*
X1052956Y726999D01*
X1052808Y727229D01*
X1052643Y727443D01*
X1052463Y727641D01*
X1052266Y727823D01*
X1052053Y727989D01*
X1051823Y728139D01*
X1051580Y728273D01*
X1051326Y728388D01*
X1051061Y728486D01*
X1050784Y728566D01*
X1050497Y728628D01*
X1050198Y728673D01*
X1049889Y728699D01*
X1049568Y728708D01*
X1049070Y728688D01*
X1048600Y728626D01*
X1048159Y728523D01*
X1047746Y728379D01*
X1047362Y728193D01*
X1047006Y727967D01*
X1046679Y727699D01*
X1046380Y727390D01*
X1046113Y727045D01*
X1045882Y726670D01*
X1045686Y726264D01*
X1045526Y725828D01*
X1045401Y725361D01*
X1045312Y724864D01*
X1045259Y724336D01*
X1045241Y723777D01*
X1045260Y723224D01*
X1045315Y722699D01*
X1045408Y722201D01*
X1045538Y721731D01*
X1045705Y721289D01*
X1045909Y720875D01*
X1046150Y720488D01*
X1046428Y720129D01*
X1046738Y719806D01*
X1047074Y719526D01*
X1047436Y719289D01*
X1047824Y719095D01*
X1048238Y718944D01*
X1048679Y718836D01*
X1049145Y718771D01*
X1049638Y718750D01*
X1049957Y718760D01*
X1050266Y718790D01*
X1050565Y718840D01*
X1050854Y718910D01*
X1051133Y719001D01*
X1051401Y719111D01*
X1051660Y719241D01*
X1051909Y719391D01*
X1052147Y719562D01*
X1052376Y719752D01*
X1052594Y719963D01*
X1052803Y720193D01*
X1053001Y720444D01*
X1053189Y720715D01*
X1053367Y721005D01*
X1053536Y721316D01*
X1054902Y720633D01*
X1054702Y720246D01*
X1054482Y719884D01*
X1054244Y719545D01*
X1053986Y719229D01*
X1053708Y718938D01*
X1053412Y718671D01*
X1053096Y718427D01*
X1052761Y718207D01*
X1052409Y718012D01*
X1052043Y717843D01*
X1051664Y717700D01*
X1051270Y717583D01*
X1050863Y717492D01*
X1050443Y717427D01*
X1050008Y717388D01*
X1049559Y717375D01*
G37*
G36*
X1117723Y611742D02*
X1117359Y611748D01*
X1117005Y611767D01*
X1116661Y611798D01*
X1116327Y611842D01*
X1116003Y611898D01*
X1115689Y611966D01*
X1115385Y612047D01*
X1115091Y612141D01*
X1114807Y612247D01*
X1114533Y612365D01*
X1114015Y612639D01*
X1113536Y612963D01*
X1113098Y613336D01*
X1112706Y613754D01*
X1112366Y614210D01*
X1112216Y614452D01*
X1112079Y614704D01*
X1111955Y614966D01*
X1111844Y615237D01*
X1111746Y615517D01*
X1111661Y615808D01*
X1111589Y616108D01*
X1111530Y616417D01*
X1111484Y616736D01*
X1111451Y617065D01*
X1111432Y617403D01*
X1111425Y617751D01*
X1111437Y618233D01*
X1111473Y618695D01*
X1111534Y619137D01*
X1111618Y619559D01*
X1111726Y619961D01*
X1111859Y620342D01*
X1112015Y620703D01*
X1112196Y621044D01*
X1112400Y621363D01*
X1112628Y621661D01*
X1112879Y621937D01*
X1113153Y622191D01*
X1113450Y622423D01*
X1113771Y622633D01*
X1114115Y622822D01*
X1114482Y622988D01*
X1115008Y621403D01*
X1114746Y621287D01*
X1114501Y621156D01*
X1114271Y621008D01*
X1114057Y620843D01*
X1113859Y620663D01*
X1113677Y620466D01*
X1113511Y620253D01*
X1113361Y620023D01*
X1113228Y619780D01*
X1113112Y619526D01*
X1113014Y619261D01*
X1112934Y618984D01*
X1112872Y618697D01*
X1112827Y618398D01*
X1112801Y618089D01*
X1112792Y617768D01*
X1112812Y617270D01*
X1112874Y616800D01*
X1112977Y616359D01*
X1113121Y615946D01*
X1113307Y615562D01*
X1113533Y615206D01*
X1113801Y614879D01*
X1114110Y614580D01*
X1114455Y614313D01*
X1114830Y614082D01*
X1115236Y613886D01*
X1115672Y613726D01*
X1116139Y613601D01*
X1116636Y613512D01*
X1117164Y613459D01*
X1117723Y613441D01*
X1118276Y613460D01*
X1118801Y613515D01*
X1119299Y613608D01*
X1119769Y613738D01*
X1120211Y613905D01*
X1120625Y614109D01*
X1121012Y614350D01*
X1121371Y614628D01*
X1121694Y614938D01*
X1121974Y615274D01*
X1122211Y615636D01*
X1122405Y616024D01*
X1122556Y616438D01*
X1122664Y616879D01*
X1122729Y617345D01*
X1122750Y617838D01*
X1122740Y618157D01*
X1122710Y618466D01*
X1122660Y618765D01*
X1122590Y619054D01*
X1122499Y619333D01*
X1122389Y619601D01*
X1122259Y619860D01*
X1122109Y620109D01*
X1121938Y620347D01*
X1121748Y620576D01*
X1121537Y620794D01*
X1121307Y621003D01*
X1121056Y621201D01*
X1120785Y621389D01*
X1120495Y621567D01*
X1120184Y621736D01*
X1120867Y623102D01*
X1121254Y622902D01*
X1121616Y622682D01*
X1121955Y622444D01*
X1122271Y622186D01*
X1122562Y621908D01*
X1122829Y621612D01*
X1123073Y621296D01*
X1123293Y620961D01*
X1123488Y620609D01*
X1123657Y620243D01*
X1123800Y619864D01*
X1123917Y619470D01*
X1124008Y619063D01*
X1124073Y618643D01*
X1124112Y618208D01*
X1124125Y617759D01*
X1124113Y617301D01*
X1124077Y616858D01*
X1124016Y616431D01*
X1123931Y616020D01*
X1123822Y615624D01*
X1123689Y615244D01*
X1123532Y614880D01*
X1123350Y614532D01*
X1123146Y614201D01*
X1122921Y613891D01*
X1122675Y613601D01*
X1122409Y613332D01*
X1122121Y613082D01*
X1121813Y612853D01*
X1121484Y612645D01*
X1121134Y612456D01*
X1120766Y612289D01*
X1120381Y612144D01*
X1119979Y612021D01*
X1119561Y611921D01*
X1119126Y611843D01*
X1118675Y611787D01*
X1118207Y611753D01*
X1117723Y611742D01*
G37*
G36*
X1121191Y624518D02*
X1121007Y626112D01*
X1121229Y626181D01*
X1121436Y626262D01*
X1121629Y626355D01*
X1121808Y626460D01*
X1121972Y626577D01*
X1122123Y626707D01*
X1122259Y626849D01*
X1122380Y627003D01*
X1122487Y627170D01*
X1122580Y627349D01*
X1122659Y627540D01*
X1122723Y627743D01*
X1122773Y627958D01*
X1122809Y628186D01*
X1122831Y628426D01*
X1122838Y628679D01*
X1122826Y628987D01*
X1122790Y629279D01*
X1122730Y629553D01*
X1122646Y629811D01*
X1122538Y630050D01*
X1122407Y630273D01*
X1122251Y630479D01*
X1122071Y630667D01*
X1121871Y630835D01*
X1121652Y630981D01*
X1121416Y631104D01*
X1121162Y631205D01*
X1120889Y631284D01*
X1120599Y631340D01*
X1120291Y631374D01*
X1119965Y631385D01*
X1119681Y631374D01*
X1119410Y631340D01*
X1119154Y631283D01*
X1118912Y631204D01*
X1118683Y631103D01*
X1118469Y630978D01*
X1118268Y630832D01*
X1118082Y630662D01*
X1117913Y630474D01*
X1117768Y630270D01*
X1117644Y630050D01*
X1117543Y629814D01*
X1117465Y629562D01*
X1117408Y629295D01*
X1117375Y629012D01*
X1117364Y628714D01*
X1117376Y628399D01*
X1117414Y628096D01*
X1117477Y627804D01*
X1117565Y627522D01*
X1117683Y627246D01*
X1117837Y626971D01*
X1118025Y626695D01*
X1118248Y626419D01*
X1118248Y624877D01*
X1111609Y625289D01*
X1111609Y632305D01*
X1112949Y632305D01*
X1112949Y626725D01*
X1116864Y626489D01*
X1116680Y626753D01*
X1116520Y627032D01*
X1116384Y627328D01*
X1116273Y627638D01*
X1116187Y627965D01*
X1116125Y628307D01*
X1116088Y628664D01*
X1116076Y629038D01*
X1116093Y629481D01*
X1116143Y629902D01*
X1116226Y630300D01*
X1116343Y630674D01*
X1116493Y631026D01*
X1116677Y631354D01*
X1116894Y631659D01*
X1117145Y631941D01*
X1117422Y632195D01*
X1117719Y632414D01*
X1118037Y632600D01*
X1118375Y632752D01*
X1118733Y632871D01*
X1119112Y632955D01*
X1119511Y633006D01*
X1119930Y633023D01*
X1120405Y633005D01*
X1120854Y632950D01*
X1121278Y632860D01*
X1121675Y632733D01*
X1122046Y632569D01*
X1122392Y632370D01*
X1122711Y632134D01*
X1123004Y631862D01*
X1123267Y631558D01*
X1123495Y631226D01*
X1123687Y630866D01*
X1123845Y630477D01*
X1123968Y630061D01*
X1124055Y629616D01*
X1124108Y629144D01*
X1124125Y628643D01*
X1124113Y628223D01*
X1124078Y627822D01*
X1124019Y627443D01*
X1123937Y627084D01*
X1123831Y626747D01*
X1123702Y626430D01*
X1123549Y626134D01*
X1123372Y625858D01*
X1123173Y625605D01*
X1122953Y625377D01*
X1122712Y625173D01*
X1122450Y624993D01*
X1122167Y624838D01*
X1121863Y624707D01*
X1121537Y624600D01*
X1121191Y624518D01*
G37*
G36*
X1156164Y624711D02*
X1155386Y624729D01*
X1154655Y624783D01*
X1153969Y624872D01*
X1153331Y624998D01*
X1152739Y625159D01*
X1152193Y625356D01*
X1151694Y625589D01*
X1151242Y625858D01*
X1150840Y626160D01*
X1150491Y626493D01*
X1150196Y626856D01*
X1149954Y627249D01*
X1149767Y627672D01*
X1149693Y627895D01*
X1149633Y628126D01*
X1149586Y628365D01*
X1149552Y628610D01*
X1149532Y628864D01*
X1149525Y629125D01*
X1149535Y629466D01*
X1149565Y629791D01*
X1149614Y630100D01*
X1149682Y630393D01*
X1149771Y630670D01*
X1149879Y630930D01*
X1150006Y631174D01*
X1150154Y631402D01*
X1150321Y631614D01*
X1150507Y631810D01*
X1150713Y631990D01*
X1150939Y632153D01*
X1151185Y632301D01*
X1151450Y632432D01*
X1151735Y632547D01*
X1152039Y632646D01*
X1152311Y631140D01*
X1151957Y631006D01*
X1151651Y630839D01*
X1151393Y630636D01*
X1151181Y630400D01*
X1151016Y630128D01*
X1150898Y629823D01*
X1150828Y629482D01*
X1150804Y629108D01*
X1150824Y628780D01*
X1150883Y628471D01*
X1150981Y628182D01*
X1151118Y627911D01*
X1151295Y627659D01*
X1151511Y627427D01*
X1151766Y627213D01*
X1152061Y627019D01*
X1152393Y626845D01*
X1152760Y626695D01*
X1153162Y626568D01*
X1153599Y626464D01*
X1154072Y626383D01*
X1154579Y626325D01*
X1155122Y626290D01*
X1155700Y626279D01*
X1155325Y626515D01*
X1154998Y626795D01*
X1154719Y627119D01*
X1154487Y627487D01*
X1154305Y627891D01*
X1154175Y628324D01*
X1154130Y628551D01*
X1154097Y628785D01*
X1154077Y629026D01*
X1154071Y629274D01*
X1154088Y629690D01*
X1154138Y630084D01*
X1154221Y630456D01*
X1154338Y630806D01*
X1154488Y631134D01*
X1154672Y631439D01*
X1154889Y631723D01*
X1155140Y631985D01*
X1155418Y632220D01*
X1155720Y632424D01*
X1156044Y632596D01*
X1156392Y632737D01*
X1156763Y632847D01*
X1157156Y632925D01*
X1157573Y632972D01*
X1158012Y632988D01*
X1158488Y632971D01*
X1158937Y632921D01*
X1159361Y632839D01*
X1159760Y632723D01*
X1160132Y632574D01*
X1160479Y632392D01*
X1160800Y632176D01*
X1161095Y631928D01*
X1161360Y631650D01*
X1161590Y631348D01*
X1161784Y631020D01*
X1161943Y630667D01*
X1162066Y630288D01*
X1162155Y629885D01*
X1162208Y629456D01*
X1162225Y629003D01*
X1162219Y628746D01*
X1162201Y628497D01*
X1162128Y628022D01*
X1162007Y627577D01*
X1161838Y627163D01*
X1161620Y626780D01*
X1161353Y626428D01*
X1161038Y626106D01*
X1160675Y625814D01*
X1160265Y625556D01*
X1159812Y625332D01*
X1159314Y625142D01*
X1158772Y624987D01*
X1158186Y624866D01*
X1157556Y624780D01*
X1156882Y624728D01*
X1156164Y624711D01*
G37*
%LPC*%
G36*
X1157706Y626436D02*
X1158055Y626447D01*
X1158387Y626480D01*
X1158704Y626535D01*
X1159004Y626613D01*
X1159288Y626712D01*
X1159557Y626833D01*
X1159809Y626976D01*
X1160044Y627141D01*
X1160258Y627324D01*
X1160443Y627519D01*
X1160599Y627726D01*
X1160727Y627946D01*
X1160827Y628178D01*
X1160898Y628423D01*
X1160941Y628680D01*
X1160955Y628950D01*
X1160943Y629227D01*
X1160907Y629489D01*
X1160847Y629735D01*
X1160764Y629966D01*
X1160656Y630182D01*
X1160524Y630382D01*
X1160368Y630567D01*
X1160189Y630737D01*
X1159988Y630889D01*
X1159770Y631020D01*
X1159533Y631132D01*
X1159279Y631223D01*
X1159007Y631294D01*
X1158717Y631344D01*
X1158408Y631375D01*
X1158082Y631385D01*
X1157757Y631375D01*
X1157451Y631344D01*
X1157164Y631293D01*
X1156896Y631221D01*
X1156647Y631128D01*
X1156417Y631015D01*
X1156207Y630882D01*
X1156015Y630728D01*
X1155845Y630556D01*
X1155697Y630367D01*
X1155572Y630163D01*
X1155470Y629942D01*
X1155391Y629705D01*
X1155334Y629452D01*
X1155300Y629183D01*
X1155288Y628897D01*
X1155298Y628628D01*
X1155329Y628372D01*
X1155379Y628130D01*
X1155449Y627900D01*
X1155540Y627684D01*
X1155651Y627481D01*
X1155781Y627291D01*
X1155932Y627115D01*
X1156101Y626956D01*
X1156284Y626818D01*
X1156483Y626701D01*
X1156697Y626606D01*
X1156927Y626532D01*
X1157171Y626479D01*
X1157431Y626447D01*
X1157706Y626436D01*
G37*
%LPD*%
G36*
X1155823Y611742D02*
X1155459Y611748D01*
X1155105Y611767D01*
X1154761Y611798D01*
X1154427Y611842D01*
X1154103Y611898D01*
X1153789Y611966D01*
X1153485Y612047D01*
X1153191Y612141D01*
X1152907Y612247D01*
X1152633Y612365D01*
X1152115Y612639D01*
X1151636Y612963D01*
X1151198Y613336D01*
X1150806Y613754D01*
X1150466Y614210D01*
X1150316Y614452D01*
X1150179Y614704D01*
X1150055Y614966D01*
X1149944Y615237D01*
X1149846Y615517D01*
X1149761Y615808D01*
X1149689Y616108D01*
X1149630Y616417D01*
X1149584Y616736D01*
X1149551Y617065D01*
X1149532Y617403D01*
X1149525Y617751D01*
X1149537Y618233D01*
X1149573Y618695D01*
X1149634Y619137D01*
X1149718Y619559D01*
X1149826Y619961D01*
X1149959Y620342D01*
X1150115Y620703D01*
X1150296Y621044D01*
X1150500Y621363D01*
X1150728Y621661D01*
X1150979Y621937D01*
X1151253Y622191D01*
X1151550Y622423D01*
X1151871Y622633D01*
X1152215Y622822D01*
X1152582Y622988D01*
X1153108Y621403D01*
X1152846Y621287D01*
X1152601Y621156D01*
X1152371Y621008D01*
X1152157Y620843D01*
X1151959Y620663D01*
X1151777Y620466D01*
X1151611Y620253D01*
X1151461Y620023D01*
X1151328Y619780D01*
X1151212Y619526D01*
X1151114Y619261D01*
X1151034Y618984D01*
X1150972Y618697D01*
X1150927Y618398D01*
X1150901Y618089D01*
X1150892Y617768D01*
X1150912Y617270D01*
X1150974Y616800D01*
X1151077Y616359D01*
X1151221Y615946D01*
X1151407Y615562D01*
X1151633Y615206D01*
X1151901Y614879D01*
X1152210Y614580D01*
X1152555Y614313D01*
X1152930Y614082D01*
X1153336Y613886D01*
X1153772Y613726D01*
X1154239Y613601D01*
X1154736Y613512D01*
X1155264Y613459D01*
X1155823Y613441D01*
X1156376Y613460D01*
X1156901Y613515D01*
X1157399Y613608D01*
X1157869Y613738D01*
X1158311Y613905D01*
X1158725Y614109D01*
X1159112Y614350D01*
X1159471Y614628D01*
X1159794Y614938D01*
X1160074Y615274D01*
X1160311Y615636D01*
X1160505Y616024D01*
X1160656Y616438D01*
X1160764Y616879D01*
X1160829Y617345D01*
X1160850Y617838D01*
X1160840Y618157D01*
X1160810Y618466D01*
X1160760Y618765D01*
X1160690Y619054D01*
X1160599Y619333D01*
X1160489Y619601D01*
X1160359Y619860D01*
X1160209Y620109D01*
X1160038Y620347D01*
X1159848Y620576D01*
X1159637Y620794D01*
X1159407Y621003D01*
X1159156Y621201D01*
X1158885Y621389D01*
X1158595Y621567D01*
X1158284Y621736D01*
X1158967Y623102D01*
X1159354Y622902D01*
X1159716Y622682D01*
X1160055Y622444D01*
X1160371Y622186D01*
X1160662Y621908D01*
X1160929Y621612D01*
X1161173Y621296D01*
X1161393Y620961D01*
X1161588Y620609D01*
X1161757Y620243D01*
X1161900Y619864D01*
X1162017Y619470D01*
X1162108Y619063D01*
X1162173Y618643D01*
X1162212Y618208D01*
X1162225Y617759D01*
X1162213Y617301D01*
X1162177Y616858D01*
X1162116Y616431D01*
X1162031Y616020D01*
X1161922Y615624D01*
X1161789Y615244D01*
X1161632Y614880D01*
X1161450Y614532D01*
X1161246Y614201D01*
X1161021Y613891D01*
X1160775Y613601D01*
X1160509Y613332D01*
X1160221Y613082D01*
X1159913Y612853D01*
X1159584Y612645D01*
X1159234Y612456D01*
X1158866Y612289D01*
X1158481Y612144D01*
X1158079Y612021D01*
X1157661Y611921D01*
X1157226Y611843D01*
X1156775Y611787D01*
X1156307Y611753D01*
X1155823Y611742D01*
G37*
G36*
X1125759Y336375D02*
X1125301Y336387D01*
X1124858Y336423D01*
X1124431Y336484D01*
X1124020Y336569D01*
X1123624Y336678D01*
X1123244Y336811D01*
X1122880Y336968D01*
X1122532Y337150D01*
X1122201Y337354D01*
X1121891Y337579D01*
X1121601Y337825D01*
X1121332Y338092D01*
X1121082Y338379D01*
X1120853Y338687D01*
X1120645Y339016D01*
X1120456Y339366D01*
X1120289Y339734D01*
X1120144Y340119D01*
X1120021Y340521D01*
X1119921Y340939D01*
X1119843Y341374D01*
X1119787Y341825D01*
X1119753Y342293D01*
X1119742Y342777D01*
X1119748Y343141D01*
X1119767Y343495D01*
X1119798Y343839D01*
X1119842Y344173D01*
X1119898Y344497D01*
X1119966Y344811D01*
X1120047Y345115D01*
X1120141Y345409D01*
X1120247Y345693D01*
X1120365Y345967D01*
X1120639Y346485D01*
X1120963Y346964D01*
X1121336Y347402D01*
X1121754Y347794D01*
X1122210Y348134D01*
X1122452Y348284D01*
X1122704Y348421D01*
X1122966Y348545D01*
X1123237Y348656D01*
X1123517Y348755D01*
X1123808Y348839D01*
X1124108Y348911D01*
X1124417Y348970D01*
X1124736Y349016D01*
X1125065Y349049D01*
X1125403Y349068D01*
X1125751Y349075D01*
X1126233Y349063D01*
X1126695Y349027D01*
X1127137Y348966D01*
X1127559Y348882D01*
X1127961Y348774D01*
X1128342Y348641D01*
X1128703Y348485D01*
X1129044Y348304D01*
X1129363Y348100D01*
X1129661Y347872D01*
X1129937Y347621D01*
X1130191Y347347D01*
X1130423Y347050D01*
X1130633Y346729D01*
X1130822Y346385D01*
X1130988Y346018D01*
X1129403Y345492D01*
X1129287Y345754D01*
X1129156Y345999D01*
X1129008Y346229D01*
X1128843Y346443D01*
X1128663Y346641D01*
X1128466Y346823D01*
X1128253Y346989D01*
X1128023Y347139D01*
X1127780Y347273D01*
X1127526Y347388D01*
X1127261Y347486D01*
X1126984Y347566D01*
X1126697Y347628D01*
X1126398Y347673D01*
X1126089Y347699D01*
X1125768Y347708D01*
X1125270Y347688D01*
X1124800Y347626D01*
X1124359Y347523D01*
X1123946Y347379D01*
X1123562Y347193D01*
X1123206Y346967D01*
X1122879Y346699D01*
X1122580Y346390D01*
X1122313Y346045D01*
X1122082Y345670D01*
X1121886Y345264D01*
X1121726Y344828D01*
X1121601Y344361D01*
X1121512Y343864D01*
X1121459Y343336D01*
X1121441Y342777D01*
X1121460Y342224D01*
X1121515Y341699D01*
X1121608Y341201D01*
X1121738Y340731D01*
X1121905Y340289D01*
X1122109Y339875D01*
X1122350Y339488D01*
X1122628Y339129D01*
X1122938Y338806D01*
X1123274Y338526D01*
X1123636Y338289D01*
X1124024Y338095D01*
X1124438Y337944D01*
X1124879Y337836D01*
X1125345Y337771D01*
X1125838Y337750D01*
X1126157Y337760D01*
X1126466Y337790D01*
X1126765Y337840D01*
X1127054Y337910D01*
X1127333Y338001D01*
X1127601Y338111D01*
X1127860Y338241D01*
X1128109Y338391D01*
X1128347Y338562D01*
X1128576Y338752D01*
X1128794Y338963D01*
X1129003Y339193D01*
X1129201Y339444D01*
X1129389Y339715D01*
X1129567Y340005D01*
X1129736Y340316D01*
X1131102Y339633D01*
X1130902Y339246D01*
X1130682Y338884D01*
X1130444Y338545D01*
X1130186Y338229D01*
X1129908Y337938D01*
X1129612Y337671D01*
X1129296Y337427D01*
X1128961Y337207D01*
X1128609Y337012D01*
X1128243Y336843D01*
X1127864Y336700D01*
X1127470Y336583D01*
X1127063Y336492D01*
X1126643Y336427D01*
X1126208Y336388D01*
X1125759Y336375D01*
G37*
G36*
X1136643Y336550D02*
X1134997Y336550D01*
X1135013Y337145D01*
X1135060Y337748D01*
X1135138Y338359D01*
X1135248Y338977D01*
X1135389Y339604D01*
X1135561Y340238D01*
X1135765Y340880D01*
X1136000Y341529D01*
X1136271Y342195D01*
X1136585Y342886D01*
X1136941Y343602D01*
X1137339Y344342D01*
X1137778Y345107D01*
X1138260Y345897D01*
X1138784Y346711D01*
X1139350Y347551D01*
X1132720Y347551D01*
X1132720Y348891D01*
X1140874Y348891D01*
X1140874Y347612D01*
X1139997Y346245D01*
X1139260Y345035D01*
X1138662Y343981D01*
X1138202Y343084D01*
X1137837Y342268D01*
X1137520Y341457D01*
X1137252Y340652D01*
X1137033Y339852D01*
X1136863Y339048D01*
X1136741Y338229D01*
X1136668Y337397D01*
X1136650Y336975D01*
X1136643Y336550D01*
G37*
G36*
X1343802Y142065D02*
X1343321Y142080D01*
X1342867Y142123D01*
X1342439Y142197D01*
X1342039Y142299D01*
X1341665Y142431D01*
X1341319Y142592D01*
X1340999Y142782D01*
X1340706Y143002D01*
X1340444Y143249D01*
X1340218Y143520D01*
X1340026Y143816D01*
X1339869Y144136D01*
X1339747Y144481D01*
X1339659Y144851D01*
X1339607Y145246D01*
X1339590Y145665D01*
X1339600Y145961D01*
X1339633Y146245D01*
X1339687Y146517D01*
X1339762Y146777D01*
X1339860Y147025D01*
X1339979Y147261D01*
X1340119Y147485D01*
X1340281Y147697D01*
X1340460Y147892D01*
X1340651Y148068D01*
X1340855Y148223D01*
X1341070Y148358D01*
X1341297Y148473D01*
X1341536Y148567D01*
X1341787Y148641D01*
X1342051Y148695D01*
X1342051Y148730D01*
X1341805Y148798D01*
X1341574Y148883D01*
X1341355Y148985D01*
X1341150Y149105D01*
X1340958Y149241D01*
X1340779Y149395D01*
X1340613Y149566D01*
X1340461Y149755D01*
X1340324Y149956D01*
X1340206Y150166D01*
X1340106Y150384D01*
X1340024Y150611D01*
X1339960Y150846D01*
X1339915Y151090D01*
X1339888Y151342D01*
X1339879Y151603D01*
X1339895Y151947D01*
X1339945Y152275D01*
X1340027Y152585D01*
X1340142Y152879D01*
X1340291Y153157D01*
X1340472Y153418D01*
X1340687Y153662D01*
X1340934Y153889D01*
X1341209Y154094D01*
X1341507Y154272D01*
X1341827Y154423D01*
X1342170Y154546D01*
X1342535Y154642D01*
X1342924Y154710D01*
X1343334Y154751D01*
X1343767Y154765D01*
X1344211Y154751D01*
X1344630Y154711D01*
X1345026Y154644D01*
X1345398Y154550D01*
X1345745Y154429D01*
X1346069Y154282D01*
X1346369Y154108D01*
X1346645Y153906D01*
X1346892Y153682D01*
X1347106Y153439D01*
X1347288Y153178D01*
X1347436Y152897D01*
X1347552Y152597D01*
X1347634Y152279D01*
X1347683Y151942D01*
X1347700Y151585D01*
X1347691Y151325D01*
X1347663Y151072D01*
X1347617Y150829D01*
X1347553Y150593D01*
X1347471Y150367D01*
X1347370Y150148D01*
X1347251Y149939D01*
X1347113Y149737D01*
X1346960Y149549D01*
X1346793Y149380D01*
X1346775Y149365D01*
X1346613Y149229D01*
X1346419Y149096D01*
X1346212Y148981D01*
X1345991Y148885D01*
X1345758Y148807D01*
X1345510Y148748D01*
X1345510Y148713D01*
X1345798Y148655D01*
X1346069Y148578D01*
X1346323Y148481D01*
X1346561Y148366D01*
X1346783Y148231D01*
X1346988Y148076D01*
X1347177Y147903D01*
X1347316Y147747D01*
X1347350Y147710D01*
X1347504Y147501D01*
X1347637Y147279D01*
X1347750Y147045D01*
X1347842Y146798D01*
X1347914Y146538D01*
X1347965Y146265D01*
X1347996Y145980D01*
X1348006Y145682D01*
X1347990Y145267D01*
X1347939Y144875D01*
X1347854Y144507D01*
X1347735Y144163D01*
X1347582Y143841D01*
X1347396Y143544D01*
X1347175Y143270D01*
X1346920Y143020D01*
X1346634Y142796D01*
X1346318Y142602D01*
X1345973Y142438D01*
X1345598Y142303D01*
X1345193Y142199D01*
X1344759Y142125D01*
X1344296Y142080D01*
X1343802Y142065D01*
G37*
%LPC*%
G36*
X1343820Y143247D02*
X1344132Y143257D01*
X1344423Y143286D01*
X1344693Y143334D01*
X1344943Y143402D01*
X1345173Y143488D01*
X1345382Y143595D01*
X1345570Y143720D01*
X1345738Y143865D01*
X1345886Y144031D01*
X1346014Y144219D01*
X1346122Y144431D01*
X1346211Y144665D01*
X1346280Y144922D01*
X1346329Y145202D01*
X1346359Y145505D01*
X1346369Y145831D01*
X1346358Y146109D01*
X1346326Y146369D01*
X1346273Y146612D01*
X1346198Y146837D01*
X1346102Y147045D01*
X1345984Y147234D01*
X1345846Y147406D01*
X1345685Y147561D01*
X1345506Y147697D01*
X1345309Y147816D01*
X1345095Y147916D01*
X1344864Y147998D01*
X1344616Y148061D01*
X1344350Y148107D01*
X1344067Y148134D01*
X1343767Y148143D01*
X1343476Y148133D01*
X1343200Y148104D01*
X1342941Y148055D01*
X1342699Y147987D01*
X1342473Y147899D01*
X1342263Y147791D01*
X1342070Y147664D01*
X1341893Y147517D01*
X1341735Y147353D01*
X1341598Y147175D01*
X1341482Y146981D01*
X1341387Y146774D01*
X1341313Y146551D01*
X1341261Y146314D01*
X1341229Y146062D01*
X1341219Y145796D01*
X1341229Y145487D01*
X1341259Y145199D01*
X1341310Y144930D01*
X1341381Y144681D01*
X1341473Y144452D01*
X1341584Y144243D01*
X1341717Y144054D01*
X1341869Y143884D01*
X1342042Y143735D01*
X1342235Y143606D01*
X1342448Y143496D01*
X1342682Y143407D01*
X1342936Y143337D01*
X1343210Y143287D01*
X1343505Y143257D01*
X1343820Y143247D01*
G37*
G36*
X1343785Y149326D02*
X1344055Y149334D01*
X1344308Y149358D01*
X1344545Y149398D01*
X1344765Y149454D01*
X1344968Y149526D01*
X1345155Y149614D01*
X1345326Y149718D01*
X1345480Y149838D01*
X1345616Y149976D01*
X1345734Y150134D01*
X1345835Y150312D01*
X1345916Y150509D01*
X1345980Y150727D01*
X1346026Y150964D01*
X1346053Y151221D01*
X1346062Y151498D01*
X1346053Y151751D01*
X1346026Y151988D01*
X1345981Y152209D01*
X1345919Y152414D01*
X1345838Y152602D01*
X1345739Y152773D01*
X1345623Y152929D01*
X1345488Y153068D01*
X1345336Y153190D01*
X1345166Y153297D01*
X1344977Y153387D01*
X1344771Y153460D01*
X1344547Y153517D01*
X1344305Y153558D01*
X1344045Y153583D01*
X1343767Y153591D01*
X1343498Y153583D01*
X1343244Y153558D01*
X1343008Y153517D01*
X1342787Y153460D01*
X1342584Y153386D01*
X1342397Y153295D01*
X1342226Y153189D01*
X1342073Y153066D01*
X1341936Y152926D01*
X1341818Y152771D01*
X1341718Y152599D01*
X1341636Y152411D01*
X1341572Y152207D01*
X1341527Y151987D01*
X1341499Y151750D01*
X1341490Y151498D01*
X1341499Y151241D01*
X1341528Y150999D01*
X1341574Y150774D01*
X1341640Y150564D01*
X1341724Y150370D01*
X1341828Y150191D01*
X1341949Y150029D01*
X1342090Y149882D01*
X1342248Y149751D01*
X1342421Y149639D01*
X1342610Y149543D01*
X1342814Y149465D01*
X1343033Y149404D01*
X1343268Y149360D01*
X1343519Y149334D01*
X1343785Y149326D01*
G37*
%LPD*%
G36*
X1332769Y142065D02*
X1332311Y142077D01*
X1331868Y142113D01*
X1331441Y142174D01*
X1331030Y142259D01*
X1330634Y142368D01*
X1330254Y142501D01*
X1329890Y142658D01*
X1329542Y142840D01*
X1329211Y143044D01*
X1328901Y143269D01*
X1328611Y143515D01*
X1328342Y143782D01*
X1328092Y144069D01*
X1327863Y144377D01*
X1327655Y144706D01*
X1327466Y145056D01*
X1327299Y145424D01*
X1327154Y145809D01*
X1327031Y146211D01*
X1326931Y146629D01*
X1326853Y147064D01*
X1326797Y147515D01*
X1326763Y147983D01*
X1326752Y148467D01*
X1326758Y148831D01*
X1326777Y149185D01*
X1326808Y149529D01*
X1326852Y149863D01*
X1326908Y150187D01*
X1326976Y150501D01*
X1327057Y150805D01*
X1327151Y151099D01*
X1327257Y151383D01*
X1327375Y151657D01*
X1327649Y152175D01*
X1327973Y152654D01*
X1328346Y153092D01*
X1328764Y153484D01*
X1329220Y153824D01*
X1329462Y153974D01*
X1329714Y154111D01*
X1329976Y154235D01*
X1330247Y154346D01*
X1330527Y154445D01*
X1330818Y154529D01*
X1331118Y154601D01*
X1331427Y154660D01*
X1331746Y154706D01*
X1332075Y154739D01*
X1332413Y154758D01*
X1332761Y154765D01*
X1333243Y154753D01*
X1333705Y154717D01*
X1334147Y154656D01*
X1334569Y154572D01*
X1334971Y154464D01*
X1335352Y154331D01*
X1335713Y154175D01*
X1336054Y153994D01*
X1336373Y153790D01*
X1336671Y153562D01*
X1336947Y153311D01*
X1337201Y153037D01*
X1337433Y152740D01*
X1337643Y152419D01*
X1337832Y152075D01*
X1337998Y151708D01*
X1336413Y151182D01*
X1336297Y151444D01*
X1336166Y151689D01*
X1336018Y151919D01*
X1335853Y152133D01*
X1335673Y152331D01*
X1335476Y152513D01*
X1335263Y152679D01*
X1335033Y152829D01*
X1334790Y152963D01*
X1334536Y153078D01*
X1334271Y153176D01*
X1333994Y153256D01*
X1333707Y153318D01*
X1333408Y153363D01*
X1333099Y153389D01*
X1332778Y153398D01*
X1332280Y153378D01*
X1331810Y153316D01*
X1331369Y153213D01*
X1330956Y153069D01*
X1330572Y152883D01*
X1330216Y152657D01*
X1329889Y152389D01*
X1329590Y152080D01*
X1329323Y151735D01*
X1329092Y151360D01*
X1328896Y150954D01*
X1328736Y150518D01*
X1328611Y150051D01*
X1328522Y149554D01*
X1328469Y149026D01*
X1328451Y148467D01*
X1328470Y147914D01*
X1328525Y147389D01*
X1328618Y146891D01*
X1328748Y146421D01*
X1328915Y145979D01*
X1329119Y145565D01*
X1329360Y145178D01*
X1329638Y144819D01*
X1329948Y144496D01*
X1330284Y144216D01*
X1330646Y143979D01*
X1331034Y143785D01*
X1331448Y143634D01*
X1331889Y143526D01*
X1332355Y143461D01*
X1332848Y143440D01*
X1333167Y143450D01*
X1333476Y143480D01*
X1333775Y143530D01*
X1334064Y143600D01*
X1334343Y143691D01*
X1334611Y143801D01*
X1334870Y143931D01*
X1335119Y144081D01*
X1335357Y144252D01*
X1335586Y144442D01*
X1335804Y144653D01*
X1336013Y144883D01*
X1336211Y145134D01*
X1336399Y145405D01*
X1336577Y145695D01*
X1336746Y146006D01*
X1338112Y145323D01*
X1337912Y144936D01*
X1337692Y144574D01*
X1337454Y144235D01*
X1337196Y143919D01*
X1336918Y143628D01*
X1336622Y143361D01*
X1336306Y143117D01*
X1335971Y142897D01*
X1335619Y142702D01*
X1335253Y142533D01*
X1334874Y142390D01*
X1334480Y142273D01*
X1334073Y142182D01*
X1333653Y142117D01*
X1333218Y142078D01*
X1332769Y142065D01*
G37*
G36*
X1174750Y764703D02*
X1162409Y764703D01*
X1162409Y768784D01*
X1162415Y769171D01*
X1162434Y769546D01*
X1162465Y769910D01*
X1162508Y770262D01*
X1162563Y770604D01*
X1162630Y770934D01*
X1162710Y771254D01*
X1162802Y771562D01*
X1162907Y771859D01*
X1163023Y772144D01*
X1163152Y772419D01*
X1163294Y772682D01*
X1163447Y772934D01*
X1163613Y773175D01*
X1163791Y773405D01*
X1163981Y773623D01*
X1164183Y773830D01*
X1164395Y774023D01*
X1164618Y774202D01*
X1164850Y774369D01*
X1165094Y774522D01*
X1165347Y774661D01*
X1165611Y774788D01*
X1165885Y774901D01*
X1166170Y775001D01*
X1166465Y775087D01*
X1166770Y775160D01*
X1167086Y775220D01*
X1167412Y775267D01*
X1167749Y775300D01*
X1168095Y775320D01*
X1168453Y775327D01*
X1168923Y775315D01*
X1169377Y775280D01*
X1169818Y775222D01*
X1170243Y775141D01*
X1170653Y775036D01*
X1171048Y774908D01*
X1171429Y774757D01*
X1171794Y774582D01*
X1172142Y774386D01*
X1172468Y774171D01*
X1172774Y773937D01*
X1173059Y773682D01*
X1173322Y773409D01*
X1173565Y773116D01*
X1173787Y772803D01*
X1173988Y772472D01*
X1174167Y772123D01*
X1174321Y771762D01*
X1174452Y771388D01*
X1174560Y771000D01*
X1174643Y770599D01*
X1174702Y770186D01*
X1174738Y769759D01*
X1174750Y769318D01*
X1174750Y764703D01*
G37*
%LPC*%
G36*
X1173410Y766376D02*
X1173410Y769126D01*
X1173401Y769460D01*
X1173373Y769784D01*
X1173326Y770098D01*
X1173261Y770401D01*
X1173177Y770694D01*
X1173075Y770977D01*
X1172954Y771250D01*
X1172814Y771512D01*
X1172657Y771762D01*
X1172484Y771997D01*
X1172294Y772217D01*
X1172087Y772422D01*
X1171865Y772612D01*
X1171625Y772788D01*
X1171370Y772948D01*
X1171098Y773093D01*
X1170811Y773223D01*
X1170512Y773335D01*
X1170200Y773430D01*
X1169876Y773507D01*
X1169539Y773568D01*
X1169189Y773611D01*
X1168827Y773637D01*
X1168453Y773645D01*
X1167896Y773626D01*
X1167373Y773567D01*
X1166885Y773468D01*
X1166431Y773331D01*
X1166010Y773154D01*
X1165624Y772938D01*
X1165272Y772683D01*
X1164954Y772388D01*
X1164671Y772057D01*
X1164427Y771690D01*
X1164220Y771287D01*
X1164050Y770850D01*
X1163919Y770378D01*
X1163825Y769870D01*
X1163768Y769327D01*
X1163749Y768749D01*
X1163749Y766376D01*
X1173410Y766376D01*
G37*
%LPD*%
G36*
X1174750Y777566D02*
X1173410Y777566D01*
X1173410Y780711D01*
X1163916Y780711D01*
X1165904Y777925D01*
X1164415Y777925D01*
X1162409Y780842D01*
X1162409Y782296D01*
X1173410Y782296D01*
X1173410Y785300D01*
X1174750Y785300D01*
X1174750Y777566D01*
G37*
G36*
X1255244Y349075D02*
X1254785Y349087D01*
X1254342Y349123D01*
X1253915Y349184D01*
X1253504Y349269D01*
X1253108Y349378D01*
X1252729Y349511D01*
X1252364Y349668D01*
X1252016Y349850D01*
X1251686Y350054D01*
X1251376Y350279D01*
X1251086Y350525D01*
X1250816Y350792D01*
X1250567Y351079D01*
X1250338Y351387D01*
X1250129Y351716D01*
X1249940Y352066D01*
X1249773Y352434D01*
X1249628Y352819D01*
X1249505Y353221D01*
X1249405Y353639D01*
X1249327Y354074D01*
X1249271Y354525D01*
X1249238Y354993D01*
X1249227Y355477D01*
X1249233Y355841D01*
X1249251Y356195D01*
X1249283Y356539D01*
X1249326Y356873D01*
X1249382Y357197D01*
X1249451Y357511D01*
X1249532Y357815D01*
X1249625Y358109D01*
X1249731Y358393D01*
X1249849Y358667D01*
X1250123Y359185D01*
X1250447Y359664D01*
X1250821Y360102D01*
X1251238Y360494D01*
X1251694Y360834D01*
X1251937Y360984D01*
X1252189Y361121D01*
X1252450Y361245D01*
X1252721Y361356D01*
X1253002Y361455D01*
X1253292Y361539D01*
X1253592Y361611D01*
X1253901Y361670D01*
X1254220Y361716D01*
X1254549Y361749D01*
X1254887Y361768D01*
X1255235Y361775D01*
X1255717Y361763D01*
X1256180Y361727D01*
X1256622Y361666D01*
X1257044Y361582D01*
X1257445Y361474D01*
X1257826Y361341D01*
X1258187Y361185D01*
X1258528Y361004D01*
X1258848Y360800D01*
X1259146Y360572D01*
X1259421Y360321D01*
X1259675Y360047D01*
X1259908Y359750D01*
X1260118Y359429D01*
X1260306Y359085D01*
X1260472Y358718D01*
X1258887Y358192D01*
X1258772Y358454D01*
X1258640Y358699D01*
X1258492Y358929D01*
X1258328Y359143D01*
X1258147Y359341D01*
X1257950Y359523D01*
X1257737Y359689D01*
X1257508Y359839D01*
X1257265Y359973D01*
X1257010Y360088D01*
X1256745Y360186D01*
X1256469Y360266D01*
X1256181Y360328D01*
X1255883Y360373D01*
X1255573Y360399D01*
X1255252Y360408D01*
X1254754Y360388D01*
X1254285Y360326D01*
X1253843Y360223D01*
X1253431Y360079D01*
X1253046Y359893D01*
X1252691Y359667D01*
X1252363Y359399D01*
X1252064Y359090D01*
X1251797Y358745D01*
X1251566Y358370D01*
X1251370Y357964D01*
X1251210Y357528D01*
X1251086Y357061D01*
X1250997Y356564D01*
X1250943Y356036D01*
X1250926Y355477D01*
X1250944Y354924D01*
X1251000Y354399D01*
X1251093Y353901D01*
X1251222Y353431D01*
X1251389Y352989D01*
X1251593Y352575D01*
X1251834Y352188D01*
X1252112Y351829D01*
X1252422Y351506D01*
X1252758Y351226D01*
X1253120Y350989D01*
X1253508Y350795D01*
X1253923Y350644D01*
X1254363Y350536D01*
X1254830Y350471D01*
X1255322Y350450D01*
X1255641Y350460D01*
X1255950Y350490D01*
X1256249Y350540D01*
X1256538Y350610D01*
X1256817Y350701D01*
X1257086Y350811D01*
X1257344Y350941D01*
X1257593Y351091D01*
X1257832Y351262D01*
X1258060Y351452D01*
X1258279Y351663D01*
X1258487Y351893D01*
X1258685Y352144D01*
X1258874Y352415D01*
X1259052Y352705D01*
X1259220Y353016D01*
X1260586Y352333D01*
X1260386Y351946D01*
X1260167Y351584D01*
X1259928Y351245D01*
X1259670Y350929D01*
X1259393Y350638D01*
X1259096Y350371D01*
X1258780Y350127D01*
X1258445Y349907D01*
X1258093Y349712D01*
X1257728Y349543D01*
X1257348Y349400D01*
X1256955Y349283D01*
X1256548Y349192D01*
X1256127Y349127D01*
X1255692Y349088D01*
X1255244Y349075D01*
G37*
G36*
X1270385Y349250D02*
X1262651Y349250D01*
X1262651Y350590D01*
X1265795Y350590D01*
X1265795Y360084D01*
X1263010Y358096D01*
X1263010Y359585D01*
X1265926Y361591D01*
X1267380Y361591D01*
X1267380Y350590D01*
X1270385Y350590D01*
X1270385Y349250D01*
G37*
G36*
X1246675Y349250D02*
X1245002Y349250D01*
X1245002Y361591D01*
X1246675Y361591D01*
X1246675Y349250D01*
G37*
G36*
X1115544Y653875D02*
X1115085Y653887D01*
X1114642Y653923D01*
X1114215Y653984D01*
X1113804Y654069D01*
X1113408Y654178D01*
X1113029Y654311D01*
X1112664Y654468D01*
X1112316Y654650D01*
X1111986Y654854D01*
X1111676Y655079D01*
X1111386Y655325D01*
X1111116Y655592D01*
X1110867Y655879D01*
X1110638Y656187D01*
X1110429Y656516D01*
X1110240Y656866D01*
X1110073Y657234D01*
X1109928Y657619D01*
X1109805Y658021D01*
X1109705Y658439D01*
X1109627Y658874D01*
X1109571Y659325D01*
X1109538Y659793D01*
X1109527Y660277D01*
X1109533Y660641D01*
X1109551Y660995D01*
X1109583Y661339D01*
X1109626Y661673D01*
X1109682Y661997D01*
X1109751Y662311D01*
X1109832Y662615D01*
X1109925Y662909D01*
X1110031Y663193D01*
X1110149Y663467D01*
X1110423Y663985D01*
X1110747Y664464D01*
X1111121Y664902D01*
X1111538Y665294D01*
X1111994Y665634D01*
X1112237Y665784D01*
X1112489Y665921D01*
X1112750Y666045D01*
X1113021Y666156D01*
X1113302Y666255D01*
X1113592Y666339D01*
X1113892Y666411D01*
X1114201Y666470D01*
X1114520Y666516D01*
X1114849Y666549D01*
X1115187Y666568D01*
X1115535Y666575D01*
X1116017Y666563D01*
X1116480Y666527D01*
X1116922Y666466D01*
X1117344Y666382D01*
X1117745Y666274D01*
X1118126Y666141D01*
X1118487Y665985D01*
X1118828Y665804D01*
X1119148Y665600D01*
X1119446Y665372D01*
X1119721Y665121D01*
X1119975Y664847D01*
X1120208Y664550D01*
X1120418Y664229D01*
X1120606Y663885D01*
X1120772Y663518D01*
X1119187Y662992D01*
X1119072Y663254D01*
X1118940Y663499D01*
X1118792Y663729D01*
X1118628Y663943D01*
X1118447Y664141D01*
X1118250Y664323D01*
X1118037Y664489D01*
X1117808Y664639D01*
X1117565Y664773D01*
X1117310Y664888D01*
X1117045Y664986D01*
X1116769Y665066D01*
X1116481Y665128D01*
X1116183Y665173D01*
X1115873Y665199D01*
X1115552Y665208D01*
X1115054Y665188D01*
X1114585Y665126D01*
X1114143Y665023D01*
X1113731Y664879D01*
X1113346Y664693D01*
X1112991Y664467D01*
X1112663Y664199D01*
X1112364Y663890D01*
X1112097Y663545D01*
X1111866Y663170D01*
X1111670Y662764D01*
X1111510Y662328D01*
X1111386Y661861D01*
X1111297Y661364D01*
X1111243Y660836D01*
X1111226Y660277D01*
X1111244Y659724D01*
X1111300Y659199D01*
X1111393Y658701D01*
X1111522Y658231D01*
X1111689Y657789D01*
X1111893Y657375D01*
X1112134Y656988D01*
X1112412Y656629D01*
X1112722Y656306D01*
X1113058Y656026D01*
X1113420Y655789D01*
X1113808Y655595D01*
X1114223Y655444D01*
X1114663Y655336D01*
X1115130Y655271D01*
X1115622Y655250D01*
X1115941Y655260D01*
X1116250Y655290D01*
X1116549Y655340D01*
X1116838Y655410D01*
X1117117Y655501D01*
X1117386Y655611D01*
X1117644Y655741D01*
X1117893Y655891D01*
X1118132Y656062D01*
X1118360Y656252D01*
X1118579Y656463D01*
X1118787Y656693D01*
X1118985Y656944D01*
X1119174Y657215D01*
X1119352Y657505D01*
X1119520Y657816D01*
X1120886Y657133D01*
X1120686Y656746D01*
X1120467Y656384D01*
X1120228Y656045D01*
X1119970Y655729D01*
X1119693Y655438D01*
X1119396Y655171D01*
X1119080Y654927D01*
X1118745Y654707D01*
X1118393Y654512D01*
X1118028Y654343D01*
X1117648Y654200D01*
X1117255Y654083D01*
X1116848Y653992D01*
X1116427Y653927D01*
X1115992Y653888D01*
X1115544Y653875D01*
G37*
G36*
X1130658Y654050D02*
X1122487Y654050D01*
X1122487Y655162D01*
X1122722Y655660D01*
X1122982Y656127D01*
X1123267Y656564D01*
X1123577Y656971D01*
X1123903Y657354D01*
X1124237Y657718D01*
X1124580Y658063D01*
X1124930Y658390D01*
X1125636Y659002D01*
X1126336Y659568D01*
X1126998Y660111D01*
X1127593Y660654D01*
X1127860Y660929D01*
X1128100Y661210D01*
X1128313Y661498D01*
X1128499Y661793D01*
X1128651Y662100D01*
X1128759Y662428D01*
X1128824Y662775D01*
X1128845Y663141D01*
X1128836Y663388D01*
X1128808Y663621D01*
X1128761Y663839D01*
X1128696Y664043D01*
X1128613Y664233D01*
X1128510Y664409D01*
X1128389Y664571D01*
X1128250Y664718D01*
X1128093Y664849D01*
X1127923Y664963D01*
X1127738Y665059D01*
X1127538Y665138D01*
X1127324Y665200D01*
X1127095Y665243D01*
X1126852Y665270D01*
X1126594Y665278D01*
X1126348Y665270D01*
X1126113Y665244D01*
X1125889Y665201D01*
X1125676Y665142D01*
X1125474Y665065D01*
X1125283Y664971D01*
X1125103Y664859D01*
X1124935Y664731D01*
X1124780Y664587D01*
X1124642Y664430D01*
X1124521Y664258D01*
X1124417Y664073D01*
X1124329Y663874D01*
X1124259Y663661D01*
X1124205Y663434D01*
X1124168Y663194D01*
X1122557Y663343D01*
X1122615Y663703D01*
X1122701Y664045D01*
X1122815Y664368D01*
X1122958Y664672D01*
X1123130Y664957D01*
X1123329Y665223D01*
X1123557Y665470D01*
X1123813Y665699D01*
X1124093Y665904D01*
X1124393Y666082D01*
X1124712Y666233D01*
X1125049Y666356D01*
X1125407Y666452D01*
X1125783Y666520D01*
X1126179Y666561D01*
X1126594Y666575D01*
X1127047Y666561D01*
X1127473Y666520D01*
X1127872Y666451D01*
X1128244Y666355D01*
X1128589Y666231D01*
X1128907Y666080D01*
X1129198Y665901D01*
X1129463Y665694D01*
X1129698Y665463D01*
X1129901Y665208D01*
X1130074Y664930D01*
X1130215Y664629D01*
X1130325Y664305D01*
X1130403Y663958D01*
X1130450Y663587D01*
X1130466Y663194D01*
X1130445Y662835D01*
X1130383Y662478D01*
X1130281Y662122D01*
X1130137Y661766D01*
X1129953Y661412D01*
X1129729Y661057D01*
X1129465Y660702D01*
X1129161Y660347D01*
X1128763Y659944D01*
X1128217Y659443D01*
X1127523Y658845D01*
X1126682Y658149D01*
X1126204Y657747D01*
X1125778Y657366D01*
X1125403Y657005D01*
X1125079Y656664D01*
X1124802Y656337D01*
X1124567Y656015D01*
X1124373Y655700D01*
X1124221Y655390D01*
X1130658Y655390D01*
X1130658Y654050D01*
G37*
G36*
X1106975Y654050D02*
X1105302Y654050D01*
X1105302Y666391D01*
X1106975Y666391D01*
X1106975Y654050D01*
G37*
G36*
X1440390Y444696D02*
X1439050Y444696D01*
X1439050Y447841D01*
X1429556Y447841D01*
X1431544Y445055D01*
X1430055Y445055D01*
X1428049Y447972D01*
X1428049Y449426D01*
X1439050Y449426D01*
X1439050Y452430D01*
X1440390Y452430D01*
X1440390Y444696D01*
G37*
G36*
X1437325Y434642D02*
X1437053Y436279D01*
X1437300Y436325D01*
X1437533Y436383D01*
X1437752Y436453D01*
X1437957Y436536D01*
X1438149Y436630D01*
X1438326Y436738D01*
X1438489Y436857D01*
X1438638Y436989D01*
X1438772Y437131D01*
X1438887Y437282D01*
X1438985Y437442D01*
X1439065Y437611D01*
X1439128Y437788D01*
X1439172Y437974D01*
X1439199Y438169D01*
X1439208Y438373D01*
X1439198Y438594D01*
X1439168Y438804D01*
X1439120Y439002D01*
X1439051Y439187D01*
X1438963Y439361D01*
X1438855Y439522D01*
X1438728Y439672D01*
X1438581Y439809D01*
X1438416Y439932D01*
X1438232Y440039D01*
X1438030Y440129D01*
X1437810Y440203D01*
X1437571Y440261D01*
X1437314Y440302D01*
X1437040Y440326D01*
X1436746Y440335D01*
X1429416Y440335D01*
X1429416Y437961D01*
X1428049Y437961D01*
X1428049Y441999D01*
X1436711Y441999D01*
X1437148Y441984D01*
X1437561Y441938D01*
X1437950Y441862D01*
X1438315Y441756D01*
X1438656Y441619D01*
X1438974Y441452D01*
X1439267Y441254D01*
X1439536Y441027D01*
X1439777Y440772D01*
X1439986Y440496D01*
X1440163Y440196D01*
X1440308Y439875D01*
X1440420Y439531D01*
X1440501Y439164D01*
X1440549Y438775D01*
X1440565Y438364D01*
X1440553Y437982D01*
X1440515Y437620D01*
X1440451Y437278D01*
X1440363Y436955D01*
X1440249Y436653D01*
X1440109Y436371D01*
X1439945Y436108D01*
X1439755Y435866D01*
X1439540Y435643D01*
X1439299Y435440D01*
X1439033Y435257D01*
X1438742Y435094D01*
X1438426Y434951D01*
X1438084Y434828D01*
X1437717Y434725D01*
X1437325Y434642D01*
G37*
G36*
X1440390Y304532D02*
X1439278Y304532D01*
X1438780Y304768D01*
X1438313Y305028D01*
X1437876Y305313D01*
X1437469Y305623D01*
X1437086Y305949D01*
X1436722Y306283D01*
X1436377Y306625D01*
X1436050Y306976D01*
X1435438Y307682D01*
X1434872Y308382D01*
X1434329Y309044D01*
X1433786Y309638D01*
X1433511Y309905D01*
X1433230Y310145D01*
X1432942Y310358D01*
X1432647Y310545D01*
X1432340Y310696D01*
X1432012Y310804D01*
X1431665Y310869D01*
X1431299Y310891D01*
X1431052Y310882D01*
X1430819Y310854D01*
X1430601Y310807D01*
X1430397Y310742D01*
X1430207Y310658D01*
X1430031Y310556D01*
X1429869Y310435D01*
X1429722Y310295D01*
X1429591Y310139D01*
X1429477Y309968D01*
X1429381Y309783D01*
X1429302Y309584D01*
X1429240Y309369D01*
X1429197Y309141D01*
X1429170Y308898D01*
X1429162Y308640D01*
X1429170Y308394D01*
X1429196Y308158D01*
X1429239Y307934D01*
X1429298Y307721D01*
X1429375Y307519D01*
X1429469Y307329D01*
X1429581Y307149D01*
X1429709Y306980D01*
X1429853Y306825D01*
X1430010Y306688D01*
X1430182Y306567D01*
X1430367Y306462D01*
X1430566Y306375D01*
X1430779Y306304D01*
X1431006Y306251D01*
X1431246Y306214D01*
X1431097Y304602D01*
X1430737Y304660D01*
X1430395Y304746D01*
X1430072Y304861D01*
X1429768Y305004D01*
X1429483Y305175D01*
X1429217Y305375D01*
X1428970Y305603D01*
X1428741Y305859D01*
X1428536Y306139D01*
X1428358Y306438D01*
X1428207Y306757D01*
X1428084Y307095D01*
X1427988Y307452D01*
X1427920Y307829D01*
X1427879Y308225D01*
X1427865Y308640D01*
X1427879Y309093D01*
X1427920Y309519D01*
X1427989Y309918D01*
X1428085Y310290D01*
X1428209Y310635D01*
X1428360Y310953D01*
X1428539Y311244D01*
X1428746Y311508D01*
X1428977Y311743D01*
X1429232Y311947D01*
X1429510Y312119D01*
X1429811Y312260D01*
X1430135Y312370D01*
X1430482Y312448D01*
X1430853Y312495D01*
X1431246Y312511D01*
X1431605Y312491D01*
X1431962Y312429D01*
X1432318Y312326D01*
X1432674Y312183D01*
X1433028Y311999D01*
X1433383Y311774D01*
X1433738Y311510D01*
X1434093Y311206D01*
X1434496Y310808D01*
X1434997Y310262D01*
X1435595Y309569D01*
X1436291Y308727D01*
X1436693Y308250D01*
X1437074Y307823D01*
X1437435Y307448D01*
X1437776Y307125D01*
X1438103Y306848D01*
X1438425Y306612D01*
X1438740Y306419D01*
X1439050Y306266D01*
X1439050Y312704D01*
X1440390Y312704D01*
X1440390Y304532D01*
G37*
G36*
X1437325Y294942D02*
X1437053Y296579D01*
X1437300Y296625D01*
X1437533Y296683D01*
X1437752Y296753D01*
X1437957Y296836D01*
X1438149Y296930D01*
X1438326Y297038D01*
X1438489Y297157D01*
X1438638Y297289D01*
X1438772Y297431D01*
X1438887Y297582D01*
X1438985Y297742D01*
X1439065Y297911D01*
X1439128Y298088D01*
X1439172Y298274D01*
X1439199Y298469D01*
X1439208Y298673D01*
X1439198Y298894D01*
X1439168Y299104D01*
X1439120Y299302D01*
X1439051Y299487D01*
X1438963Y299661D01*
X1438855Y299822D01*
X1438728Y299972D01*
X1438581Y300109D01*
X1438416Y300232D01*
X1438232Y300339D01*
X1438030Y300429D01*
X1437810Y300503D01*
X1437571Y300561D01*
X1437314Y300602D01*
X1437040Y300626D01*
X1436746Y300635D01*
X1429416Y300635D01*
X1429416Y298261D01*
X1428049Y298261D01*
X1428049Y302299D01*
X1436711Y302299D01*
X1437148Y302284D01*
X1437561Y302238D01*
X1437950Y302162D01*
X1438315Y302056D01*
X1438656Y301919D01*
X1438974Y301752D01*
X1439267Y301554D01*
X1439536Y301327D01*
X1439777Y301072D01*
X1439986Y300796D01*
X1440163Y300496D01*
X1440308Y300175D01*
X1440420Y299831D01*
X1440501Y299464D01*
X1440549Y299075D01*
X1440565Y298664D01*
X1440553Y298282D01*
X1440515Y297920D01*
X1440451Y297578D01*
X1440363Y297255D01*
X1440249Y296953D01*
X1440109Y296671D01*
X1439945Y296408D01*
X1439755Y296166D01*
X1439540Y295943D01*
X1439299Y295740D01*
X1439033Y295557D01*
X1438742Y295394D01*
X1438426Y295251D01*
X1438084Y295128D01*
X1437717Y295025D01*
X1437325Y294942D01*
G37*
G36*
X1437219Y164613D02*
X1437071Y166242D01*
X1437336Y166290D01*
X1437584Y166353D01*
X1437815Y166433D01*
X1438029Y166529D01*
X1438225Y166640D01*
X1438405Y166768D01*
X1438567Y166912D01*
X1438713Y167072D01*
X1438841Y167248D01*
X1438952Y167440D01*
X1439046Y167649D01*
X1439123Y167873D01*
X1439183Y168113D01*
X1439226Y168370D01*
X1439252Y168642D01*
X1439260Y168931D01*
X1439251Y169221D01*
X1439224Y169495D01*
X1439178Y169752D01*
X1439113Y169994D01*
X1439031Y170220D01*
X1438930Y170430D01*
X1438811Y170623D01*
X1438673Y170801D01*
X1438518Y170960D01*
X1438344Y171098D01*
X1438153Y171215D01*
X1437944Y171310D01*
X1437717Y171384D01*
X1437473Y171437D01*
X1437211Y171469D01*
X1436930Y171480D01*
X1436686Y171468D01*
X1436454Y171431D01*
X1436237Y171371D01*
X1436034Y171286D01*
X1435844Y171177D01*
X1435668Y171044D01*
X1435506Y170886D01*
X1435358Y170705D01*
X1435226Y170500D01*
X1435111Y170274D01*
X1435014Y170027D01*
X1434935Y169758D01*
X1434873Y169467D01*
X1434829Y169155D01*
X1434802Y168822D01*
X1434793Y168467D01*
X1434793Y167574D01*
X1433427Y167574D01*
X1433427Y168432D01*
X1433418Y168747D01*
X1433392Y169044D01*
X1433348Y169322D01*
X1433286Y169583D01*
X1433206Y169825D01*
X1433109Y170049D01*
X1432994Y170254D01*
X1432862Y170442D01*
X1432714Y170609D01*
X1432553Y170754D01*
X1432377Y170877D01*
X1432189Y170977D01*
X1431987Y171055D01*
X1431771Y171111D01*
X1431542Y171145D01*
X1431299Y171156D01*
X1431058Y171147D01*
X1430830Y171119D01*
X1430615Y171074D01*
X1430413Y171010D01*
X1430224Y170928D01*
X1430048Y170828D01*
X1429885Y170710D01*
X1429735Y170573D01*
X1429601Y170419D01*
X1429484Y170247D01*
X1429386Y170057D01*
X1429305Y169850D01*
X1429242Y169625D01*
X1429197Y169382D01*
X1429171Y169122D01*
X1429162Y168844D01*
X1429170Y168589D01*
X1429195Y168347D01*
X1429237Y168118D01*
X1429295Y167901D01*
X1429370Y167696D01*
X1429462Y167504D01*
X1429571Y167325D01*
X1429696Y167158D01*
X1429836Y167005D01*
X1429990Y166869D01*
X1430158Y166750D01*
X1430340Y166648D01*
X1430535Y166563D01*
X1430744Y166495D01*
X1430966Y166443D01*
X1431202Y166409D01*
X1431080Y164823D01*
X1430711Y164881D01*
X1430364Y164968D01*
X1430037Y165082D01*
X1429731Y165225D01*
X1429446Y165396D01*
X1429181Y165596D01*
X1428938Y165824D01*
X1428715Y166080D01*
X1428516Y166360D01*
X1428343Y166660D01*
X1428197Y166978D01*
X1428078Y167316D01*
X1427985Y167674D01*
X1427918Y168050D01*
X1427879Y168446D01*
X1427865Y168861D01*
X1427879Y169312D01*
X1427919Y169738D01*
X1427987Y170137D01*
X1428081Y170511D01*
X1428202Y170859D01*
X1428351Y171181D01*
X1428526Y171477D01*
X1428728Y171747D01*
X1428954Y171988D01*
X1429202Y172197D01*
X1429471Y172374D01*
X1429760Y172519D01*
X1430072Y172631D01*
X1430404Y172712D01*
X1430757Y172760D01*
X1431132Y172776D01*
X1431421Y172766D01*
X1431696Y172735D01*
X1431957Y172683D01*
X1432204Y172611D01*
X1432437Y172518D01*
X1432657Y172404D01*
X1432863Y172270D01*
X1433055Y172115D01*
X1433232Y171940D01*
X1433395Y171747D01*
X1433543Y171535D01*
X1433676Y171304D01*
X1433793Y171054D01*
X1433896Y170785D01*
X1433984Y170498D01*
X1434058Y170192D01*
X1434093Y170192D01*
X1434140Y170529D01*
X1434206Y170846D01*
X1434293Y171144D01*
X1434399Y171423D01*
X1434525Y171683D01*
X1434671Y171923D01*
X1434836Y172145D01*
X1435021Y172347D01*
X1435222Y172528D01*
X1435436Y172684D01*
X1435662Y172817D01*
X1435901Y172925D01*
X1436153Y173009D01*
X1436417Y173070D01*
X1436694Y173106D01*
X1436983Y173118D01*
X1437398Y173101D01*
X1437789Y173050D01*
X1438156Y172965D01*
X1438498Y172846D01*
X1438817Y172693D01*
X1439111Y172507D01*
X1439382Y172286D01*
X1439628Y172032D01*
X1439848Y171746D01*
X1440038Y171431D01*
X1440199Y171087D01*
X1440331Y170713D01*
X1440433Y170311D01*
X1440507Y169880D01*
X1440551Y169420D01*
X1440565Y168931D01*
X1440552Y168474D01*
X1440512Y168041D01*
X1440446Y167632D01*
X1440354Y167246D01*
X1440235Y166884D01*
X1440090Y166546D01*
X1439918Y166231D01*
X1439720Y165940D01*
X1439496Y165675D01*
X1439247Y165438D01*
X1438972Y165230D01*
X1438672Y165050D01*
X1438347Y164898D01*
X1437996Y164775D01*
X1437621Y164680D01*
X1437219Y164613D01*
G37*
G36*
X1437325Y155242D02*
X1437053Y156879D01*
X1437300Y156925D01*
X1437533Y156983D01*
X1437752Y157053D01*
X1437957Y157136D01*
X1438149Y157230D01*
X1438326Y157338D01*
X1438489Y157457D01*
X1438638Y157589D01*
X1438772Y157731D01*
X1438887Y157882D01*
X1438985Y158042D01*
X1439065Y158211D01*
X1439128Y158388D01*
X1439172Y158574D01*
X1439199Y158769D01*
X1439208Y158973D01*
X1439198Y159194D01*
X1439168Y159404D01*
X1439120Y159602D01*
X1439051Y159787D01*
X1438963Y159961D01*
X1438855Y160122D01*
X1438728Y160272D01*
X1438581Y160409D01*
X1438416Y160532D01*
X1438232Y160639D01*
X1438030Y160729D01*
X1437810Y160803D01*
X1437571Y160861D01*
X1437314Y160902D01*
X1437040Y160926D01*
X1436746Y160935D01*
X1429416Y160935D01*
X1429416Y158561D01*
X1428049Y158561D01*
X1428049Y162599D01*
X1436711Y162599D01*
X1437148Y162584D01*
X1437561Y162538D01*
X1437950Y162462D01*
X1438315Y162356D01*
X1438656Y162219D01*
X1438974Y162052D01*
X1439267Y161854D01*
X1439536Y161627D01*
X1439777Y161372D01*
X1439986Y161096D01*
X1440163Y160796D01*
X1440308Y160475D01*
X1440420Y160131D01*
X1440501Y159764D01*
X1440549Y159375D01*
X1440565Y158964D01*
X1440553Y158582D01*
X1440515Y158220D01*
X1440451Y157878D01*
X1440363Y157555D01*
X1440249Y157253D01*
X1440109Y156971D01*
X1439945Y156708D01*
X1439755Y156466D01*
X1439540Y156243D01*
X1439299Y156040D01*
X1439033Y155857D01*
X1438742Y155694D01*
X1438426Y155551D01*
X1438084Y155428D01*
X1437717Y155325D01*
X1437325Y155242D01*
G37*
G36*
X651256Y76112D02*
X650030Y76112D01*
X641709Y81761D01*
X641709Y83416D01*
X650012Y83416D01*
X650012Y85150D01*
X651256Y85150D01*
X651256Y83416D01*
X654050Y83416D01*
X654050Y81927D01*
X651256Y81927D01*
X651256Y76112D01*
G37*
%LPC*%
G36*
X650012Y77566D02*
X650012Y81927D01*
X643487Y81927D01*
X643951Y81682D01*
X644529Y81341D01*
X649189Y78179D01*
X649837Y77706D01*
X650012Y77566D01*
G37*
%LPD*%
G36*
X650985Y67012D02*
X650713Y68649D01*
X650960Y68695D01*
X651193Y68753D01*
X651412Y68823D01*
X651617Y68906D01*
X651809Y69000D01*
X651986Y69108D01*
X652149Y69227D01*
X652298Y69359D01*
X652432Y69501D01*
X652547Y69652D01*
X652645Y69812D01*
X652725Y69981D01*
X652788Y70158D01*
X652832Y70344D01*
X652859Y70539D01*
X652868Y70743D01*
X652858Y70964D01*
X652828Y71174D01*
X652780Y71372D01*
X652711Y71557D01*
X652623Y71731D01*
X652515Y71892D01*
X652388Y72042D01*
X652241Y72179D01*
X652076Y72302D01*
X651892Y72409D01*
X651690Y72499D01*
X651470Y72573D01*
X651231Y72631D01*
X650974Y72672D01*
X650700Y72696D01*
X650406Y72705D01*
X643076Y72705D01*
X643076Y70331D01*
X641709Y70331D01*
X641709Y74369D01*
X650371Y74369D01*
X650808Y74354D01*
X651221Y74308D01*
X651610Y74232D01*
X651975Y74126D01*
X652316Y73989D01*
X652634Y73822D01*
X652927Y73624D01*
X653196Y73397D01*
X653437Y73142D01*
X653646Y72866D01*
X653823Y72566D01*
X653968Y72245D01*
X654080Y71901D01*
X654161Y71534D01*
X654209Y71145D01*
X654225Y70734D01*
X654213Y70352D01*
X654175Y69990D01*
X654111Y69648D01*
X654023Y69325D01*
X653909Y69023D01*
X653769Y68741D01*
X653605Y68478D01*
X653415Y68236D01*
X653200Y68013D01*
X652959Y67810D01*
X652693Y67627D01*
X652402Y67464D01*
X652086Y67321D01*
X651744Y67198D01*
X651377Y67095D01*
X650985Y67012D01*
G37*
G36*
X1339850Y814166D02*
X1338510Y814166D01*
X1338510Y817311D01*
X1329016Y817311D01*
X1331004Y814525D01*
X1329515Y814525D01*
X1327509Y817442D01*
X1327509Y818896D01*
X1338510Y818896D01*
X1338510Y821900D01*
X1339850Y821900D01*
X1339850Y814166D01*
G37*
G36*
X1339850Y804303D02*
X1327509Y804303D01*
X1327509Y805976D01*
X1338484Y805976D01*
X1338484Y812212D01*
X1339850Y812212D01*
X1339850Y804303D01*
G37*
G36*
X570191Y787750D02*
X568518Y787750D01*
X568518Y800091D01*
X573712Y800091D01*
X574216Y800076D01*
X574691Y800030D01*
X575137Y799954D01*
X575554Y799848D01*
X575941Y799711D01*
X576299Y799544D01*
X576627Y799346D01*
X576927Y799119D01*
X577193Y798863D01*
X577425Y798583D01*
X577620Y798277D01*
X577780Y797947D01*
X577905Y797592D01*
X577994Y797212D01*
X578047Y796807D01*
X578065Y796377D01*
X578047Y795950D01*
X577994Y795546D01*
X577904Y795164D01*
X577779Y794805D01*
X577619Y794468D01*
X577422Y794154D01*
X577190Y793862D01*
X576922Y793592D01*
X576624Y793350D01*
X576299Y793140D01*
X575950Y792962D01*
X575574Y792817D01*
X575174Y792704D01*
X574747Y792623D01*
X574295Y792575D01*
X573817Y792558D01*
X570191Y792558D01*
X570191Y787750D01*
G37*
%LPC*%
G36*
X573581Y793881D02*
X573920Y793891D01*
X574238Y793920D01*
X574533Y793968D01*
X574807Y794036D01*
X575059Y794123D01*
X575289Y794230D01*
X575497Y794355D01*
X575683Y794501D01*
X575847Y794665D01*
X575989Y794849D01*
X576110Y795053D01*
X576208Y795275D01*
X576285Y795517D01*
X576340Y795779D01*
X576373Y796059D01*
X576383Y796360D01*
X576372Y796649D01*
X576339Y796920D01*
X576282Y797172D01*
X576204Y797406D01*
X576103Y797621D01*
X575979Y797817D01*
X575834Y797994D01*
X575665Y798153D01*
X575475Y798293D01*
X575261Y798414D01*
X575026Y798517D01*
X574768Y798601D01*
X574487Y798667D01*
X574184Y798713D01*
X573859Y798741D01*
X573511Y798751D01*
X570191Y798751D01*
X570191Y793881D01*
X573581Y793881D01*
G37*
%LPD*%
G36*
X585059Y787575D02*
X584510Y787587D01*
X583991Y787624D01*
X583501Y787685D01*
X583041Y787771D01*
X582610Y787881D01*
X582209Y788016D01*
X581838Y788175D01*
X581496Y788359D01*
X581184Y788567D01*
X580902Y788800D01*
X580649Y789057D01*
X580426Y789339D01*
X580233Y789645D01*
X580069Y789975D01*
X579935Y790331D01*
X579830Y790710D01*
X581451Y791034D01*
X581530Y790766D01*
X581630Y790515D01*
X581749Y790283D01*
X581888Y790070D01*
X582047Y789875D01*
X582226Y789699D01*
X582424Y789541D01*
X582642Y789401D01*
X582880Y789279D01*
X583138Y789173D01*
X583417Y789083D01*
X583717Y789010D01*
X584037Y788953D01*
X584377Y788912D01*
X584739Y788888D01*
X585120Y788880D01*
X585514Y788889D01*
X585884Y788915D01*
X586232Y788958D01*
X586556Y789019D01*
X586857Y789097D01*
X587135Y789193D01*
X587389Y789306D01*
X587621Y789436D01*
X587827Y789583D01*
X588006Y789747D01*
X588157Y789926D01*
X588281Y790122D01*
X588377Y790335D01*
X588446Y790563D01*
X588487Y790808D01*
X588501Y791069D01*
X588484Y791357D01*
X588432Y791617D01*
X588346Y791848D01*
X588225Y792050D01*
X588073Y792231D01*
X587894Y792394D01*
X587686Y792541D01*
X587450Y792672D01*
X587188Y792790D01*
X586903Y792898D01*
X586593Y792996D01*
X586259Y793084D01*
X584726Y793443D01*
X584039Y793605D01*
X583440Y793767D01*
X582929Y793929D01*
X582506Y794091D01*
X582147Y794258D01*
X581828Y794434D01*
X581549Y794619D01*
X581310Y794814D01*
X581104Y795022D01*
X580924Y795246D01*
X580769Y795488D01*
X580640Y795747D01*
X580539Y796024D01*
X580466Y796320D01*
X580423Y796637D01*
X580408Y796973D01*
X580427Y797358D01*
X580484Y797720D01*
X580579Y798059D01*
X580711Y798376D01*
X580882Y798670D01*
X581091Y798942D01*
X581337Y799190D01*
X581621Y799416D01*
X581941Y799618D01*
X582293Y799792D01*
X582678Y799939D01*
X583096Y800060D01*
X583546Y800154D01*
X584030Y800221D01*
X584545Y800261D01*
X585094Y800275D01*
X585604Y800265D01*
X586083Y800234D01*
X586531Y800184D01*
X586949Y800114D01*
X587335Y800023D01*
X587690Y799913D01*
X588015Y799782D01*
X588308Y799631D01*
X588576Y799456D01*
X588823Y799252D01*
X589049Y799021D01*
X589254Y798761D01*
X589439Y798472D01*
X589603Y798155D01*
X589745Y797810D01*
X589867Y797437D01*
X588221Y797148D01*
X588145Y797385D01*
X588054Y797605D01*
X587948Y797808D01*
X587827Y797994D01*
X587690Y798164D01*
X587538Y798316D01*
X587370Y798452D01*
X587187Y798571D01*
X586988Y798675D01*
X586770Y798765D01*
X586533Y798841D01*
X586279Y798903D01*
X586006Y798951D01*
X585714Y798986D01*
X585405Y799007D01*
X585077Y799013D01*
X584717Y799006D01*
X584380Y798983D01*
X584065Y798945D01*
X583772Y798891D01*
X583500Y798822D01*
X583250Y798738D01*
X583023Y798638D01*
X582817Y798523D01*
X582634Y798393D01*
X582476Y798248D01*
X582342Y798087D01*
X582232Y797912D01*
X582147Y797722D01*
X582086Y797516D01*
X582050Y797296D01*
X582037Y797060D01*
X582056Y796788D01*
X582113Y796540D01*
X582207Y796317D01*
X582339Y796119D01*
X582507Y795940D01*
X582708Y795775D01*
X582943Y795624D01*
X583211Y795488D01*
X583566Y795352D01*
X584063Y795200D01*
X584700Y795034D01*
X585479Y794853D01*
X586614Y794586D01*
X587167Y794437D01*
X587695Y794262D01*
X588196Y794057D01*
X588663Y793820D01*
X588881Y793686D01*
X589085Y793537D01*
X589273Y793375D01*
X589447Y793198D01*
X589604Y793006D01*
X589744Y792797D01*
X589865Y792572D01*
X589968Y792331D01*
X590051Y792070D01*
X590109Y791788D01*
X590145Y791483D01*
X590156Y791157D01*
X590136Y790742D01*
X590073Y790351D01*
X589969Y789985D01*
X589823Y789642D01*
X589635Y789323D01*
X589405Y789029D01*
X589134Y788758D01*
X588821Y788512D01*
X588470Y788292D01*
X588085Y788102D01*
X587666Y787941D01*
X587213Y787809D01*
X586725Y787707D01*
X586204Y787633D01*
X585649Y787590D01*
X585059Y787575D01*
G37*
G36*
X600085Y787750D02*
X592351Y787750D01*
X592351Y789090D01*
X595495Y789090D01*
X595495Y798584D01*
X592710Y796596D01*
X592710Y798085D01*
X595626Y800091D01*
X597080Y800091D01*
X597080Y789090D01*
X600085Y789090D01*
X600085Y787750D01*
G37*
G36*
X1238250Y675803D02*
X1225909Y675803D01*
X1225909Y681610D01*
X1225924Y682116D01*
X1225968Y682592D01*
X1226040Y683039D01*
X1226142Y683457D01*
X1226274Y683844D01*
X1226434Y684202D01*
X1226623Y684530D01*
X1226842Y684828D01*
X1227087Y685094D01*
X1227354Y685325D01*
X1227644Y685520D01*
X1227958Y685679D01*
X1228294Y685803D01*
X1228653Y685892D01*
X1229034Y685945D01*
X1229439Y685963D01*
X1229776Y685950D01*
X1230099Y685913D01*
X1230409Y685850D01*
X1230705Y685762D01*
X1230987Y685650D01*
X1231255Y685512D01*
X1231510Y685349D01*
X1231751Y685161D01*
X1231975Y684951D01*
X1232177Y684722D01*
X1232357Y684475D01*
X1232423Y684364D01*
X1232515Y684208D01*
X1232652Y683922D01*
X1232768Y683617D01*
X1232861Y683293D01*
X1232934Y682950D01*
X1235197Y684441D01*
X1238250Y686453D01*
X1238250Y684526D01*
X1233126Y681321D01*
X1233126Y677476D01*
X1238250Y677476D01*
X1238250Y675803D01*
G37*
%LPC*%
G36*
X1231804Y677476D02*
X1231804Y681513D01*
X1231794Y681835D01*
X1231765Y682137D01*
X1231717Y682421D01*
X1231649Y682686D01*
X1231563Y682932D01*
X1231456Y683160D01*
X1231331Y683368D01*
X1231186Y683558D01*
X1231024Y683728D01*
X1230847Y683875D01*
X1230654Y683999D01*
X1230445Y684100D01*
X1230221Y684179D01*
X1229982Y684236D01*
X1229727Y684270D01*
X1229456Y684281D01*
X1229195Y684270D01*
X1228950Y684235D01*
X1228721Y684178D01*
X1228507Y684098D01*
X1228310Y683995D01*
X1228129Y683870D01*
X1227963Y683721D01*
X1227814Y683550D01*
X1227682Y683357D01*
X1227567Y683144D01*
X1227470Y682911D01*
X1227391Y682657D01*
X1227329Y682384D01*
X1227285Y682090D01*
X1227258Y681777D01*
X1227249Y681443D01*
X1227249Y677476D01*
X1231804Y677476D01*
G37*
%LPD*%
G36*
X1238250Y688666D02*
X1236910Y688666D01*
X1236910Y691811D01*
X1227416Y691811D01*
X1229404Y689025D01*
X1227915Y689025D01*
X1225909Y691942D01*
X1225909Y693396D01*
X1236910Y693396D01*
X1236910Y696400D01*
X1238250Y696400D01*
X1238250Y688666D01*
G37*
G36*
X1238250Y637703D02*
X1225909Y637703D01*
X1225909Y643510D01*
X1225924Y644016D01*
X1225968Y644492D01*
X1226040Y644939D01*
X1226142Y645357D01*
X1226274Y645744D01*
X1226434Y646102D01*
X1226623Y646430D01*
X1226842Y646728D01*
X1227087Y646994D01*
X1227354Y647225D01*
X1227644Y647420D01*
X1227958Y647579D01*
X1228294Y647703D01*
X1228653Y647792D01*
X1229034Y647845D01*
X1229439Y647863D01*
X1229776Y647850D01*
X1230099Y647813D01*
X1230409Y647750D01*
X1230705Y647662D01*
X1230987Y647550D01*
X1231255Y647412D01*
X1231510Y647249D01*
X1231751Y647061D01*
X1231975Y646851D01*
X1232177Y646622D01*
X1232357Y646375D01*
X1232423Y646264D01*
X1232515Y646108D01*
X1232652Y645822D01*
X1232768Y645517D01*
X1232861Y645193D01*
X1232934Y644850D01*
X1235197Y646341D01*
X1238250Y648353D01*
X1238250Y646426D01*
X1233126Y643221D01*
X1233126Y639376D01*
X1238250Y639376D01*
X1238250Y637703D01*
G37*
%LPC*%
G36*
X1231804Y639376D02*
X1231804Y643413D01*
X1231794Y643735D01*
X1231765Y644037D01*
X1231717Y644321D01*
X1231649Y644586D01*
X1231563Y644832D01*
X1231456Y645060D01*
X1231331Y645268D01*
X1231186Y645458D01*
X1231024Y645628D01*
X1230847Y645775D01*
X1230654Y645899D01*
X1230445Y646000D01*
X1230221Y646079D01*
X1229982Y646136D01*
X1229727Y646170D01*
X1229456Y646181D01*
X1229195Y646170D01*
X1228950Y646135D01*
X1228721Y646078D01*
X1228507Y645998D01*
X1228310Y645895D01*
X1228129Y645770D01*
X1227963Y645621D01*
X1227814Y645450D01*
X1227682Y645257D01*
X1227567Y645044D01*
X1227470Y644811D01*
X1227391Y644557D01*
X1227329Y644284D01*
X1227285Y643990D01*
X1227258Y643677D01*
X1227249Y643343D01*
X1227249Y639376D01*
X1231804Y639376D01*
G37*
%LPD*%
G36*
X1238250Y650102D02*
X1237138Y650102D01*
X1236640Y650338D01*
X1236173Y650598D01*
X1235736Y650883D01*
X1235329Y651193D01*
X1234946Y651519D01*
X1234582Y651853D01*
X1234237Y652195D01*
X1233910Y652546D01*
X1233298Y653252D01*
X1232732Y653952D01*
X1232189Y654614D01*
X1231646Y655208D01*
X1231371Y655475D01*
X1231090Y655715D01*
X1230802Y655928D01*
X1230507Y656115D01*
X1230200Y656266D01*
X1229872Y656374D01*
X1229525Y656439D01*
X1229159Y656461D01*
X1228912Y656452D01*
X1228679Y656424D01*
X1228461Y656377D01*
X1228257Y656312D01*
X1228067Y656228D01*
X1227891Y656126D01*
X1227729Y656005D01*
X1227582Y655865D01*
X1227451Y655709D01*
X1227337Y655538D01*
X1227241Y655353D01*
X1227162Y655154D01*
X1227100Y654939D01*
X1227057Y654711D01*
X1227030Y654468D01*
X1227022Y654210D01*
X1227030Y653964D01*
X1227056Y653728D01*
X1227099Y653504D01*
X1227158Y653291D01*
X1227235Y653089D01*
X1227329Y652899D01*
X1227441Y652719D01*
X1227569Y652550D01*
X1227713Y652395D01*
X1227870Y652258D01*
X1228042Y652137D01*
X1228227Y652032D01*
X1228426Y651945D01*
X1228639Y651874D01*
X1228866Y651821D01*
X1229106Y651784D01*
X1228957Y650172D01*
X1228597Y650230D01*
X1228255Y650316D01*
X1227932Y650431D01*
X1227628Y650574D01*
X1227343Y650745D01*
X1227077Y650945D01*
X1226830Y651173D01*
X1226601Y651429D01*
X1226396Y651709D01*
X1226218Y652008D01*
X1226067Y652327D01*
X1225944Y652665D01*
X1225848Y653022D01*
X1225780Y653399D01*
X1225739Y653795D01*
X1225725Y654210D01*
X1225739Y654663D01*
X1225780Y655089D01*
X1225849Y655488D01*
X1225945Y655860D01*
X1226069Y656205D01*
X1226220Y656523D01*
X1226399Y656814D01*
X1226606Y657078D01*
X1226837Y657313D01*
X1227092Y657517D01*
X1227370Y657689D01*
X1227671Y657830D01*
X1227995Y657940D01*
X1228342Y658018D01*
X1228713Y658065D01*
X1229106Y658081D01*
X1229465Y658061D01*
X1229822Y657999D01*
X1230178Y657896D01*
X1230534Y657753D01*
X1230888Y657569D01*
X1231243Y657344D01*
X1231598Y657080D01*
X1231953Y656776D01*
X1232356Y656378D01*
X1232857Y655832D01*
X1233455Y655139D01*
X1234151Y654297D01*
X1234553Y653820D01*
X1234934Y653393D01*
X1235295Y653018D01*
X1235636Y652695D01*
X1235963Y652418D01*
X1236285Y652182D01*
X1236600Y651989D01*
X1236910Y651836D01*
X1236910Y658274D01*
X1238250Y658274D01*
X1238250Y650102D01*
G37*
G36*
X1162050Y650403D02*
X1149709Y650403D01*
X1149709Y656210D01*
X1149724Y656716D01*
X1149768Y657192D01*
X1149840Y657639D01*
X1149942Y658057D01*
X1150074Y658444D01*
X1150234Y658802D01*
X1150423Y659130D01*
X1150642Y659428D01*
X1150887Y659694D01*
X1151154Y659925D01*
X1151444Y660120D01*
X1151758Y660279D01*
X1152094Y660403D01*
X1152453Y660492D01*
X1152834Y660545D01*
X1153239Y660563D01*
X1153576Y660550D01*
X1153899Y660513D01*
X1154209Y660450D01*
X1154505Y660362D01*
X1154787Y660250D01*
X1155055Y660112D01*
X1155310Y659949D01*
X1155551Y659761D01*
X1155775Y659551D01*
X1155977Y659322D01*
X1156157Y659075D01*
X1156223Y658964D01*
X1156315Y658808D01*
X1156452Y658522D01*
X1156568Y658217D01*
X1156661Y657893D01*
X1156734Y657550D01*
X1158997Y659041D01*
X1162050Y661053D01*
X1162050Y659126D01*
X1156926Y655921D01*
X1156926Y652076D01*
X1162050Y652076D01*
X1162050Y650403D01*
G37*
%LPC*%
G36*
X1155604Y652076D02*
X1155604Y656113D01*
X1155594Y656435D01*
X1155565Y656737D01*
X1155517Y657021D01*
X1155449Y657286D01*
X1155363Y657532D01*
X1155256Y657760D01*
X1155131Y657968D01*
X1154986Y658158D01*
X1154824Y658328D01*
X1154647Y658475D01*
X1154454Y658599D01*
X1154245Y658700D01*
X1154021Y658779D01*
X1153782Y658836D01*
X1153527Y658870D01*
X1153256Y658881D01*
X1152995Y658870D01*
X1152750Y658835D01*
X1152521Y658778D01*
X1152307Y658698D01*
X1152110Y658595D01*
X1151929Y658470D01*
X1151763Y658321D01*
X1151614Y658150D01*
X1151482Y657957D01*
X1151367Y657744D01*
X1151270Y657511D01*
X1151191Y657257D01*
X1151129Y656984D01*
X1151085Y656690D01*
X1151058Y656377D01*
X1151049Y656043D01*
X1151049Y652076D01*
X1155604Y652076D01*
G37*
%LPD*%
G36*
X1158879Y662583D02*
X1158731Y664212D01*
X1158996Y664260D01*
X1159244Y664323D01*
X1159475Y664403D01*
X1159689Y664499D01*
X1159885Y664610D01*
X1160065Y664738D01*
X1160227Y664882D01*
X1160373Y665042D01*
X1160501Y665218D01*
X1160612Y665410D01*
X1160706Y665619D01*
X1160783Y665843D01*
X1160843Y666083D01*
X1160886Y666340D01*
X1160912Y666612D01*
X1160920Y666901D01*
X1160911Y667191D01*
X1160884Y667465D01*
X1160838Y667722D01*
X1160773Y667964D01*
X1160691Y668190D01*
X1160590Y668400D01*
X1160471Y668593D01*
X1160333Y668771D01*
X1160178Y668930D01*
X1160004Y669068D01*
X1159813Y669185D01*
X1159604Y669280D01*
X1159377Y669354D01*
X1159133Y669407D01*
X1158871Y669439D01*
X1158590Y669450D01*
X1158346Y669438D01*
X1158114Y669401D01*
X1157897Y669341D01*
X1157694Y669256D01*
X1157504Y669147D01*
X1157328Y669014D01*
X1157166Y668856D01*
X1157018Y668675D01*
X1156886Y668470D01*
X1156771Y668244D01*
X1156674Y667997D01*
X1156595Y667728D01*
X1156533Y667437D01*
X1156489Y667125D01*
X1156462Y666792D01*
X1156453Y666437D01*
X1156453Y665544D01*
X1155087Y665544D01*
X1155087Y666402D01*
X1155078Y666717D01*
X1155052Y667014D01*
X1155008Y667292D01*
X1154946Y667553D01*
X1154866Y667795D01*
X1154769Y668019D01*
X1154654Y668224D01*
X1154522Y668412D01*
X1154374Y668579D01*
X1154213Y668724D01*
X1154037Y668847D01*
X1153849Y668947D01*
X1153647Y669025D01*
X1153431Y669081D01*
X1153202Y669115D01*
X1152959Y669126D01*
X1152718Y669117D01*
X1152490Y669089D01*
X1152275Y669044D01*
X1152073Y668980D01*
X1151884Y668898D01*
X1151708Y668798D01*
X1151545Y668680D01*
X1151395Y668543D01*
X1151261Y668389D01*
X1151144Y668217D01*
X1151046Y668027D01*
X1150965Y667820D01*
X1150902Y667595D01*
X1150857Y667352D01*
X1150831Y667092D01*
X1150822Y666814D01*
X1150830Y666559D01*
X1150855Y666317D01*
X1150897Y666088D01*
X1150955Y665871D01*
X1151030Y665666D01*
X1151122Y665474D01*
X1151231Y665295D01*
X1151356Y665128D01*
X1151496Y664975D01*
X1151650Y664839D01*
X1151818Y664720D01*
X1152000Y664618D01*
X1152195Y664533D01*
X1152404Y664465D01*
X1152626Y664413D01*
X1152862Y664379D01*
X1152740Y662793D01*
X1152371Y662851D01*
X1152024Y662938D01*
X1151697Y663052D01*
X1151391Y663195D01*
X1151106Y663366D01*
X1150841Y663566D01*
X1150598Y663794D01*
X1150375Y664050D01*
X1150176Y664330D01*
X1150003Y664630D01*
X1149857Y664948D01*
X1149738Y665286D01*
X1149645Y665644D01*
X1149578Y666020D01*
X1149539Y666416D01*
X1149525Y666831D01*
X1149539Y667282D01*
X1149579Y667708D01*
X1149647Y668107D01*
X1149741Y668481D01*
X1149862Y668829D01*
X1150011Y669151D01*
X1150186Y669447D01*
X1150388Y669717D01*
X1150614Y669958D01*
X1150862Y670167D01*
X1151131Y670344D01*
X1151420Y670489D01*
X1151732Y670601D01*
X1152064Y670682D01*
X1152417Y670730D01*
X1152792Y670746D01*
X1153081Y670736D01*
X1153356Y670705D01*
X1153617Y670653D01*
X1153864Y670581D01*
X1154097Y670488D01*
X1154317Y670374D01*
X1154523Y670240D01*
X1154715Y670085D01*
X1154892Y669910D01*
X1155055Y669717D01*
X1155203Y669505D01*
X1155336Y669274D01*
X1155453Y669024D01*
X1155556Y668755D01*
X1155644Y668468D01*
X1155718Y668162D01*
X1155753Y668162D01*
X1155800Y668499D01*
X1155866Y668816D01*
X1155953Y669114D01*
X1156059Y669393D01*
X1156185Y669653D01*
X1156331Y669893D01*
X1156496Y670115D01*
X1156681Y670317D01*
X1156882Y670498D01*
X1157096Y670654D01*
X1157322Y670787D01*
X1157561Y670895D01*
X1157813Y670979D01*
X1158077Y671040D01*
X1158354Y671076D01*
X1158643Y671088D01*
X1159058Y671071D01*
X1159449Y671020D01*
X1159816Y670935D01*
X1160158Y670816D01*
X1160477Y670663D01*
X1160771Y670477D01*
X1161042Y670256D01*
X1161288Y670002D01*
X1161508Y669716D01*
X1161698Y669401D01*
X1161859Y669057D01*
X1161991Y668683D01*
X1162093Y668281D01*
X1162167Y667850D01*
X1162211Y667390D01*
X1162225Y666901D01*
X1162212Y666444D01*
X1162172Y666011D01*
X1162106Y665602D01*
X1162014Y665216D01*
X1161895Y664854D01*
X1161750Y664516D01*
X1161578Y664201D01*
X1161380Y663910D01*
X1161156Y663645D01*
X1160907Y663408D01*
X1160632Y663200D01*
X1160332Y663020D01*
X1160007Y662868D01*
X1159656Y662745D01*
X1159281Y662650D01*
X1158879Y662583D01*
G37*
G36*
X1085850Y637703D02*
X1073509Y637703D01*
X1073509Y643510D01*
X1073524Y644016D01*
X1073568Y644492D01*
X1073640Y644939D01*
X1073742Y645357D01*
X1073874Y645744D01*
X1074034Y646102D01*
X1074223Y646430D01*
X1074442Y646728D01*
X1074687Y646994D01*
X1074954Y647225D01*
X1075244Y647420D01*
X1075558Y647579D01*
X1075894Y647703D01*
X1076253Y647792D01*
X1076634Y647845D01*
X1077039Y647863D01*
X1077376Y647850D01*
X1077699Y647813D01*
X1078009Y647750D01*
X1078305Y647662D01*
X1078587Y647550D01*
X1078855Y647412D01*
X1079110Y647249D01*
X1079351Y647061D01*
X1079575Y646851D01*
X1079777Y646622D01*
X1079957Y646375D01*
X1080023Y646264D01*
X1080115Y646108D01*
X1080252Y645822D01*
X1080368Y645517D01*
X1080461Y645193D01*
X1080534Y644850D01*
X1082797Y646341D01*
X1085850Y648353D01*
X1085850Y646426D01*
X1080726Y643221D01*
X1080726Y639376D01*
X1085850Y639376D01*
X1085850Y637703D01*
G37*
%LPC*%
G36*
X1079404Y639376D02*
X1079404Y643413D01*
X1079394Y643735D01*
X1079365Y644037D01*
X1079317Y644321D01*
X1079249Y644586D01*
X1079163Y644832D01*
X1079056Y645060D01*
X1078931Y645268D01*
X1078786Y645458D01*
X1078624Y645628D01*
X1078447Y645775D01*
X1078254Y645899D01*
X1078045Y646000D01*
X1077821Y646079D01*
X1077582Y646136D01*
X1077327Y646170D01*
X1077056Y646181D01*
X1076795Y646170D01*
X1076550Y646135D01*
X1076321Y646078D01*
X1076107Y645998D01*
X1075910Y645895D01*
X1075729Y645770D01*
X1075563Y645621D01*
X1075414Y645450D01*
X1075282Y645257D01*
X1075167Y645044D01*
X1075070Y644811D01*
X1074991Y644557D01*
X1074929Y644284D01*
X1074885Y643990D01*
X1074858Y643677D01*
X1074849Y643343D01*
X1074849Y639376D01*
X1079404Y639376D01*
G37*
%LPD*%
G36*
X1083056Y649612D02*
X1081830Y649612D01*
X1073509Y655261D01*
X1073509Y656916D01*
X1081812Y656916D01*
X1081812Y658650D01*
X1083056Y658650D01*
X1083056Y656916D01*
X1085850Y656916D01*
X1085850Y655427D01*
X1083056Y655427D01*
X1083056Y649612D01*
G37*
%LPC*%
G36*
X1081812Y651066D02*
X1081812Y655427D01*
X1075287Y655427D01*
X1075751Y655182D01*
X1076329Y654841D01*
X1080989Y651679D01*
X1081637Y651206D01*
X1081812Y651066D01*
G37*
%LPD*%
G36*
X450334Y196675D02*
X449961Y196683D01*
X449600Y196709D01*
X449252Y196752D01*
X448915Y196813D01*
X448590Y196890D01*
X448278Y196985D01*
X447977Y197097D01*
X447689Y197227D01*
X447414Y197372D01*
X447155Y197534D01*
X446913Y197711D01*
X446686Y197903D01*
X446475Y198111D01*
X446280Y198335D01*
X446100Y198574D01*
X445937Y198829D01*
X445791Y199098D01*
X445665Y199380D01*
X445558Y199674D01*
X445471Y199981D01*
X445403Y200301D01*
X445354Y200633D01*
X445325Y200977D01*
X445315Y201334D01*
X445315Y209191D01*
X446988Y209191D01*
X446988Y201475D01*
X447001Y201065D01*
X447042Y200680D01*
X447109Y200321D01*
X447203Y199988D01*
X447323Y199680D01*
X447471Y199397D01*
X447645Y199140D01*
X447846Y198908D01*
X448073Y198703D01*
X448323Y198525D01*
X448597Y198375D01*
X448895Y198251D01*
X449217Y198156D01*
X449562Y198087D01*
X449932Y198046D01*
X450325Y198032D01*
X450729Y198047D01*
X451111Y198089D01*
X451469Y198160D01*
X451804Y198259D01*
X452116Y198387D01*
X452405Y198542D01*
X452671Y198726D01*
X452913Y198939D01*
X453130Y199179D01*
X453317Y199444D01*
X453476Y199736D01*
X453606Y200055D01*
X453707Y200399D01*
X453779Y200769D01*
X453823Y201166D01*
X453837Y201588D01*
X453837Y209191D01*
X455501Y209191D01*
X455501Y201492D01*
X455491Y201124D01*
X455462Y200769D01*
X455412Y200427D01*
X455343Y200097D01*
X455253Y199781D01*
X455144Y199477D01*
X455015Y199186D01*
X454866Y198908D01*
X454699Y198645D01*
X454516Y198397D01*
X454316Y198166D01*
X454100Y197950D01*
X453867Y197751D01*
X453618Y197567D01*
X453353Y197400D01*
X453071Y197249D01*
X452774Y197114D01*
X452465Y196998D01*
X452142Y196899D01*
X451806Y196818D01*
X451458Y196756D01*
X451096Y196711D01*
X450721Y196684D01*
X450334Y196675D01*
G37*
G36*
X466000Y196850D02*
X458266Y196850D01*
X458266Y198190D01*
X461411Y198190D01*
X461411Y207684D01*
X458625Y205696D01*
X458625Y207185D01*
X461542Y209191D01*
X462996Y209191D01*
X462996Y198190D01*
X466000Y198190D01*
X466000Y196850D01*
G37*
G36*
X1134643Y120475D02*
X1134223Y120487D01*
X1133822Y120522D01*
X1133443Y120581D01*
X1133084Y120663D01*
X1132747Y120769D01*
X1132430Y120899D01*
X1132134Y121052D01*
X1131858Y121228D01*
X1131605Y121427D01*
X1131377Y121647D01*
X1131173Y121888D01*
X1130993Y122150D01*
X1130838Y122433D01*
X1130707Y122737D01*
X1130600Y123063D01*
X1130518Y123409D01*
X1132112Y123593D01*
X1132181Y123371D01*
X1132262Y123164D01*
X1132355Y122971D01*
X1132460Y122792D01*
X1132577Y122628D01*
X1132707Y122477D01*
X1132849Y122342D01*
X1133003Y122220D01*
X1133170Y122113D01*
X1133349Y122020D01*
X1133540Y121941D01*
X1133743Y121877D01*
X1133958Y121827D01*
X1134186Y121791D01*
X1134426Y121769D01*
X1134679Y121762D01*
X1134987Y121774D01*
X1135279Y121810D01*
X1135553Y121870D01*
X1135811Y121954D01*
X1136050Y122062D01*
X1136273Y122193D01*
X1136479Y122349D01*
X1136667Y122529D01*
X1136835Y122729D01*
X1136981Y122948D01*
X1137104Y123184D01*
X1137205Y123439D01*
X1137284Y123711D01*
X1137340Y124001D01*
X1137374Y124309D01*
X1137385Y124635D01*
X1137374Y124919D01*
X1137340Y125190D01*
X1137283Y125446D01*
X1137204Y125688D01*
X1137103Y125917D01*
X1136978Y126131D01*
X1136832Y126332D01*
X1136662Y126518D01*
X1136474Y126687D01*
X1136270Y126832D01*
X1136050Y126956D01*
X1135814Y127057D01*
X1135562Y127135D01*
X1135295Y127192D01*
X1135012Y127225D01*
X1134714Y127236D01*
X1134399Y127224D01*
X1134096Y127186D01*
X1133804Y127123D01*
X1133522Y127035D01*
X1133246Y126917D01*
X1132971Y126763D01*
X1132695Y126575D01*
X1132419Y126352D01*
X1130877Y126352D01*
X1131289Y132991D01*
X1138305Y132991D01*
X1138305Y131651D01*
X1132725Y131651D01*
X1132489Y127736D01*
X1132753Y127920D01*
X1133032Y128081D01*
X1133328Y128216D01*
X1133638Y128327D01*
X1133965Y128413D01*
X1134307Y128475D01*
X1134664Y128512D01*
X1135038Y128524D01*
X1135481Y128507D01*
X1135902Y128457D01*
X1136300Y128374D01*
X1136674Y128257D01*
X1137026Y128107D01*
X1137354Y127923D01*
X1137659Y127706D01*
X1137941Y127455D01*
X1138195Y127178D01*
X1138414Y126881D01*
X1138600Y126563D01*
X1138752Y126225D01*
X1138871Y125867D01*
X1138955Y125488D01*
X1139006Y125089D01*
X1139023Y124670D01*
X1139005Y124195D01*
X1138950Y123746D01*
X1138860Y123322D01*
X1138733Y122925D01*
X1138569Y122554D01*
X1138370Y122208D01*
X1138134Y121889D01*
X1137862Y121596D01*
X1137558Y121333D01*
X1137226Y121105D01*
X1136866Y120913D01*
X1136477Y120755D01*
X1136061Y120633D01*
X1135616Y120545D01*
X1135144Y120492D01*
X1134643Y120475D01*
G37*
G36*
X1124834Y120475D02*
X1124452Y120488D01*
X1124090Y120525D01*
X1123748Y120589D01*
X1123425Y120677D01*
X1123123Y120791D01*
X1122841Y120931D01*
X1122578Y121095D01*
X1122336Y121285D01*
X1122113Y121500D01*
X1121910Y121741D01*
X1121727Y122007D01*
X1121564Y122298D01*
X1121421Y122614D01*
X1121298Y122956D01*
X1121195Y123323D01*
X1121112Y123715D01*
X1122749Y123987D01*
X1122795Y123740D01*
X1122853Y123507D01*
X1122923Y123288D01*
X1123006Y123083D01*
X1123100Y122892D01*
X1123208Y122714D01*
X1123327Y122551D01*
X1123459Y122402D01*
X1123601Y122268D01*
X1123752Y122153D01*
X1123912Y122055D01*
X1124081Y121975D01*
X1124258Y121912D01*
X1124444Y121868D01*
X1124639Y121841D01*
X1124843Y121832D01*
X1125064Y121842D01*
X1125274Y121872D01*
X1125472Y121920D01*
X1125657Y121989D01*
X1125831Y122077D01*
X1125992Y122185D01*
X1126142Y122312D01*
X1126279Y122459D01*
X1126402Y122624D01*
X1126509Y122808D01*
X1126599Y123010D01*
X1126673Y123230D01*
X1126731Y123469D01*
X1126772Y123726D01*
X1126796Y124000D01*
X1126805Y124294D01*
X1126805Y131624D01*
X1124431Y131624D01*
X1124431Y132991D01*
X1128469Y132991D01*
X1128469Y124329D01*
X1128454Y123892D01*
X1128408Y123479D01*
X1128332Y123090D01*
X1128226Y122725D01*
X1128089Y122384D01*
X1127922Y122066D01*
X1127724Y121773D01*
X1127497Y121504D01*
X1127242Y121263D01*
X1126966Y121054D01*
X1126666Y120877D01*
X1126345Y120732D01*
X1126001Y120620D01*
X1125634Y120539D01*
X1125245Y120491D01*
X1124834Y120475D01*
G37*
D10*
X1333000Y714300D02*
X1333002Y714344D01*
X1333008Y714388D01*
X1333018Y714431D01*
X1333031Y714473D01*
X1333048Y714514D01*
X1333069Y714553D01*
X1333093Y714590D01*
X1333120Y714625D01*
X1333150Y714657D01*
X1333183Y714687D01*
X1333219Y714713D01*
X1333256Y714737D01*
X1333296Y714756D01*
X1333337Y714773D01*
X1333380Y714785D01*
X1333423Y714794D01*
X1333467Y714799D01*
X1333511Y714800D01*
X1333555Y714797D01*
X1333599Y714790D01*
X1333642Y714779D01*
X1333684Y714765D01*
X1333724Y714747D01*
X1333763Y714725D01*
X1333799Y714701D01*
X1333833Y714673D01*
X1333865Y714642D01*
X1333894Y714608D01*
X1333920Y714572D01*
X1333942Y714534D01*
X1333961Y714494D01*
X1333976Y714452D01*
X1333988Y714410D01*
X1333996Y714366D01*
X1334000Y714322D01*
X1334000Y714278D01*
X1333996Y714234D01*
X1333988Y714190D01*
X1333976Y714148D01*
X1333961Y714106D01*
X1333942Y714066D01*
X1333920Y714028D01*
X1333894Y713992D01*
X1333865Y713958D01*
X1333833Y713927D01*
X1333799Y713899D01*
X1333763Y713875D01*
X1333724Y713853D01*
X1333684Y713835D01*
X1333642Y713821D01*
X1333599Y713810D01*
X1333555Y713803D01*
X1333511Y713800D01*
X1333467Y713801D01*
X1333423Y713806D01*
X1333380Y713815D01*
X1333337Y713827D01*
X1333296Y713844D01*
X1333256Y713863D01*
X1333219Y713887D01*
X1333183Y713913D01*
X1333150Y713943D01*
X1333120Y713975D01*
X1333093Y714010D01*
X1333069Y714047D01*
X1333048Y714086D01*
X1333031Y714127D01*
X1333018Y714169D01*
X1333008Y714212D01*
X1333002Y714256D01*
X1333000Y714300D01*
X1396500Y714300D02*
X1396502Y714344D01*
X1396508Y714388D01*
X1396518Y714431D01*
X1396531Y714473D01*
X1396548Y714514D01*
X1396569Y714553D01*
X1396593Y714590D01*
X1396620Y714625D01*
X1396650Y714657D01*
X1396683Y714687D01*
X1396719Y714713D01*
X1396756Y714737D01*
X1396796Y714756D01*
X1396837Y714773D01*
X1396880Y714785D01*
X1396923Y714794D01*
X1396967Y714799D01*
X1397011Y714800D01*
X1397055Y714797D01*
X1397099Y714790D01*
X1397142Y714779D01*
X1397184Y714765D01*
X1397224Y714747D01*
X1397263Y714725D01*
X1397299Y714701D01*
X1397333Y714673D01*
X1397365Y714642D01*
X1397394Y714608D01*
X1397420Y714572D01*
X1397442Y714534D01*
X1397461Y714494D01*
X1397476Y714452D01*
X1397488Y714410D01*
X1397496Y714366D01*
X1397500Y714322D01*
X1397500Y714278D01*
X1397496Y714234D01*
X1397488Y714190D01*
X1397476Y714148D01*
X1397461Y714106D01*
X1397442Y714066D01*
X1397420Y714028D01*
X1397394Y713992D01*
X1397365Y713958D01*
X1397333Y713927D01*
X1397299Y713899D01*
X1397263Y713875D01*
X1397224Y713853D01*
X1397184Y713835D01*
X1397142Y713821D01*
X1397099Y713810D01*
X1397055Y713803D01*
X1397011Y713800D01*
X1396967Y713801D01*
X1396923Y713806D01*
X1396880Y713815D01*
X1396837Y713827D01*
X1396796Y713844D01*
X1396756Y713863D01*
X1396719Y713887D01*
X1396683Y713913D01*
X1396650Y713943D01*
X1396620Y713975D01*
X1396593Y714010D01*
X1396569Y714047D01*
X1396548Y714086D01*
X1396531Y714127D01*
X1396518Y714169D01*
X1396508Y714212D01*
X1396502Y714256D01*
X1396500Y714300D01*
X1054100Y703750D02*
X1054100Y693250D01*
X1163150Y622300D02*
X1173650Y622300D01*
X1182200Y330850D02*
X1182200Y265600D01*
X1129200Y265600D02*
X1129200Y305350D01*
X1298560Y213190D02*
X1363810Y213190D01*
X1363810Y160190D02*
X1324060Y160190D01*
X1236020Y734700D02*
X1236020Y821200D01*
X1176980Y814700D02*
X1176980Y734700D01*
X1266700Y342000D02*
X1298700Y342000D01*
X1298700Y293000D01*
X1266700Y293000D01*
X1266700Y342000D01*
X1263200Y343300D02*
X1247950Y343300D01*
X1133600Y723000D02*
X1101600Y723000D01*
X1133600Y723000D02*
X1133600Y674000D01*
X1101600Y674000D01*
X1101600Y723000D01*
X1098100Y724300D02*
X1082850Y724300D01*
X1456440Y542130D02*
X1478440Y542130D01*
X1456440Y542130D02*
X1456440Y447130D01*
X1478440Y447130D01*
X1498440Y542130D02*
X1589440Y542130D01*
X1589440Y447130D01*
X1498440Y447130D01*
X1478440Y402430D02*
X1456440Y402430D01*
X1456440Y307430D01*
X1478440Y307430D01*
X1498440Y402430D02*
X1589440Y402430D01*
X1589440Y307430D01*
X1498440Y307430D01*
X1478440Y262730D02*
X1456440Y262730D01*
X1456440Y167730D01*
X1478440Y167730D01*
X1498440Y262730D02*
X1589440Y262730D01*
X1589440Y167730D01*
X1498440Y167730D01*
X665400Y185600D02*
X665400Y88900D01*
X665400Y185600D02*
X777900Y185600D01*
X777900Y71400D01*
X723900Y71400D01*
X1309100Y761000D02*
X1309100Y813800D01*
X1309100Y761000D02*
X1256300Y761000D01*
X1256300Y813800D01*
X1309100Y813800D01*
D11*
X1284700Y818400D02*
X1284656Y818402D01*
X1284613Y818408D01*
X1284571Y818417D01*
X1284529Y818430D01*
X1284489Y818447D01*
X1284450Y818467D01*
X1284413Y818490D01*
X1284379Y818517D01*
X1284346Y818546D01*
X1284317Y818579D01*
X1284290Y818613D01*
X1284267Y818650D01*
X1284247Y818689D01*
X1284230Y818729D01*
X1284217Y818771D01*
X1284208Y818813D01*
X1284202Y818856D01*
X1284200Y818900D01*
X1284202Y818944D01*
X1284208Y818987D01*
X1284217Y819029D01*
X1284230Y819071D01*
X1284247Y819111D01*
X1284267Y819150D01*
X1284290Y819187D01*
X1284317Y819221D01*
X1284346Y819254D01*
X1284379Y819283D01*
X1284413Y819310D01*
X1284450Y819333D01*
X1284489Y819353D01*
X1284529Y819370D01*
X1284571Y819383D01*
X1284613Y819392D01*
X1284656Y819398D01*
X1284700Y819400D01*
X1284744Y819398D01*
X1284787Y819392D01*
X1284829Y819383D01*
X1284871Y819370D01*
X1284911Y819353D01*
X1284950Y819333D01*
X1284987Y819310D01*
X1285021Y819283D01*
X1285054Y819254D01*
X1285083Y819221D01*
X1285110Y819187D01*
X1285133Y819150D01*
X1285153Y819111D01*
X1285170Y819071D01*
X1285183Y819029D01*
X1285192Y818987D01*
X1285198Y818944D01*
X1285200Y818900D01*
X1285198Y818856D01*
X1285192Y818813D01*
X1285183Y818771D01*
X1285170Y818729D01*
X1285153Y818689D01*
X1285133Y818650D01*
X1285110Y818613D01*
X1285083Y818579D01*
X1285054Y818546D01*
X1285021Y818517D01*
X1284987Y818490D01*
X1284950Y818467D01*
X1284911Y818447D01*
X1284871Y818430D01*
X1284829Y818417D01*
X1284787Y818408D01*
X1284744Y818402D01*
X1284700Y818400D01*
X1003300Y242000D02*
X133300Y242000D01*
X133300Y762000D01*
X1003300Y762000D01*
X1003300Y242000D01*
D10*
X1008300Y300000D02*
X1008238Y300002D01*
X1008177Y300008D01*
X1008116Y300017D01*
X1008056Y300030D01*
X1007997Y300047D01*
X1007939Y300068D01*
X1007882Y300092D01*
X1007827Y300119D01*
X1007774Y300150D01*
X1007722Y300184D01*
X1007673Y300221D01*
X1007626Y300261D01*
X1007582Y300304D01*
X1007541Y300349D01*
X1007502Y300397D01*
X1007466Y300448D01*
X1007434Y300500D01*
X1007405Y300554D01*
X1007379Y300610D01*
X1007357Y300668D01*
X1007338Y300726D01*
X1007323Y300786D01*
X1007312Y300847D01*
X1007304Y300908D01*
X1007300Y300969D01*
X1007300Y301031D01*
X1007304Y301092D01*
X1007312Y301153D01*
X1007323Y301214D01*
X1007338Y301274D01*
X1007357Y301332D01*
X1007379Y301390D01*
X1007405Y301446D01*
X1007434Y301500D01*
X1007466Y301552D01*
X1007502Y301603D01*
X1007541Y301651D01*
X1007582Y301696D01*
X1007626Y301739D01*
X1007673Y301779D01*
X1007722Y301816D01*
X1007774Y301850D01*
X1007827Y301881D01*
X1007882Y301908D01*
X1007939Y301932D01*
X1007997Y301953D01*
X1008056Y301970D01*
X1008116Y301983D01*
X1008177Y301992D01*
X1008238Y301998D01*
X1008300Y302000D01*
X1008362Y301998D01*
X1008423Y301992D01*
X1008484Y301983D01*
X1008544Y301970D01*
X1008603Y301953D01*
X1008661Y301932D01*
X1008718Y301908D01*
X1008773Y301881D01*
X1008826Y301850D01*
X1008878Y301816D01*
X1008927Y301779D01*
X1008974Y301739D01*
X1009018Y301696D01*
X1009059Y301651D01*
X1009098Y301603D01*
X1009134Y301552D01*
X1009166Y301500D01*
X1009195Y301446D01*
X1009221Y301390D01*
X1009243Y301332D01*
X1009262Y301274D01*
X1009277Y301214D01*
X1009288Y301153D01*
X1009296Y301092D01*
X1009300Y301031D01*
X1009300Y300969D01*
X1009296Y300908D01*
X1009288Y300847D01*
X1009277Y300786D01*
X1009262Y300726D01*
X1009243Y300668D01*
X1009221Y300610D01*
X1009195Y300554D01*
X1009166Y300500D01*
X1009134Y300448D01*
X1009098Y300397D01*
X1009059Y300349D01*
X1009018Y300304D01*
X1008974Y300261D01*
X1008927Y300221D01*
X1008878Y300184D01*
X1008826Y300150D01*
X1008773Y300119D01*
X1008718Y300092D01*
X1008661Y300068D01*
X1008603Y300047D01*
X1008544Y300030D01*
X1008484Y300017D01*
X1008423Y300008D01*
X1008362Y300002D01*
X1008300Y300000D01*
X331400Y175000D02*
X331400Y141000D01*
X331400Y175000D02*
X579400Y175000D01*
X579400Y139000D01*
X579400Y113000D02*
X579400Y79000D01*
X331400Y79000D01*
X331400Y113000D01*
D11*
X325900Y127000D02*
X325898Y126956D01*
X325892Y126913D01*
X325883Y126871D01*
X325870Y126829D01*
X325853Y126789D01*
X325833Y126750D01*
X325810Y126713D01*
X325783Y126679D01*
X325754Y126646D01*
X325721Y126617D01*
X325687Y126590D01*
X325650Y126567D01*
X325611Y126547D01*
X325571Y126530D01*
X325529Y126517D01*
X325487Y126508D01*
X325444Y126502D01*
X325400Y126500D01*
X325356Y126502D01*
X325313Y126508D01*
X325271Y126517D01*
X325229Y126530D01*
X325189Y126547D01*
X325150Y126567D01*
X325113Y126590D01*
X325079Y126617D01*
X325046Y126646D01*
X325017Y126679D01*
X324990Y126713D01*
X324967Y126750D01*
X324947Y126789D01*
X324930Y126829D01*
X324917Y126871D01*
X324908Y126913D01*
X324902Y126956D01*
X324900Y127000D01*
X324902Y127044D01*
X324908Y127087D01*
X324917Y127129D01*
X324930Y127171D01*
X324947Y127211D01*
X324967Y127250D01*
X324990Y127287D01*
X325017Y127321D01*
X325046Y127354D01*
X325079Y127383D01*
X325113Y127410D01*
X325150Y127433D01*
X325189Y127453D01*
X325229Y127470D01*
X325271Y127483D01*
X325313Y127492D01*
X325356Y127498D01*
X325400Y127500D01*
X325444Y127498D01*
X325487Y127492D01*
X325529Y127483D01*
X325571Y127470D01*
X325611Y127453D01*
X325650Y127433D01*
X325687Y127410D01*
X325721Y127383D01*
X325754Y127354D01*
X325783Y127321D01*
X325810Y127287D01*
X325833Y127250D01*
X325853Y127211D01*
X325870Y127171D01*
X325883Y127129D01*
X325892Y127087D01*
X325898Y127044D01*
X325900Y127000D01*
D10*
X1136650Y104300D02*
X1200150Y104300D01*
X1200150Y73500D02*
X1136650Y73500D01*
M02*
