G04 EAGLE Gerber RS-274X export*
G75*
%MOMM*%
%FSLAX34Y34*%
%LPD*%
%INSolderpaste Top*%
%IPPOS*%
%AMOC8*
5,1,8,0,0,1.08239X$1,22.5*%
G01*
G04 Define Apertures*
%ADD10R,0.600000X0.620000*%
%ADD11R,2.700000X1.600000*%
%ADD12R,0.620000X1.470000*%
%ADD13R,0.990000X0.780000*%
%ADD14R,1.390000X0.910000*%
%ADD15R,1.800000X3.350000*%
%ADD16R,3.350000X1.800000*%
%ADD17R,3.150000X2.300000*%
%ADD18R,1.525000X0.650000*%
%ADD19R,4.400000X1.180000*%
%ADD20R,0.600000X0.750000*%
%ADD21R,0.400000X0.625000*%
D10*
X1113000Y749300D03*
X1122200Y749300D03*
D11*
X1333500Y700800D03*
X1333500Y670800D03*
X1397000Y700800D03*
X1397000Y670800D03*
D12*
X1044100Y698500D03*
X1064100Y698500D03*
D13*
X1130300Y615300D03*
X1130300Y629300D03*
D14*
X1168400Y614100D03*
X1168400Y630500D03*
D15*
X1155700Y314100D03*
X1155700Y270100D03*
D16*
X1315310Y186690D03*
X1359310Y186690D03*
D17*
X1206500Y809700D03*
X1206500Y739700D03*
D18*
X1255580Y336550D03*
X1255580Y323850D03*
X1255580Y311150D03*
X1255580Y298450D03*
X1309820Y298450D03*
X1309820Y311150D03*
X1309820Y323850D03*
X1309820Y336550D03*
X1090480Y717550D03*
X1090480Y704850D03*
X1090480Y692150D03*
X1090480Y679450D03*
X1144720Y679450D03*
X1144720Y692150D03*
X1144720Y704850D03*
X1144720Y717550D03*
D19*
X1282700Y803950D03*
X1282700Y770850D03*
D20*
X1244600Y691300D03*
X1244600Y680300D03*
X1244600Y642200D03*
X1244600Y653200D03*
D21*
X1168400Y656280D03*
X1168400Y664520D03*
D20*
X1092200Y642200D03*
X1092200Y653200D03*
M02*
