M48
;GenerationSoftware,Autodesk,EAGLE,9.7.0*%
;CreationDate,2025-02-23T21:24:43Z*%
FMAT,2
ICI,OFF
METRIC,TZ,000.000
T8C0.350
T7C1.000
T6C1.200
T5C1.300
T4C1.400
T3C1.800
T2C2.000
T1C5.000
%
G90
M71
T1
X140970Y10008
X19000Y90000
X19000Y10000
X141000Y90010
T2
X94630Y35450
X94630Y29950
T3
X72390Y16810
X72390Y12850
X72390Y8890
T4
X119380Y8890
X114300Y8890
T5
X56790Y12700
X34290Y12700
T6
X148844Y53213
X148844Y50713
X148844Y48213
X148844Y45713
X148844Y39243
X148844Y36743
X148844Y34243
X148844Y31743
X148844Y25273
X148844Y22773
X148844Y20273
X148844Y17773
T7
X18630Y71200
X18630Y64450
T8
X146304Y53213
X146304Y39243
X146304Y25273
X123190Y67310
X115622Y67258
X142494Y45593
X143764Y50066
X143764Y36703
X143764Y22733
M30